{
.appVersion = "3324";
.formatVersion = 3;
axes = (
{
name = Weight;
tag = wght;
}
);
classes = (
{
code = "zero one two three four five six seven eight nine";
name = fig;
},
{
code = "zerosuperior onesuperior twosuperior threesuperior foursuperior fivesuperior sixsuperior sevensuperior eightsuperior ninesuperior
";
name = sups;
},
{
code = "zeroinferior oneinferior twoinferior threeinferior fourinferior fiveinferior sixinferior seveninferior eightinferior nineinferior
";
name = dnom;
}
);
customParameters = (
{
disabled = 1;
name = glyphOrder;
value = (
.notdef,
NULL,
CR,
space,
uni00A0,
A,
B,
C,
D,
E,
F,
G,
H,
I,
J,
K,
L,
M,
N,
O,
P,
Q,
R,
S,
T,
U,
V,
W,
X,
Y,
Z,
Aacute,
Abreve,
Acircumflex,
Adieresis,
AE,
Agrave,
Amacron,
Aogonek,
Aring,
Atilde,
Cacute,
Ccaron,
Ccedilla,
Ccircumflex,
Cdotaccent,
Dcaron,
Dcroat,
Eacute,
Ebreve,
Ecaron,
Ecircumflex,
Edieresis,
Edotaccent,
Egrave,
Emacron,
Eng,
Eogonek,
Eth,
Gbreve,
Gcircumflex,
Gcommaaccent,
Gdotaccent,
Hbar,
Hcircumflex,
Iacute,
Ibreve,
Icircumflex,
Idieresis,
Idotaccent,
Igrave,
IJ,
Imacron,
Iogonek,
Itilde,
Jcircumflex,
Kcommaaccent,
Lacute,
Lcaron,
Lcommaaccent,
Ldot,
Lslash,
Nacute,
Ncaron,
Ncommaaccent,
Ntilde,
Oacute,
Obreve,
Ocircumflex,
Odieresis,
OE,
Ograve,
Ohungarumlaut,
Omacron,
Oslash,
Otilde,
Racute,
Rcaron,
Rcommaaccent,
Sacute,
Scaron,
Scedilla,
Scircumflex,
Scommaaccent,
Tbar,
Tcaron,
Tcedilla,
uni021A,
Thorn,
Uacute,
Ubreve,
Ucircumflex,
Udieresis,
Ugrave,
Uhungarumlaut,
Umacron,
Uogonek,
Uring,
Utilde,
Wacute,
Wdieresis,
Wgrave,
Wcircumflex,
Yacute,
Ycircumflex,
Ydieresis,
Ygrave,
Zacute,
Zcaron,
Zdotaccent,
a,
b,
c,
d,
e,
f,
g,
h,
i,
j,
k,
l,
m,
n,
o,
p,
q,
r,
s,
t,
u,
v,
w,
x,
y,
z,
aacute,
abreve,
acircumflex,
adieresis,
ae,
agrave,
amacron,
aogonek,
aring,
atilde,
cacute,
ccaron,
ccedilla,
ccircumflex,
cdotaccent,
dcaron,
dcroat,
dotlessi,
dotlessj,
eacute,
ebreve,
ecaron,
ecircumflex,
edieresis,
edotaccent,
egrave,
emacron,
eng,
eogonek,
eth,
gbreve,
gcircumflex,
gcommaaccent,
gdotaccent,

glyphs = (
{
glyphname = A;
kernLeft = A;
kernRight = A;
lastChange = "2024-11-06 22:48:16 +0000";
layers = (
{
anchors = (
{
name = bottom;
pos = (582,0);
},
{
name = top;
pos = (418,700);
}
);
layerId = m001;
shapes = (
{
closed = 1;
nodes = (
(7,0,l),
(152,237,l),
(492,237,l),
(538,0,l),
(583,0,l),
(446,700,l),
(387,700,l),
(-44,0,l)
);
},
{
closed = 1;
nodes = (
(410,659,l),
(484,278,l),
(177,278,l)
);
}
);
width = 642;
},
{
anchors = (
{
name = bottom;
pos = (609,0);
},
{
name = top;
pos = (423,700);
}
);
layerId = "C55C9F18-A1E0-4E6D-8952-C5F71D844606";
shapes = (
{
closed = 1;
nodes = (
(35,0,l),
(168,220,l),
(490,220,l),
(531,0,l),
(609,0,l),
(473,700,l),
(381,700,l),
(-49,0,l)
);
},
{
closed = 1;
nodes = (
(414,627,l),
(478,286,l),
(208,286,l)
);
}
);
width = 666;
},
{
anchors = (
{
name = bottom;
pos = (689,0);
},
{
name = top;
pos = (452,700);
}
);
layerId = "0A8B8749-808B-4003-9378-5450DA0F5EBF";
shapes = (
{
closed = 1;
nodes = (
(121,0,l),
(219,169,l),
(487,169,l),
(515,0,l),
(689,0,l),
(557,700,l),
(364,700,l),
(-63,0,l)
);
},
{
closed = 1;
nodes = (
(428,530,l),
(465,306,l),
(298,306,l)
);
}
);
width = 738;
}
);
unicode = 65;
},
{
glyphname = Aogonek;
kernLeft = A;
kernRight = A;
lastChange = "2024-11-06 22:48:16 +0000";
layers = (
{
layerId = m001;
shapes = (
{
closed = 1;
nodes = (
(7,0,l),
(152,237,l),
(492,237,l),
(538,0,l),
(539,0,l),
(455,-38,o),
(405,-94,o),
(405,-149,cs),
(405,-193,o),
(440,-222,o),
(492,-222,cs),
(514,-222,o),
(533,-217,o),
(551,-209,c),
(547,-178,l),
(532,-185,o),
(514,-189,o),
(498,-189,cs),
(466,-189,o),
(444,-170,o),
(444,-143,cs),
(444,-99,o),
(475,-55,o),
(583,0,c),
(446,700,l),
(387,700,l),
(-44,0,l)
);
},
{
closed = 1;
nodes = (
(410,659,l),
(484,278,l),
(177,278,l)
);
}
);
width = 642;
},
{
layerId = "C55C9F18-A1E0-4E6D-8952-C5F71D844606";
shapes = (
{
closed = 1;
nodes = (
(35,0,l),
(168,220,l),
(490,220,l),
(531,0,l),
(547,0,l),
(466,-47,o),
(425,-96,o),
(425,-149,cs),
(425,-193,o),
(460,-222,o),
(513,-222,cs),
(536,-222,o),
(558,-216,o),
(579,-206,c),
(574,-166,l),
(560,-173,o),
(543,-177,o),
(528,-177,cs),
(498,-177,o),
(478,-160,o),
(478,-134,cs),
(478,-88,o),
(519,-47,o),
(609,0,c),
(473,700,l),
(381,700,l),
(-49,0,l)
);
},
{
closed = 1;
nodes = (
(414,627,l),
(478,286,l),
(208,286,l)
);
}
);
width = 666;
},
{
layerId = "0A8B8749-808B-4003-9378-5450DA0F5EBF";
shapes = (
{
closed = 1;
nodes = (
(121,0,l),
(219,169,l),
(487,169,l),
(515,0,l),
(604,0,l),
(527,-44,o),
(489,-93,o),
(489,-148,cs),
(489,-193,o),
(523,-221,o),
(577,-221,cs),
(608,-221,o),
(641,-213,o),
(667,-198,c),
(661,-128,l),
(650,-135,o),
(636,-139,o),
(623,-139,cs),
(599,-139,o),
(585,-128,o),
(585,-108,cs),
(585,-72,o),
(619,-37,o),
(689,0,c),
(557,700,l),
(364,700,l),
(-63,0,l)
);
},
{
closed = 1;
nodes = (
(428,530,l),
(465,306,l),
(298,306,l)
);
}
);
width = 738;
}
);
unicode = 260;
},
{
glyphname = AE;
kernLeft = A;
kernRight = E;
lastChange = "2024-11-06 22:48:16 +0000";
layers = (
{
layerId = m001;
shapes = (
{
closed = 1;
nodes = (
(7,0,l),
(152,237,l),
(492,237,l),
(538,0,l),
(838,0,l),
(847,43,l),
(575,43,l),
(518,332,l),
(766,332,l),
(775,375,l),
(510,375,l),
(454,657,l),
(974,657,l),
(983,700,l),
(387,700,l),
(-44,0,l)
);
},
{
closed = 1;
nodes = (
(410,659,l),
(484,278,l),
(177,278,l)
);
}
);
width = 920;
},
{
layerId = "C55C9F18-A1E0-4E6D-8952-C5F71D844606";
shapes = (
{
closed = 1;
nodes = (
(32,0,l),
(166,220,l),
(489,220,l),
(529,0,l),
(847,0,l),
(861,68,l),
(592,68,l),
(546,320,l),
(777,320,l),
(791,387,l),
(534,387,l),
(490,632,l),
(981,632,l),
(996,700,l),
(382,700,l),
(-49,0,l)
);
},
{
closed = 1;
nodes = (
(416,629,l),
(478,286,l),
(207,286,l)
);
}
);
width = 934;
},
{
layerId = "0A8B8749-808B-4003-9378-5450DA0F5EBF";
shapes = (
{
closed = 1;
nodes = (
(110,0,l),
(213,169,l),
(482,169,l),
(504,0,l),
(876,0,l),
(907,149,l),
(650,149,l),
(631,281,l),
(814,281,l),
(845,425,l),
(612,425,l),
(594,551,l),
(993,551,l),
(1024,700,l),
(366,700,l),
(-63,0,l)
);
},
{
closed = 1;
nodes = (
(435,530,l),
(464,306,l),
(297,306,l)
);
}
);
width = 976;
}
);
unicode = 198;
},
{
glyphname = B;
kernLeft = H;
lastChange = "2024-11-06 22:48:16 +0000";
layers = (
{
layerId = m001;
shapes = (
{
closed = 1;
nodes = (
(316,0,ls),
(468,0,o),
(571,88,o),
(571,218,cs),
(571,290,o),
(526,342,o),
(447,363,c),
(547,385,o),
(608,452,o),
(608,545,cs),
(608,640,o),
(533,700,o),
(415,700,cs),
(178,700,l),
(29,0,l)
);
},
{
closed = 1;
nodes = (
(214,657,l),
(415,657,ls),
(507,657,o),
(563,613,o),
(563,542,cs),
(563,450,o),
(487,387,o),
(376,387,cs),
(156,387,l)
);
},
{
closed = 1;
nodes = (
(147,344,l),
(359,344,ls),
(462,344,o),
(525,295,o),
(525,216,cs),
(525,113,o),
(440,43,o),
(316,43,cs),
(83,43,l)
);
}
);
width = 628;
},
{
layerId = "C55C9F18-A1E0-4E6D-8952-C5F71D844606";
shapes = (
{
closed = 1;
nodes = (
(331,0,ls),
(482,0,o),
(590,91,o),
(590,219,cs),
(590,284,o),
(552,334,o),
(488,359,c),
(572,389,o),
(626,457,o),
(626,544,cs),
(626,641,o),
(552,700,o),
(431,700,cs),
(171,700,l),
(22,0,l)
);
},
{
closed = 1;
nodes = (
(232,633,l),
(420,633,ls),
(500,633,o),
(550,595,o),
(550,532,cs),
(550,451,o),
(483,395,o),
(386,395,cs),
(181,395,l)
);
},
{
closed = 1;
nodes = (
(167,331,l),
(369,331,ls),
(459,331,o),
(514,288,o),
(514,218,cs),
(514,129,o),
(440,67,o),
(332,67,cs),
(111,67,l)
);
}
);
width = 644;
},
{
layerId = "0A8B8749-808B-4003-9378-5450DA0F5EBF";
shapes = (
{
closed = 1;
nodes = (
(380,0,ls),
(533,0,o),
(650,97,o),
(650,225,cs),
(650,278,o),
(622,323,o),
(576,353,c),
(640,392,o),
(682,456,o),
(682,528,cs),
(682,632,o),
(597,700,o),
(468,700,cs),
(150,700,l),
(1,0,l)
);
},
{
closed = 1;
nodes = (
(288,559,l),
(439,559,ls),
(483,559,o),
(510,537,o),
(510,500,cs),
(510,455,o),
(471,421,o),
(419,421,cs),
(259,421,l)
);
},
{
closed = 1;
nodes = (
(231,289,l),
(404,289,ls),
(452,289,o),
(481,265,o),
(481,226,cs),
(481,177,o),
(440,141,o),
(384,141,cs),
(199,141,l)
);
}
);
width = 691;
}
);
unicode = 66;
},
{
glyphname = C;
kernLeft = O;
kernRight = C;
lastChange = "2024-11-06 22:48:16 +0000";
layers = (
{
anchors = (
{
name = bottom;
pos = (396,0);
},
{
name = top;
pos = (452,700);
}
);
layerId = m001;
shapes = (
{
closed = 1;
nodes = (
(492,-11,o),
(591,25,o),
(664,89,c),
(636,123,l),
(569,64,o),
(483,32,o),
(397,32,cs),
(226,32,o),
(115,166,o),
(115,322,cs),
(115,509,o),
(260,668,o),
(441,668,cs),
(542,668,o),
(625,630,o),
(678,563,c),
(712,589,l),
(652,667,o),
(554,711,o),
(444,711,cs),
(242,711,o),
(69,535,o),
(69,320,cs),
(69,132,o),
(209,-11,o),
(394,-11,cs)
);
}
);
userData = {
com.typemytype.robofont.guideline.magnetic.CCEku82hbh = 5;
com.typemytype.robofont.guideline.magnetic.JPTopLMvSW = 5;
com.typemytype.robofont.guideline.magnetic.baqpSzBiHI = 5;
};
width = 710;
},
{
anchors = (
{
name = bottom;
pos = (387,0);
},
{
name = top;
pos = (453,700);
}
);
layerId = "C55C9F18-A1E0-4E6D-8952-C5F71D844606";
shapes = (
{
closed = 1;
nodes = (
(493,-11,o),
(591,27,o),
(667,95,c),
(627,148,l),
(567,92,o),
(484,59,o),
(401,59,cs),
(251,59,o),
(141,171,o),
(141,322,cs),
(141,499,o),
(274,639,o),
(442,639,cs),
(534,639,o),
(614,600,o),
(661,532,c),
(718,584,l),
(657,665,o),
(562,709,o),
(446,709,cs),
(237,709,o),
(64,533,o),
(64,319,cs),
(64,131,o),
(207,-11,o),
(396,-11,cs)
);
}
);
userData = {
com.typemytype.robofont.guideline.magnetic.CCEku82hbh = 5;
com.typemytype.robofont.guideline.magnetic.JPTopLMvSW = 5;
com.typemytype.robofont.guideline.magnetic.baqpSzBiHI = 5;
};
width = 709;
},
{
anchors = (
{
name = bottom;
pos = (374,0);
},
{
name = top;
pos = (451,700);
}
);
layerId = "0A8B8749-808B-4003-9378-5450DA0F5EBF";
shapes = (
{
closed = 1;
nodes = (
(494,-12,o),
(606,36,o),
(680,112,c),
(587,227,l),
(535,174,o),
(475,146,o),
(411,146,cs),
(303,146,o),
(223,225,o),
(223,330,cs),
(223,451,o),
(316,550,o),
(431,550,cs),
(506,550,o),
(565,515,o),
(602,450,c),
(733,560,l),
(674,655,o),
(571,707,o),
(440,707,cs),
(225,707,o),
(50,534,o),
(50,321,cs),
(50,134,o),
(199,-12,o),
(390,-12,cs)
);
}
);
userData = {
com.typemytype.robofont.guideline.magnetic.CCEku82hbh = 5;
com.typemytype.robofont.guideline.magnetic.JPTopLMvSW = 5;
com.typemytype.robofont.guideline.magnetic.baqpSzBiHI = 5;
};
width = 707;
}
);
unicode = 67;
},
{
glyphname = Ccedilla;
kernLeft = O;
kernRight = C;
lastChange = "2024-11-06 22:48:16 +0000";
layers = (
{
layerId = m001;
shapes = (
{
closed = 1;
nodes = (
(412,-224,o),
(460,-186,o),
(460,-130,cs),
(460,-92,o),
(433,-65,o),
(381,-60,c),
(405,-11,l),
(499,-8,o),
(594,27,o),
(664,89,c),
(636,123,l),
(569,64,o),
(483,32,o),
(397,32,cs),
(226,32,o),
(115,166,o),
(115,322,cs),
(115,509,o),
(260,668,o),
(441,668,cs),
(542,668,o),
(625,630,o),
(678,563,c),
(712,589,l),
(652,667,o),
(554,711,o),
(444,711,cs),
(242,711,o),
(69,535,o),
(69,320,cs),
(69,139,o),
(199,0,o),
(373,-10,c),
(335,-89,l),
(359,-89,ls),
(398,-89,o),
(426,-105,o),
(426,-135,cs),
(426,-168,o),
(398,-193,o),
(349,-193,cs),
(318,-193,o),
(294,-182,o),
(271,-157,c),
(245,-180,l),
(266,-207,o),
(306,-224,o),
(349,-224,cs)
);
}
);
width = 710;
},
{
layerId = "C55C9F18-A1E0-4E6D-8952-C5F71D844606";
shapes = (
{
closed = 1;
nodes = (
(409,-228,o),
(460,-186,o),
(460,-129,cs),
(460,-88,o),
(431,-61,o),
(382,-56,c),
(405,-11,l),
(499,-9,o),
(593,29,o),
(667,95,c),
(627,148,l),
(567,92,o),
(484,59,o),
(401,59,cs),
(251,59,o),
(141,171,o),
(141,322,cs),
(141,499,o),
(274,639,o),
(442,639,cs),
(534,639,o),
(614,600,o),
(661,532,c),
(718,584,l),
(657,665,o),
(562,709,o),
(446,709,cs),
(237,709,o),
(64,533,o),
(64,319,cs),
(64,142,o),
(190,6,o),
(362,-9,c),
(322,-91,l),
(351,-91,ls),
(389,-91,o),
(412,-107,o),
(412,-134,cs),
(412,-165,o),
(383,-186,o),
(342,-186,cs),
(311,-186,o),
(286,-175,o),
(264,-151,c),
(231,-181,l),
(255,-211,o),
(295,-228,o),
(341,-228,cs)
);
}
);
width = 709;
},
{
layerId = "0A8B8749-808B-4003-9378-5450DA0F5EBF";
shapes = (
{
closed = 1;
nodes = (
(398,-238,o),
(463,-188,o),
(463,-126,cs),
(463,-82,o),
(435,-53,o),
(387,-44,c),
(404,-12,l),
(504,-8,o),
(609,39,o),
(680,112,c),
(587,227,l),
(535,174,o),
(475,146,o),
(411,146,cs),
(303,146,o),
(223,225,o),
(223,330,cs),
(223,451,o),
(316,550,o),
(431,550,cs),
(506,550,o),
(565,515,o),
(602,450,c),
(733,560,l),
(674,655,o),
(571,707,o),
(440,707,cs),
(225,707,o),
(50,534,o),
(50,321,cs),
(50,154,o),
(169,20,o),
(330,-7,c),
(285,-97,l),
(328,-97,ls),
(355,-97,o),
(372,-110,o),
(372,-130,cs),
(372,-151,o),
(352,-165,o),
(322,-165,cs),
(293,-165,o),
(266,-154,o),
(246,-133,c),
(189,-185,l),
(223,-222,o),
(263,-238,o),
(318,-238,cs)
);
}
);
width = 707;
}
);
unicode = 199;
},
{
glyphname = D;
kernLeft = H;
kernRight = O;
lastChange = "2024-11-06 22:48:16 +0000";
layers = (
{
anchors = (
{
name = top;
pos = (447,700);
}
);
layerId = m001;
shapes = (
{
closed = 1;
nodes = (
(267,0,ls),
(499,0,o),
(678,171,o),
(678,392,cs),
(678,579,o),
(554,700,o),
(363,700,cs),
(178,700,l),
(29,0,l)
);
},
{
closed = 1;
nodes = (
(214,657,l),
(365,657,ls),
(526,657,o),
(632,553,o),
(632,394,cs),
(632,199,o),
(473,43,o),
(275,43,cs),
(83,43,l)
);
}
);
width = 699;
},
{
anchors = (
{
name = top;
pos = (441,700);
}
);
layerId = "C55C9F18-A1E0-4E6D-8952-C5F71D844606";
shapes = (
{
closed = 1;
nodes = (
(278,0,ls),
(503,0,o),
(686,175,o),
(686,391,cs),
(686,576,o),
(559,700,o),
(369,700,cs),
(171,700,l),
(22,0,l)
);
},
{
closed = 1;
nodes = (
(231,630,l),
(365,630,ls),
(511,630,o),
(609,533,o),
(609,389,cs),
(609,212,o),
(466,70,o),
(288,70,cs),
(112,70,l)
);
}
);
width = 706;
},
{
anchors = (
{
name = top;
pos = (459,700);
}
);
layerId = "0A8B8749-808B-4003-9378-5450DA0F5EBF";
shapes = (
{
closed = 1;
nodes = (
(316,0,ls),
(534,0,o),
(718,177,o),
(718,387,cs),
(718,566,o),
(578,700,o),
(391,700,cs),
(150,700,l),
(1,0,l)
);
},
{
closed = 1;
nodes = (
(286,548,l),
(370,548,ls),
(469,548,o),
(542,474,o),
(542,373,cs),
(542,250,o),
(447,152,o),
(328,152,cs),
(201,152,l)
);
}
);
width = 730;
}
);
unicode = 68;
},
{
glyphname = Dcroat;
kernLeft = H;
kernRight = O;
lastChange = "2024-11-06 22:48:16 +0000";
layers = (
{
layerId = m001;
shapes = (
{
closed = 1;
nodes = (
(267,0,ls),
(499,0,o),
(678,171,o),
(678,392,cs),
(678,579,o),
(554,700,o),
(363,700,cs),
(178,700,l),
(109,375,l),
(38,375,l),
(30,334,l),
(100,334,l),
(29,0,l)
);
},
{
closed = 1;
nodes = (
(145,334,l),
(348,334,l),
(356,375,l),
(154,375,l),
(214,657,l),
(365,657,ls),
(526,657,o),
(632,553,o),
(632,394,cs),
(632,199,o),
(473,43,o),
(275,43,cs),
(83,43,l)
);
}
);
width = 699;
},
{
layerId = "C55C9F18-A1E0-4E6D-8952-C5F71D844606";
shapes = (
{
closed = 1;
nodes = (
(299,0,ls),
(524,0,o),
(707,175,o),
(707,391,cs),
(707,576,o),
(580,700,o),
(390,700,cs),
(192,700,l),
(125,383,l),
(39,383,l),
(25,317,l),
(110,317,l),
(43,0,l)
);
},
{
closed = 1;
nodes = (
(185,317,l),
(372,317,l),
(385,383,l),
(200,383,l),
(252,630,l),
(386,630,ls),
(532,630,o),
(630,533,o),
(630,389,cs),
(630,212,o),
(487,70,o),
(309,70,cs),
(133,70,l)
);
}
);
width = 727;
},
{
layerId = "0A8B8749-808B-4003-9378-5450DA0F5EBF";
shapes = (
{
closed = 1;
nodes = (
(341,0,ls),
(559,0,o),
(743,177,o),
(743,387,cs),
(743,566,o),
(603,700,o),
(416,700,cs),
(175,700,l),
(115,418,l),
(41,418,l),
(13,283,l),
(86,283,l),
(26,0,l)
);
},
{
closed = 1;
nodes = (
(254,283,l),
(416,283,l),
(444,418,l),
(283,418,l),
(311,548,l),
(395,548,ls),
(494,548,o),
(567,474,o),
(567,373,cs),
(567,250,o),
(472,152,o),
(353,152,cs),
(226,152,l)
);
}
);
width = 755;
}
);
unicode = 272;
},
{
glyphname = E;
kernLeft = H;
kernRight = E;
lastChange = "2024-11-06 22:48:16 +0000";
layers = (
{
anchors = (
{
name = bottom;
pos = (508,0);
},
{
name = top;
pos = (392,700);
}
);
guides = (
{
angle = 78;
pos = (495,-66);
userData = {
UFO.identifier = k6vuNYWA5u;
};
}
);
layerId = m001;
shapes = (
{
closed = 1;
nodes = (
(508,0,l),
(517,43,l),
(83,43,l),
(145,332,l),
(426,332,l),
(435,375,l),
(154,375,l),
(214,657,l),
(644,657,l),
(653,700,l),
(178,700,l),
(29,0,l)
);
}
);
userData = {
com.typemytype.robofont.guideline.magnetic.XecOzkCbmW = 5;
com.typemytype.robofont.guideline.magnetic.lRhohCeyZm = 5;
};
width = 590;
},
{
anchors = (
{
name = bottom;
pos = (517,0);
},
{
name = top;
pos = (410,700);
}
);
layerId = "C55C9F18-A1E0-4E6D-8952-C5F71D844606";
shapes = (
{
closed = 1;
nodes = (
(517,0,l),
(531,68,l),
(111,68,l),
(165,320,l),
(437,320,l),
(451,387,l),
(179,387,l),
(232,632,l),
(647,632,l),
(662,700,l),
(171,700,l),
(22,0,l)
);
}
);
userData = {
com.typemytype.robofont.guideline.magnetic.XecOzkCbmW = 5;
com.typemytype.robofont.guideline.magnetic.lRhohCeyZm = 5;
};
width = 604;
},
{
anchors = (
{
name = bottom;
pos = (546,0);
},
{
name = top;
pos = (417,700);
}
);
layerId = "0A8B8749-808B-4003-9378-5450DA0F5EBF";
shapes = (
{
closed = 1;
nodes = (
(546,0,l),
(578,149,l),
(201,149,l),
(229,281,l),
(475,281,l),
(505,425,l),
(259,425,l),
(286,551,l),
(659,551,l),
(691,700,l),
(150,700,l),
(1,0,l)
);
}
);
userData = {
com.typemytype.robofont.guideline.magnetic.XecOzkCbmW = 5;
com.typemytype.robofont.guideline.magnetic.lRhohCeyZm = 5;
};
width = 646;
}
);
unicode = 69;
},
{
glyphname = Eogonek;
kernLeft = H;
kernRight = E;
lastChange = "2024-11-06 22:48:16 +0000";
layers = (
{
layerId = m001;
shapes = (
{
closed = 1;
nodes = (
(437,-222,o),
(456,-218,o),
(476,-209,c),
(472,-178,l),
(457,-185,o),
(439,-189,o),
(423,-189,cs),
(391,-189,o),
(369,-170,o),
(369,-143,cs),
(369,-99,o),
(400,-55,o),
(508,0,c),
(517,43,l),
(83,43,l),
(145,332,l),
(426,332,l),
(435,375,l),
(154,375,l),
(214,657,l),
(644,657,l),
(653,700,l),
(178,700,l),
(29,0,l),
(453,0,l),
(360,-54,o),
(330,-105,o),
(330,-149,cs),
(330,-193,o),
(365,-222,o),
(417,-222,cs)
);
}
);
width = 590;
},
{
layerId = "C55C9F18-A1E0-4E6D-8952-C5F71D844606";
shapes = (
{
closed = 1;
nodes = (
(444,-222,o),
(466,-216,o),
(487,-206,c),
(482,-166,l),
(468,-173,o),
(451,-177,o),
(436,-177,cs),
(406,-177,o),
(386,-160,o),
(386,-134,cs),
(386,-88,o),
(427,-47,o),
(517,0,c),
(531,68,l),
(111,68,l),
(165,320,l),
(437,320,l),
(451,387,l),
(179,387,l),
(232,632,l),
(647,632,l),
(662,700,l),
(171,700,l),
(22,0,l),
(455,0,l),
(374,-47,o),
(333,-96,o),
(333,-149,cs),
(333,-193,o),
(368,-222,o),
(421,-222,cs)
);
}
);
width = 604;
},
{
layerId = "0A8B8749-808B-4003-9378-5450DA0F5EBF";
shapes = (
{
closed = 1;
nodes = (
(465,-221,o),
(498,-213,o),
(524,-198,c),
(518,-128,l),
(507,-135,o),
(493,-139,o),
(480,-139,cs),
(456,-139,o),
(442,-128,o),
(442,-108,cs),
(442,-72,o),
(476,-37,o),
(546,0,c),
(578,149,l),
(201,149,l),
(229,281,l),
(475,281,l),
(505,425,l),
(259,425,l),
(286,551,l),
(659,551,l),
(691,700,l),
(150,700,l),
(1,0,l),
(461,0,l),
(384,-44,o),
(346,-93,o),
(346,-148,cs),
(346,-193,o),
(380,-221,o),
(434,-221,cs)
);
}
);
width = 646;
}
);
unicode = 280;
},
{
glyphname = F;
kernLeft = H;
lastChange = "2024-11-06 22:48:16 +0000";
layers = (
{
layerId = m001;
shapes = (
{
closed = 1;
nodes = (
(74,0,l),
(144,327,l),
(424,327,l),
(433,370,l),
(153,370,l),
(214,657,l),
(643,657,l),
(652,700,l),
(178,700,l),
(29,0,l)
);
}
);
width = 580;
},
{
layerId = "C55C9F18-A1E0-4E6D-8952-C5F71D844606";
shapes = (
{
closed = 1;
nodes = (
(97,0,l),
(164,315,l),
(437,315,l),
(451,382,l),
(178,382,l),
(232,632,l),
(647,632,l),
(662,700,l),
(171,700,l),
(22,0,l)
);
}
);
width = 595;
},
{
layerId = "0A8B8749-808B-4003-9378-5450DA0F5EBF";
shapes = (
{
closed = 1;
nodes = (
(169,0,l),
(228,276,l),
(479,276,l),
(509,420,l),
(258,420,l),
(286,551,l),
(663,551,l),
(695,700,l),
(150,700,l),
(1,0,l)
);
}
);
width = 641;
}
);
unicode = 70;
},
{
glyphname = G;
kernLeft = O;
kernRight = G;
lastChange = "2024-11-06 22:48:16 +0000";
layers = (
{
anchors = (
{
name = bottom;
pos = (397,0);
},
{
name = top;
pos = (442,700);
}
);
layerId = m001;
shapes = (
{
closed = 1;
nodes = (
(571,-11,o),
(713,129,o),
(741,309,cs),
(748,354,l),
(438,354,l),
(434,311,l),
(698,311,l),
(673,151,o),
(547,32,o),
(397,32,cs),
(226,32,o),
(115,166,o),
(115,322,cs),
(115,509,o),
(260,668,o),
(441,668,cs),
(542,668,o),
(625,630,o),
(678,563,c),
(712,589,l),
(652,667,o),
(554,711,o),
(444,711,cs),
(242,711,o),
(69,535,o),
(69,320,cs),
(69,132,o),
(209,-11,o),
(394,-11,cs)
);
}
);
userData = {
SBAlt = left;
com.typemytype.robofont.guideline.magnetic.Cli6sfZKeA = 5;
com.typemytype.robofont.guideline.magnetic.sSX0MsXv32 = 5;
com.typemytype.robofont.guideline.magnetic.xpPNrcIPUA = 5;
};
width = 773;
},
{
anchors = (
{
name = bottom;
pos = (393,0);
},
{
name = top;
pos = (451,700);
}
);
layerId = "C55C9F18-A1E0-4E6D-8952-C5F71D844606";
shapes = (
{
closed = 1;
nodes = (
(566,-11,o),
(715,125,o),
(745,314,cs),
(754,366,l),
(431,366,l),
(420,298,l),
(666,298,l),
(639,158,o),
(528,60,o),
(394,60,cs),
(247,60,o),
(137,172,o),
(137,322,cs),
(137,498,o),
(272,639,o),
(438,639,cs),
(529,639,o),
(614,597,o),
(662,528,c),
(721,578,l),
(655,664,o),
(559,710,o),
(443,710,cs),
(236,710,o),
(61,532,o),
(61,320,cs),
(61,133,o),
(203,-11,o),
(389,-11,cs)
);
}
);
userData = {
SBAlt = left;
com.typemytype.robofont.guideline.magnetic.Cli6sfZKeA = 5;
com.typemytype.robofont.guideline.magnetic.sSX0MsXv32 = 5;
com.typemytype.robofont.guideline.magnetic.xpPNrcIPUA = 5;
};
width = 774;
},
{
anchors = (
{
name = bottom;
pos = (402,0);
},
{
name = top;
pos = (455,701);
}
);
layerId = "0A8B8749-808B-4003-9378-5450DA0F5EBF";
shapes = (
{
closed = 1;
nodes = (
(568,-14,o),
(725,127,o),
(762,328,cs),
(776,404,l),
(412,404,l),
(380,256,l),
(567,256,l),
(543,188,o),
(476,142,o),
(398,142,cs),
(294,142,o),
(221,216,o),
(221,319,cs),
(221,447,o),
(316,550,o),
(434,550,cs),
(507,550,o),
(569,514,o),
(604,450,c),
(736,560,l),
(680,651,o),
(570,708,o),
(448,708,cs),
(231,708,o),
(47,525,o),
(47,308,cs),
(47,123,o),
(189,-14,o),
(381,-14,cs)
);
}
);
userData = {
SBAlt = left;
com.typemytype.robofont.guideline.magnetic.Cli6sfZKeA = 5;
com.typemytype.robofont.guideline.magnetic.sSX0MsXv32 = 5;
com.typemytype.robofont.guideline.magnetic.xpPNrcIPUA = 5;
};
width = 780;
}
);
unicode = 71;
},
{
glyphname = H;
kernLeft = H;
kernRight = H;
lastChange = "2024-11-06 22:48:16 +0000";
layers = (
{
anchors = (
{
name = top;
pos = (442,700);
}
);
guides = (
{
angle = 78;
pos = (136,577);
userData = {
UFO.identifier = 7Tbys8jV4K;
};
}
);
layerId = m001;
shapes = (
{
closed = 1;
nodes = (
(74,0,l),
(145,332,l),
(583,332,l),
(512,0,l),
(557,0,l),
(706,700,l),
(661,700,l),
(591,373,l),
(153,373,l),
(223,700,l),
(178,700,l),
(29,0,l)
);
}
);
width = 690;
},
{
anchors = (
{
name = top;
pos = (446,700);
}
);
layerId = "C55C9F18-A1E0-4E6D-8952-C5F71D844606";
shapes = (
{
closed = 1;
nodes = (
(97,0,l),
(165,318,l),
(564,318,l),
(496,0,l),
(572,0,l),
(721,700,l),
(645,700,l),
(578,387,l),
(179,387,l),
(246,700,l),
(171,700,l),
(22,0,l)
);
}
);
width = 701;
},
{
anchors = (
{
name = top;
pos = (460,700);
}
);
layerId = "0A8B8749-808B-4003-9378-5450DA0F5EBF";
shapes = (
{
closed = 1;
nodes = (
(169,0,l),
(227,274,l),
(510,274,l),
(452,0,l),
(620,0,l),
(769,700,l),
(601,700,l),
(544,431,l),
(261,431,l),
(318,700,l),
(150,700,l),
(1,0,l)
);
}
);
width = 733;
}
);
unicode = 72;
},
{
glyphname = Hbar;
kernLeft = H;
kernRight = H;
lastChange = "2024-11-06 22:48:16 +0000";
layers = (
{
layerId = m001;
shapes = (
{
closed = 1;
nodes = (
(74,0,l),
(145,332,l),
(583,332,l),
(512,0,l),
(557,0,l),
(670,529,l),
(737,529,l),
(746,570,l),
(678,570,l),
(706,700,l),
(661,700,l),
(633,570,l),
(195,570,l),
(223,700,l),
(178,700,l),
(150,570,l),
(82,570,l),
(73,529,l),
(142,529,l),
(29,0,l)
);
},
{
closed = 1;
nodes = (
(186,529,l),
(624,529,l),
(591,373,l),
(153,373,l)
);
}
);
width = 690;
},
{
layerId = "C55C9F18-A1E0-4E6D-8952-C5F71D844606";
shapes = (
{
closed = 1;
nodes = (
(104,0,l),
(172,318,l),
(572,318,l),
(504,0,l),
(579,0,l),
(689,519,l),
(757,519,l),
(771,584,l),
(703,584,l),
(728,700,l),
(653,700,l),
(628,584,l),
(228,584,l),
(253,700,l),
(178,700,l),
(153,584,l),
(86,584,l),
(72,519,l),
(139,519,l),
(29,0,l)
);
},
{
closed = 1;
nodes = (
(214,519,l),
(614,519,l),
(586,387,l),
(186,387,l)
);
}
);
width = 716;
},
{
layerId = "0A8B8749-808B-4003-9378-5450DA0F5EBF";
shapes = (
{
closed = 1;
nodes = (
(186,0,l),
(244,274,l),
(527,274,l),
(469,0,l),
(637,0,l),
(741,489,l),
(808,489,l),
(836,624,l),
(770,624,l),
(786,700,l),
(618,700,l),
(602,624,l),
(319,624,l),
(335,700,l),
(167,700,l),
(151,624,l),
(84,624,l),
(56,489,l),
(122,489,l),
(18,0,l)
);
},
{
closed = 1;
nodes = (
(290,489,l),
(573,489,l),
(561,431,l),
(278,431,l)
);
}
);
width = 768;
}
);
unicode = 294;
},
{
glyphname = I;
kernLeft = H;
kernRight = H;
lastChange = "2024-11-06 22:48:16 +0000";
layers = (
{
anchors = (
{
name = bottom;
pos = (74,0);
},
{
name = top;
pos = (201,700);
}
);
layerId = m001;
shapes = (
{
closed = 1;
nodes = (
(74,0,l),
(223,700,l),
(178,700,l),
(29,0,l)
);
}
);
width = 207;
},
{
anchors = (
{
name = bottom;
pos = (97,0);
},
{
name = top;
pos = (209,700);
}
);
layerId = "C55C9F18-A1E0-4E6D-8952-C5F71D844606";
shapes = (
{
closed = 1;
nodes = (
(97,0,l),
(246,700,l),
(171,700,l),
(22,0,l)
);
}
);
width = 227;
},
{
anchors = (
{
name = bottom;
pos = (169,0);
},
{
name = top;
pos = (234,700);
}
);
layerId = "0A8B8749-808B-4003-9378-5450DA0F5EBF";
shapes = (
{
closed = 1;
nodes = (
(169,0,l),
(318,700,l),
(150,700,l),
(1,0,l)
);
}
);
width = 282;
}
);
unicode = 73;
},
{
glyphname = Iogonek;
kernLeft = H;
kernRight = H;
lastChange = "2024-11-06 22:48:16 +0000";
layers = (
{
layerId = m001;
shapes = (
{
closed = 1;
nodes = (
(5,-222,o),
(24,-217,o),
(42,-209,c),
(38,-178,l),
(23,-185,o),
(5,-189,o),
(-11,-189,cs),
(-43,-189,o),
(-65,-170,o),
(-65,-143,cs),
(-65,-99,o),
(-34,-55,o),
(74,0,c),
(223,700,l),
(178,700,l),
(29,0,l),
(30,0,l),
(-54,-38,o),
(-104,-94,o),
(-104,-149,cs),
(-104,-187,o),
(-76,-222,o),
(-17,-222,cs)
);
}
);
width = 207;
},
{
layerId = "C55C9F18-A1E0-4E6D-8952-C5F71D844606";
shapes = (
{
closed = 1;
nodes = (
(24,-222,o),
(46,-216,o),
(67,-206,c),
(62,-166,l),
(48,-173,o),
(31,-177,o),
(16,-177,cs),
(-14,-177,o),
(-34,-160,o),
(-34,-134,cs),
(-34,-88,o),
(7,-47,o),
(97,0,c),
(246,700,l),
(171,700,l),
(22,0,l),
(35,0,l),
(-46,-47,o),
(-87,-96,o),
(-87,-149,cs),
(-87,-193,o),
(-52,-222,o),
(1,-222,cs)
);
}
);
width = 227;
},
{
layerId = "0A8B8749-808B-4003-9378-5450DA0F5EBF";
shapes = (
{
closed = 1;
nodes = (
(88,-221,o),
(121,-213,o),
(147,-198,c),
(141,-128,l),
(130,-135,o),
(116,-139,o),
(103,-139,cs),
(79,-139,o),
(65,-128,o),
(65,-108,cs),
(65,-72,o),
(99,-37,o),
(169,0,c),
(318,700,l),
(150,700,l),
(1,0,l),
(84,0,l),
(7,-44,o),
(-31,-93,o),
(-31,-148,cs),
(-31,-193,o),
(3,-221,o),
(57,-221,cs)
);
}
);
width = 282;
}
);
unicode = 302;
},
{
glyphname = J;
kernLeft = J;
kernRight = U;
lastChange = "2024-11-06 22:48:16 +0000";
layers = (
{
anchors = (
{
name = top;
pos = (580,700);
}
);
guides = (
{
angle = 78;
pos = (560,498);
userData = {
UFO.identifier = YTSnbIA5oy;
};
}
);
layerId = m001;
shapes = (
{
closed = 1;
nodes = (
(380,-11,o),
(473,96,o),
(508,262,cs),
(601,700,l),
(556,700,l),
(463,262,ls),
(434,124,o),
(350,32,o),
(226,32,cs),
(132,32,o),
(73,80,o),
(48,172,c),
(10,156,l),
(36,52,o),
(115,-11,o),
(225,-11,cs)
);
}
);
width = 571;
},
{
anchors = (
{
name = top;
pos = (584,700);
}
);
layerId = "C55C9F18-A1E0-4E6D-8952-C5F71D844606";
shapes = (
{
closed = 1;
nodes = (
(387,-11,o),
(491,86,o),
(528,258,cs),
(622,700,l),
(546,700,l),
(453,264,ls),
(426,135,o),
(347,60,o),
(240,60,cs),
(153,60,o),
(99,105,o),
(78,197,c),
(10,171,l),
(35,56,o),
(120,-11,o),
(240,-11,cs)
);
}
);
width = 588;
},
{
anchors = (
{
name = top;
pos = (609,700);
}
);
layerId = "0A8B8749-808B-4003-9378-5450DA0F5EBF";
shapes = (
{
closed = 1;
nodes = (
(441,-9,o),
(560,90,o),
(594,245,cs),
(692,700,l),
(521,700,l),
(432,276,ls),
(415,198,o),
(357,146,o),
(285,146,cs),
(218,146,o),
(182,187,o),
(173,271,c),
(15,217,l),
(34,72,o),
(133,-9,o),
(289,-9,cs)
);
}
);
width = 645;
}
);
unicode = 74;
},
{
glyphname = K;
kernLeft = H;
kernRight = K;
lastChange = "2024-11-06 22:48:16 +0000";
layers = (
{
anchors = (
{
name = bottom;
pos = (232,0);
}
);
layerId = m001;
shapes = (
{
closed = 1;
nodes = (
(74,0,l),
(148,349,l),
(463,0,l),
(523,0,l),
(200,355,l),
(668,700,l),
(597,700,l),
(153,370,l),
(223,700,l),
(178,700,l),
(29,0,l)
);
}
);
width = 568;
},
{
anchors = (
{
name = bottom;
pos = (275,0);
}
);
layerId = "C55C9F18-A1E0-4E6D-8952-C5F71D844606";
shapes = (
{
closed = 1;
nodes = (
(97,0,l),
(170,345,l),
(459,0,l),
(557,0,l),
(254,358,l),
(702,700,l),
(598,700,l),
(177,377,l),
(246,700,l),
(171,700,l),
(22,0,l)
);
}
);
width = 604;
},
{
anchors = (
{
name = bottom;
pos = (289,0);
}
);
layerId = "0A8B8749-808B-4003-9378-5450DA0F5EBF";
shapes = (
{
closed = 1;
nodes = (
(169,0,l),
(239,327,l),
(450,0,l),
(662,0,l),
(410,364,l),
(806,700,l),
(588,700,l),
(255,406,l),
(318,700,l),
(150,700,l),
(1,0,l)
);
}
);
width = 714;
}
);
unicode = 75;
},
{
glyphname = L;
kernLeft = H;
kernRight = L;
lastChange = "2024-11-14 15:58:24 +0000";
layers = (
{
anchors = (
{
name = bottom;
pos = (239,0);
},
{
name = top;
pos = (198,700);
}
);
guides = (
{
angle = 78;
pos = (493,-24);
userData = {
UFO.identifier = S6248Ism57;
};
}
);
layerId = m001;
shapes = (
{
closed = 1;
nodes = (
(498,0,l),
(507,43,l),
(83,43,l),
(223,700,l),
(178,700,l),
(29,0,l)
);
}
);
width = 581;
},
{
anchors = (
{
name = bottom;
pos = (282,0);
},
{
name = top;
pos = (208,700);
}
);
layerId = "C55C9F18-A1E0-4E6D-8952-C5F71D844606";
shapes = (
{
closed = 1;
nodes = (
(506,0,l),
(520,69,l),
(112,69,l),
(246,700,l),
(171,700,l),
(22,0,l)
);
}
);
width = 592;
},
{
anchors = (
{
name = bottom;
pos = (289,0);
},
{
name = top;
pos = (233,700);
}
);
layerId = "0A8B8749-808B-4003-9378-5450DA0F5EBF";
shapes = (
{
closed = 1;
nodes = (
(531,0,l),
(563,152,l),
(201,152,l),
(318,700,l),
(150,700,l),
(1,0,l)
);
}
);
width = 626;
}
);
unicode = 76;
},
{
glyphname = Lslash;
kernLeft = H;
kernRight = L;
lastChange = "2024-11-06 22:48:16 +0000";
layers = (
{
layerId = m001;
shapes = (
{
closed = 1;
nodes = (
(507,0,l),
(516,43,l),
(92,43,l),
(142,278,l),
(386,451,l),
(397,506,l),
(154,334,l),
(232,700,l),
(187,700,l),
(101,297,l),
(7,230,l),
(-4,175,l),
(89,241,l),
(38,0,l)
);
}
);
width = 590;
},
{
layerId = "C55C9F18-A1E0-4E6D-8952-C5F71D844606";
shapes = (
{
closed = 1;
nodes = (
(520,0,l),
(534,69,l),
(126,69,l),
(172,287,l),
(402,439,l),
(418,515,l),
(188,364,l),
(260,700,l),
(185,700,l),
(101,307,l),
(9,246,l),
(-6,170,l),
(85,230,l),
(36,0,l)
);
}
);
width = 606;
},
{
layerId = "0A8B8749-808B-4003-9378-5450DA0F5EBF";
shapes = (
{
closed = 1;
nodes = (
(561,0,l),
(593,152,l),
(231,152,l),
(263,299,l),
(457,401,l),
(487,543,l),
(293,441,l),
(348,700,l),
(180,700,l),
(104,341,l),
(18,296,l),
(-12,154,l),
(73,199,l),
(31,0,l)
);
}
);
width = 656;
}
);
unicode = 321;
},
{
glyphname = M;
kernLeft = H;
kernRight = H;
lastChange = "2024-11-06 22:48:16 +0000";
layers = (
{
layerId = m001;
shapes = (
{
closed = 1;
nodes = (
(74,0,l),
(213,655,l),
(365,50,l),
(775,655,l),
(636,0,l),
(681,0,l),
(830,700,l),
(757,700,l),
(384,150,l),
(247,700,l),
(178,700,l),
(29,0,l)
);
}
);
width = 814;
},
{
layerId = "C55C9F18-A1E0-4E6D-8952-C5F71D844606";
shapes = (
{
closed = 1;
nodes = (
(93,0,l),
(223,613,l),
(372,50,l),
(760,611,l),
(631,0,l),
(701,0,l),
(850,700,l),
(741,700,l),
(402,202,l),
(273,700,l),
(171,700,l),
(22,0,l)
);
}
);
width = 830;
},
{
layerId = "0A8B8749-808B-4003-9378-5450DA0F5EBF";
shapes = (
{
closed = 1;
nodes = (
(160,0,l),
(261,479,l),
(397,50,l),
(711,476,l),
(610,0,l),
(765,0,l),
(914,700,l),
(697,700,l),
(457,371,l),
(358,700,l),
(150,700,l),
(1,0,l)
);
}
);
width = 878;
}
);
unicode = 77;
},
{
glyphname = N;
kernLeft = H;
kernRight = H;
lastChange = "2024-11-06 22:48:16 +0000";
layers = (
{
anchors = (
{
name = bottom;
pos = (298,0);
},
{
name = top;
pos = (447,700);
}
);
layerId = m001;
shapes = (
{
closed = 1;
nodes = (
(72,0,l),
(208,638,l),
(531,0,l),
(566,0,l),
(715,700,l),
(672,700,l),
(539,76,l),
(223,700,l),
(178,700,l),
(29,0,l)
);
}
);
width = 699;
},
{
anchors = (
{
name = bottom;
pos = (302,0);
},
{
name = top;
pos = (451,700);
}
);
layerId = "C55C9F18-A1E0-4E6D-8952-C5F71D844606";
shapes = (
{
closed = 1;
nodes = (
(93,0,l),
(217,592,l),
(518,0,l),
(581,0,l),
(730,700,l),
(659,700,l),
(537,123,l),
(243,700,l),
(171,700,l),
(22,0,l)
);
}
);
width = 711;
},
{
anchors = (
{
name = bottom;
pos = (315,0);
},
{
name = top;
pos = (464,700);
}
);
layerId = "0A8B8749-808B-4003-9378-5450DA0F5EBF";
shapes = (
{
closed = 1;
nodes = (
(160,0,l),
(253,437,l),
(481,0,l),
(630,0,l),
(779,700,l),
(620,700,l),
(531,279,l),
(309,700,l),
(150,700,l),
(1,0,l)
);
}
);
width = 743;
}
);
unicode = 78;
},
{
glyphname = Eng;
kernLeft = H;
kernRight = H;
lastChange = "2024-11-06 22:48:16 +0000";
layers = (
{
layerId = m001;
shapes = (
{
closed = 1;
nodes = (
(484,-214,o),
(530,-173,o),
(544,-105,cs),
(715,700,l),
(672,700,l),
(539,76,l),
(223,700,l),
(178,700,l),
(29,0,l),
(72,0,l),
(208,638,l),
(526,11,l),
(503,-95,ls),
(492,-146,o),
(469,-171,o),
(427,-171,cs),
(414,-171,o),
(400,-170,o),
(388,-165,c),
(379,-209,l),
(392,-212,o),
(406,-214,o),
(419,-214,cs)
);
}
);
width = 699;
},
{
layerId = "C55C9F18-A1E0-4E6D-8952-C5F71D844606";
shapes = (
{
closed = 1;
nodes = (
(494,-207,o),
(546,-164,o),
(562,-87,cs),
(730,700,l),
(659,700,l),
(537,127,l),
(244,700,l),
(171,700,l),
(22,0,l),
(93,0,l),
(218,587,l),
(512,11,l),
(493,-78,ls),
(483,-124,o),
(463,-143,o),
(423,-143,cs),
(404,-143,o),
(392,-141,o),
(381,-137,c),
(367,-199,l),
(381,-204,o),
(402,-207,o),
(420,-207,cs)
);
}
);
width = 711;
},
{
layerId = "0A8B8749-808B-4003-9378-5450DA0F5EBF";
shapes = (
{
closed = 1;
nodes = (
(525,-214,o),
(596,-158,o),
(618,-57,cs),
(779,700,l),
(620,700,l),
(532,285,l),
(309,700,l),
(150,700,l),
(1,0,l),
(160,0,l),
(252,431,l),
(474,13,l),
(463,-40,ls),
(457,-70,o),
(439,-84,o),
(407,-84,cs),
(383,-84,o),
(368,-81,o),
(353,-78,c),
(327,-199,l),
(346,-206,o),
(387,-214,o),
(420,-214,cs)
);
}
);
width = 743;
}
);
unicode = 330;
},
{
glyphname = O;
kernLeft = O;
kernRight = O;
lastChange = "2024-11-15 11:27:18 +0000";
layers = (
{
anchors = (
{
name = top;
pos = (455,700);
}
);
layerId = m001;
shapes = (
{
closed = 1;
nodes = (
(596,-11,o),
(770,175,o),
(770,386,cs),
(770,571,o),
(633,711,o),
(450,711,cs),
(244,711,o),
(68,528,o),
(68,314,cs),
(68,129,o),
(205,-11,o),
(388,-11,cs)
);
},
{
closed = 1;
nodes = (
(221,32,o),
(114,162,o),
(114,316,cs),
(114,505,o),
(263,668,o),
(447,668,cs),
(617,668,o),
(724,538,o),
(724,384,cs),
(724,195,o),
(575,32,o),
(391,32,cs)
);
}
);
userData = {
SBAlt = right;
com.typemytype.robofont.guideline.magnetic.XtglKZd8s7 = 5;
com.typemytype.robofont.guideline.magnetic.h0A0pECFYG = 5;
com.typemytype.robofont.guideline.magnetic.qChJSWmwAZ = 5;
};
width = 793;
},
{
anchors = (
{
name = top;
pos = (447,700);
}
);
layerId = "C55C9F18-A1E0-4E6D-8952-C5F71D844606";
shapes = (
{
closed = 1;
nodes = (
(599,-11,o),
(771,167,o),
(771,380,cs),
(771,568,o),
(629,711,o),
(442,711,cs),
(234,711,o),
(62,533,o),
(62,320,cs),
(62,132,o),
(204,-11,o),
(391,-11,cs)
);
},
{
closed = 1;
nodes = (
(248,60,o),
(138,174,o),
(138,324,cs),
(138,497,o),
(273,640,o),
(437,640,cs),
(585,640,o),
(695,526,o),
(695,376,cs),
(695,203,o),
(560,60,o),
(396,60,cs)
);
}
);
userData = {
SBAlt = right;
com.typemytype.robofont.guideline.magnetic.XtglKZd8s7 = 5;
com.typemytype.robofont.guideline.magnetic.h0A0pECFYG = 5;
com.typemytype.robofont.guideline.magnetic.qChJSWmwAZ = 5;
};
width = 794;
},
{
anchors = (
{
name = top;
pos = (450,700);
}
);
layerId = "0A8B8749-808B-4003-9378-5450DA0F5EBF";
shapes = (
{
closed = 1;
nodes = (
(608,-11,o),
(785,165,o),
(785,380,cs),
(785,570,o),
(639,711,o),
(444,711,cs),
(228,711,o),
(51,535,o),
(51,320,cs),
(51,130,o),
(197,-11,o),
(392,-11,cs)
);
},
{
closed = 1;
nodes = (
(299,147,o),
(224,225,o),
(224,331,cs),
(224,454,o),
(317,553,o),
(433,553,cs),
(537,553,o),
(612,475,o),
(612,369,cs),
(612,246,o),
(519,147,o),
(403,147,cs)
);
}
);
userData = {
SBAlt = right;
com.typemytype.robofont.guideline.magnetic.XtglKZd8s7 = 5;
com.typemytype.robofont.guideline.magnetic.h0A0pECFYG = 5;
com.typemytype.robofont.guideline.magnetic.qChJSWmwAZ = 5;
};
width = 798;
}
);
unicode = 79;
},
{
glyphname = Oslash;
kernLeft = O;
kernRight = O;
lastChange = "2024-11-06 22:48:16 +0000";
layers = (
{
layerId = m001;
shapes = (
{
closed = 1;
nodes = (
(596,-11,o),
(770,175,o),
(770,386,cs),
(770,467,o),
(744,539,o),
(699,594,c),
(807,700,l),
(744,700,l),
(669,627,l),
(613,680,o),
(537,711,o),
(450,711,cs),
(244,711,o),
(68,528,o),
(68,314,cs),
(68,233,o),
(94,161,o),
(139,106,c),
(31,0,l),
(94,0,l),
(169,73,l),
(225,20,o),
(301,-11,o),
(388,-11,cs)
);
},
{
closed = 1;
nodes = (
(134,187,o),
(114,249,o),
(114,316,cs),
(114,505,o),
(263,668,o),
(447,668,cs),
(525,668,o),
(590,640,o),
(638,596,c),
(171,137,l)
);
},
{
closed = 1;
nodes = (
(313,32,o),
(248,60,o),
(200,104,c),
(667,563,l),
(704,513,o),
(724,451,o),
(724,384,cs),
(724,195,o),
(575,32,o),
(391,32,cs)
);
}
);
width = 793;
},
{
layerId = "C55C9F18-A1E0-4E6D-8952-C5F71D844606";
shapes = (
{
closed = 1;
nodes = (
(599,-11,o),
(771,167,o),
(771,380,cs),
(771,460,o),
(745,533,o),
(701,589,c),
(814,700,l),
(732,700,l),
(661,631,l),
(604,681,o),
(528,711,o),
(442,711,cs),
(234,711,o),
(62,533,o),
(62,320,cs),
(62,240,o),
(88,168,o),
(132,112,c),
(17,0,l),
(98,0,l),
(170,71,l),
(228,19,o),
(305,-11,o),
(391,-11,cs)
);
},
{
closed = 1;
nodes = (
(156,209,o),
(138,264,o),
(138,324,cs),
(138,497,o),
(273,640,o),
(437,640,cs),
(504,640,o),
(563,617,o),
(607,578,c),
(186,166,l)
);
},
{
closed = 1;
nodes = (
(329,60,o),
(269,84,o),
(224,124,c),
(646,535,l),
(677,492,o),
(695,437,o),
(695,376,cs),
(695,203,o),
(560,60,o),
(396,60,cs)
);
}
);
width = 794;
},
{
layerId = "0A8B8749-808B-4003-9378-5450DA0F5EBF";
shapes = (
{
closed = 1;
nodes = (
(608,-11,o),
(785,165,o),
(785,380,cs),
(785,455,o),
(762,522,o),
(723,576,c),
(849,700,l),
(696,700,l),
(646,651,l),
(590,689,o),
(521,711,o),
(444,711,cs),
(228,711,o),
(51,535,o),
(51,320,cs),
(51,246,o),
(73,179,o),
(112,125,c),
(-14,0,l),
(138,0,l),
(189,50,l),
(245,11,o),
(315,-11,o),
(392,-11,cs)
);
},
{
closed = 1;
nodes = (
(230,275,o),
(224,302,o),
(224,331,cs),
(224,454,o),
(317,553,o),
(433,553,cs),
(467,553,o),
(497,545,o),
(524,530,c),
(240,251,l)
);
},
{
closed = 1;
nodes = (
(369,147,o),
(338,155,o),
(311,171,c),
(595,450,l),
(606,426,o),
(612,399,o),
(612,369,cs),
(612,246,o),
(519,147,o),
(403,147,cs)
);
}
);
width = 800;
}
);
unicode = 216;
},
{
glyphname = OE;
kernLeft = O;
kernRight = E;
lastChange = "2024-11-06 22:48:16 +0000";
layers = (
{
layerId = m001;
shapes = (
{
closed = 1;
nodes = (
(973,0,l),
(982,43,l),
(532,43,l),
(641,98,o),
(723,205,o),
(741,332,c),
(916,332,l),
(925,375,l),
(745,375,l),
(747,503,o),
(686,604,o),
(594,657,c),
(1109,657,l),
(1118,700,l),
(444,700,ls),
(243,700,o),
(67,526,o),
(67,315,cs),
(67,139,o),
(194,0,o),
(368,0,cs)
);
},
{
closed = 1;
nodes = (
(221,43,o),
(113,159,o),
(113,313,cs),
(113,499,o),
(264,657,o),
(440,657,cs),
(591,657,o),
(699,541,o),
(699,387,cs),
(699,201,o),
(548,43,o),
(373,43,cs)
);
}
);
width = 1055;
},
{
layerId = "C55C9F18-A1E0-4E6D-8952-C5F71D844606";
shapes = (
{
closed = 1;
nodes = (
(979,0,l),
(994,68,l),
(581,68,l),
(666,125,o),
(727,217,o),
(746,320,c),
(921,320,l),
(935,387,l),
(752,387,l),
(752,488,o),
(707,578,o),
(633,632,c),
(1114,632,l),
(1128,700,l),
(442,700,ls),
(237,700,o),
(62,523,o),
(62,314,cs),
(62,134,o),
(195,0,o),
(373,0,cs)
);
},
{
closed = 1;
nodes = (
(241,71,o),
(139,175,o),
(139,318,cs),
(139,486,o),
(275,629,o),
(436,629,cs),
(574,629,o),
(675,526,o),
(675,383,cs),
(675,212,o),
(542,71,o),
(379,71,cs)
);
}
);
width = 1067;
},
{
layerId = "0A8B8749-808B-4003-9378-5450DA0F5EBF";
shapes = (
{
closed = 1;
nodes = (
(1005,0,l),
(1036,149,l),
(698,149,l),
(729,188,o),
(752,233,o),
(765,281,c),
(941,281,l),
(972,425,l),
(775,425,l),
(768,470,o),
(752,513,o),
(728,551,c),
(1122,551,l),
(1153,700,l),
(439,700,ls),
(227,700,o),
(51,529,o),
(51,323,cs),
(51,139,o),
(198,0,o),
(393,0,cs)
);
},
{
closed = 1;
nodes = (
(301,157,o),
(225,231,o),
(225,333,cs),
(225,447,o),
(316,542,o),
(428,542,cs),
(529,542,o),
(604,467,o),
(604,367,cs),
(604,252,o),
(514,157,o),
(404,157,cs)
);
}
);
width = 1105;
}
);
unicode = 338;
},
{
glyphname = P;
kernLeft = H;
lastChange = "2024-11-06 22:48:16 +0000";
layers = (
{
layerId = m001;
shapes = (
{
closed = 1;
nodes = (
(74,0,l),
(140,309,l),
(390,309,ls),
(535,309,o),
(633,401,o),
(633,527,cs),
(633,636,o),
(556,700,o),
(434,700,cs),
(178,700,l),
(29,0,l)
);
},
{
closed = 1;
nodes = (
(214,657,l),
(435,657,ls),
(530,657,o),
(587,611,o),
(587,525,cs),
(587,426,o),
(507,352,o),
(390,352,cs),
(149,352,l)
);
}
);
width = 618;
},
{
layerId = "C55C9F18-A1E0-4E6D-8952-C5F71D844606";
shapes = (
{
closed = 1;
nodes = (
(97,0,l),
(160,295,l),
(400,295,ls),
(543,295,o),
(648,391,o),
(648,525,cs),
(648,632,o),
(571,700,o),
(448,700,cs),
(171,700,l),
(22,0,l)
);
},
{
closed = 1;
nodes = (
(231,631,l),
(437,631,ls),
(522,631,o),
(573,589,o),
(573,519,cs),
(573,427,o),
(501,362,o),
(399,362,cs),
(174,362,l)
);
}
);
width = 634;
},
{
layerId = "0A8B8749-808B-4003-9378-5450DA0F5EBF";
shapes = (
{
closed = 1;
nodes = (
(169,0,l),
(222,251,l),
(432,251,ls),
(579,251,o),
(697,359,o),
(697,493,cs),
(697,615,o),
(607,700,o),
(476,700,cs),
(150,700,l),
(1,0,l)
);
},
{
closed = 1;
nodes = (
(287,553,l),
(446,553,ls),
(494,553,o),
(525,524,o),
(525,479,cs),
(525,430,o),
(484,393,o),
(429,393,cs),
(253,393,l)
);
}
);
width = 681;
}
);
unicode = 80;
},
{
glyphname = Thorn;
kernLeft = H;
lastChange = "2024-11-06 22:48:16 +0000";
layers = (
{
layerId = m001;
shapes = (
{
closed = 1;
nodes = (
(74,0,l),
(109,164,l),
(360,164,ls),
(505,164,o),
(603,256,o),
(603,382,cs),
(603,491,o),
(526,555,o),
(404,555,cs),
(192,555,l),
(223,700,l),
(178,700,l),
(29,0,l)
);
},
{
closed = 1;
nodes = (
(183,512,l),
(405,512,ls),
(500,512,o),
(557,466,o),
(557,380,cs),
(557,281,o),
(477,207,o),
(360,207,cs),
(118,207,l)
);
}
);
width = 620;
},
{
layerId = "C55C9F18-A1E0-4E6D-8952-C5F71D844606";
shapes = (
{
closed = 1;
nodes = (
(97,0,l),
(127,142,l),
(364,142,ls),
(507,142,o),
(611,242,o),
(611,380,cs),
(611,489,o),
(534,558,o),
(413,558,cs),
(216,558,l),
(246,700,l),
(171,700,l),
(22,0,l)
);
},
{
closed = 1;
nodes = (
(201,490,l),
(401,490,ls),
(485,490,o),
(535,446,o),
(535,375,cs),
(535,276,o),
(465,209,o),
(363,209,cs),
(141,209,l)
);
}
);
width = 634;
},
{
layerId = "0A8B8749-808B-4003-9378-5450DA0F5EBF";
shapes = (
{
closed = 1;
nodes = (
(170,0,l),
(197,126,l),
(383,126,ls),
(528,126,o),
(640,234,o),
(640,373,cs),
(640,492,o),
(553,575,o),
(427,575,cs),
(292,575,l),
(319,700,l),
(151,700,l),
(2,0,l)
);
},
{
closed = 1;
nodes = (
(261,428,l),
(395,428,ls),
(439,428,o),
(468,401,o),
(468,359,cs),
(468,305,o),
(431,268,o),
(378,268,cs),
(227,268,l)
);
}
);
width = 681;
}
);
unicode = 222;
},
{
glyphname = Q;
kernLeft = O;
kernRight = O;
lastChange = "2024-11-06 22:48:16 +0000";
layers = (
{
layerId = m001;
shapes = (
{
closed = 1;
nodes = (
(463,-11,o),
(533,13,o),
(592,53,c),
(635,-15,l),
(685,-11,l),
(627,80,l),
(714,154,o),
(770,266,o),
(770,386,cs),
(770,571,o),
(633,711,o),
(450,711,cs),
(244,711,o),
(68,528,o),
(68,314,cs),
(68,129,o),
(205,-11,o),
(388,-11,cs)
);
},
{
closed = 1;
nodes = (
(221,32,o),
(114,162,o),
(114,316,cs),
(114,505,o),
(263,668,o),
(447,668,cs),
(617,668,o),
(724,538,o),
(724,384,cs),
(724,279,o),
(678,181,o),
(605,116,c),
(539,219,l),
(490,215,l),
(570,89,l),
(518,53,o),
(457,32,o),
(391,32,cs)
);
}
);
userData = {
com.typemytype.robofont.guideline.magnetic.QEUH2wf0HZ = 5;
com.typemytype.robofont.guideline.magnetic.WEDLb2pABq = 5;
com.typemytype.robofont.guideline.magnetic.ZwAtbic468 = 5;
};
width = 792;
},
{
layerId = "C55C9F18-A1E0-4E6D-8952-C5F71D844606";
shapes = (
{
closed = 1;
nodes = (
(458,-11,o),
(521,7,o),
(575,39,c),
(609,-16,l),
(686,-11,l),
(631,78,l),
(716,151,o),
(771,260,o),
(771,380,cs),
(771,568,o),
(629,711,o),
(442,711,cs),
(234,711,o),
(62,533,o),
(62,320,cs),
(62,132,o),
(204,-11,o),
(391,-11,cs)
);
},
{
closed = 1;
nodes = (
(248,60,o),
(138,174,o),
(138,324,cs),
(138,497,o),
(273,640,o),
(437,640,cs),
(585,640,o),
(695,526,o),
(695,376,cs),
(695,282,o),
(656,198,o),
(593,140,c),
(540,226,l),
(464,222,l),
(539,99,l),
(496,74,o),
(448,60,o),
(396,60,cs)
);
}
);
userData = {
com.typemytype.robofont.guideline.magnetic.QEUH2wf0HZ = 5;
com.typemytype.robofont.guideline.magnetic.WEDLb2pABq = 5;
com.typemytype.robofont.guideline.magnetic.ZwAtbic468 = 5;
};
width = 793;
},
{
layerId = "0A8B8749-808B-4003-9378-5450DA0F5EBF";
shapes = (
{
closed = 1;
nodes = (
(435,-11,o),
(476,-4,o),
(514,9,c),
(541,-39,l),
(694,-17,l),
(641,78,l),
(729,150,o),
(785,259,o),
(785,380,cs),
(785,570,o),
(639,711,o),
(444,711,cs),
(228,711,o),
(51,535,o),
(51,320,cs),
(51,130,o),
(197,-11,o),
(392,-11,cs)
);
},
{
closed = 1;
nodes = (
(299,147,o),
(224,225,o),
(224,331,cs),
(224,454,o),
(317,553,o),
(433,553,cs),
(537,553,o),
(612,475,o),
(612,369,cs),
(612,312,o),
(592,261,o),
(559,221,c),
(531,272,l),
(379,250,l),
(435,150,l),
(425,148,o),
(414,147,o),
(403,147,cs)
);
}
);
userData = {
com.typemytype.robofont.guideline.magnetic.QEUH2wf0HZ = 5;
com.typemytype.robofont.guideline.magnetic.WEDLb2pABq = 5;
com.typemytype.robofont.guideline.magnetic.ZwAtbic468 = 5;
};
width = 798;
}
);
unicode = 81;
},
{
glyphname = R;
kernLeft = H;
kernRight = R;
lastChange = "2024-11-06 22:48:16 +0000";
layers = (
{
anchors = (
{
name = bottom;
pos = (256,0);
},
{
name = top;
pos = (405,700);
}
);
layerId = m001;
shapes = (
{
closed = 1;
nodes = (
(74,0,l),
(140,312,l),
(389,312,l),
(484,0,l),
(530,0,l),
(434,315,l),
(551,332,o),
(631,418,o),
(631,534,cs),
(631,636,o),
(555,700,o),
(434,700,cs),
(178,700,l),
(29,0,l)
);
},
{
closed = 1;
nodes = (
(214,657,l),
(433,657,ls),
(528,657,o),
(585,610,o),
(585,531,cs),
(585,428,o),
(504,355,o),
(389,355,cs),
(150,355,l)
);
}
);
width = 616;
},
{
anchors = (
{
name = bottom;
pos = (260,0);
},
{
name = top;
pos = (404,700);
}
);
layerId = "C55C9F18-A1E0-4E6D-8952-C5F71D844606";
shapes = (
{
closed = 1;
nodes = (
(97,0,l),
(161,301,l),
(378,301,l),
(474,0,l),
(553,0,l),
(454,306,l),
(567,326,o),
(646,413,o),
(646,525,cs),
(646,632,o),
(570,700,o),
(448,700,cs),
(171,700,l),
(22,0,l)
);
},
{
closed = 1;
nodes = (
(231,631,l),
(436,631,ls),
(519,631,o),
(571,588,o),
(571,519,cs),
(571,430,o),
(499,366,o),
(398,366,cs),
(175,366,l)
);
}
);
width = 632;
},
{
anchors = (
{
name = bottom;
pos = (296,0);
},
{
name = top;
pos = (425,700);
}
);
layerId = "0A8B8749-808B-4003-9378-5450DA0F5EBF";
shapes = (
{
closed = 1;
nodes = (
(169,0,l),
(223,255,l),
(357,255,l),
(447,0,l),
(625,0,l),
(519,268,l),
(624,300,o),
(697,390,o),
(697,497,cs),
(697,617,o),
(607,700,o),
(476,700,cs),
(150,700,l),
(1,0,l)
);
},
{
closed = 1;
nodes = (
(287,553,l),
(446,553,ls),
(494,553,o),
(525,525,o),
(525,481,cs),
(525,432,o),
(484,395,o),
(428,395,cs),
(253,395,l)
);
}
);
width = 679;
}
);
unicode = 82;
},
{
glyphname = S;
kernLeft = S;
kernRight = S;
lastChange = "2024-11-06 22:48:16 +0000";
layers = (
{
anchors = (
{
name = bottom;
pos = (286,0);
},
{
name = top;
pos = (335,700);
}
);
layerId = m001;
shapes = (
{
closed = 1;
nodes = (
(432,-11,o),
(539,72,o),
(539,196,cs),
(539,288,o),
(479,336,o),
(347,374,cs),
(273,395,ls),
(175,423,o),
(133,460,o),
(133,523,cs),
(133,610,o),
(205,668,o),
(321,668,cs),
(404,668,o),
(490,631,o),
(560,566,c),
(590,599,l),
(514,670,o),
(416,711,o),
(323,711,cs),
(181,711,o),
(87,637,o),
(87,523,cs),
(87,436,o),
(145,384,o),
(261,351,cs),
(335,330,ls),
(450,297,o),
(493,264,o),
(493,196,cs),
(493,99,o),
(408,32,o),
(282,32,cs),
(183,32,o),
(98,80,o),
(40,169,c),
(2,143,l),
(68,43,o),
(168,-11,o),
(283,-11,cs)
);
}
);
userData = {
SBAlt = right;
};
width = 576;
},
{
anchors = (
{
name = bottom;
pos = (284,0);
},
{
name = top;
pos = (341,700);
}
);
layerId = "C55C9F18-A1E0-4E6D-8952-C5F71D844606";
shapes = (
{
closed = 1;
nodes = (
(452,-10,o),
(557,76,o),
(557,207,cs),
(557,297,o),
(500,351,o),
(370,384,cs),
(276,407,ls),
(190,430,o),
(152,464,o),
(152,520,cs),
(152,595,o),
(216,643,o),
(318,643,cs),
(400,643,o),
(481,607,o),
(552,540,c),
(601,596,l),
(524,668,o),
(424,709,o),
(324,709,cs),
(174,709,o),
(78,632,o),
(78,512,cs),
(78,427,o),
(134,370,o),
(247,340,cs),
(342,316,ls),
(442,290,o),
(482,256,o),
(482,196,cs),
(482,113,o),
(405,55,o),
(295,55,cs),
(200,55,o),
(116,102,o),
(55,188,c),
(-1,140,l),
(70,43,o),
(172,-10,o),
(291,-10,cs)
);
}
);
userData = {
SBAlt = right;
};
width = 590;
},
{
anchors = (
{
name = bottom;
pos = (301,0);
},
{
name = top;
pos = (350,700);
}
);
layerId = "0A8B8749-808B-4003-9378-5450DA0F5EBF";
shapes = (
{
closed = 1;
nodes = (
(492,-10,o),
(608,84,o),
(608,229,cs),
(608,321,o),
(547,385,o),
(433,412,cs),
(296,445,ls),
(242,459,o),
(221,476,o),
(221,505,cs),
(221,543,o),
(259,567,o),
(321,567,cs),
(402,567,o),
(471,536,o),
(539,469,c),
(645,589,l),
(568,665,o),
(453,710,o),
(336,710,cs),
(166,710,o),
(60,624,o),
(60,485,cs),
(60,396,o),
(112,334,o),
(209,308,cs),
(355,270,ls),
(416,254,o),
(440,236,o),
(440,205,cs),
(440,160,o),
(398,133,o),
(328,133,cs),
(242,133,o),
(170,168,o),
(94,247,c),
(-16,129,l),
(67,39,o),
(183,-10,o),
(314,-10,cs)
);
}
);
userData = {
SBAlt = right;
};
width = 631;
}
);
note = "Version created Fri Aug  3 17:49:29 2018";
unicode = 83;
},
{
glyphname = Scedilla;
kernLeft = S;
kernRight = S;
lastChange = "2024-11-06 22:48:16 +0000";
layers = (
{
layerId = m001;
shapes = (
{
closed = 1;
nodes = (
(302,-224,o),
(350,-186,o),
(350,-130,cs),
(350,-92,o),
(323,-65,o),
(271,-60,c),
(295,-11,l),
(441,-7,o),
(542,75,o),
(542,196,cs),
(542,288,o),
(483,339,o),
(350,374,cs),
(271,395,ls),
(173,421,o),
(131,460,o),
(131,523,cs),
(131,610,o),
(203,668,o),
(319,668,cs),
(402,668,o),
(488,631,o),
(558,566,c),
(588,598,l),
(511,670,o),
(413,711,o),
(319,711,cs),
(178,711,o),
(85,637,o),
(85,523,cs),
(85,436,o),
(142,382,o),
(259,351,cs),
(338,330,ls),
(453,299,o),
(496,264,o),
(496,196,cs),
(496,99,o),
(411,32,o),
(285,32,cs),
(186,32,o),
(101,80,o),
(43,169,c),
(5,145,l),
(67,51,o),
(158,-4,o),
(263,-10,c),
(225,-89,l),
(249,-89,ls),
(288,-89,o),
(316,-105,o),
(316,-135,cs),
(316,-168,o),
(288,-193,o),
(239,-193,cs),
(208,-193,o),
(184,-182,o),
(161,-157,c),
(135,-180,l),
(156,-207,o),
(196,-224,o),
(239,-224,cs)
);
}
);
width = 576;
},
{
layerId = "C55C9F18-A1E0-4E6D-8952-C5F71D844606";
shapes = (
{
closed = 1;
nodes = (
(305,-228,o),
(356,-186,o),
(356,-129,cs),
(356,-88,o),
(327,-61,o),
(278,-56,c),
(301,-10,l),
(456,-6,o),
(557,79,o),
(557,207,cs),
(557,297,o),
(500,351,o),
(370,384,cs),
(276,407,ls),
(190,430,o),
(152,464,o),
(152,520,cs),
(152,595,o),
(216,643,o),
(318,643,cs),
(400,643,o),
(481,607,o),
(552,540,c),
(601,596,l),
(524,668,o),
(424,709,o),
(324,709,cs),
(174,709,o),
(78,632,o),
(78,512,cs),
(78,427,o),
(134,370,o),
(247,340,cs),
(342,316,ls),
(442,290,o),
(482,256,o),
(482,196,cs),
(482,113,o),
(405,55,o),
(295,55,cs),
(200,55,o),
(116,102,o),
(55,188,c),
(-1,140,l),
(63,52,o),
(154,0,o),
(259,-9,c),
(218,-91,l),
(247,-91,ls),
(285,-91,o),
(308,-107,o),
(308,-134,cs),
(308,-165,o),
(279,-186,o),
(238,-186,cs),
(207,-186,o),
(182,-175,o),
(160,-151,c),
(127,-181,l),
(151,-211,o),
(191,-228,o),
(237,-228,cs)
);
}
);
width = 590;
},
{
layerId = "0A8B8749-808B-4003-9378-5450DA0F5EBF";
shapes = (
{
closed = 1;
nodes = (
(325,-238,o),
(390,-188,o),
(390,-126,cs),
(390,-82,o),
(362,-53,o),
(314,-44,c),
(332,-10,l),
(500,-4,o),
(608,89,o),
(608,229,cs),
(608,321,o),
(547,385,o),
(433,412,cs),
(296,445,ls),
(242,459,o),
(221,476,o),
(221,505,cs),
(221,543,o),
(259,567,o),
(321,567,cs),
(402,567,o),
(471,536,o),
(539,469,c),
(645,589,l),
(568,665,o),
(453,710,o),
(336,710,cs),
(166,710,o),
(60,624,o),
(60,485,cs),
(60,396,o),
(112,334,o),
(209,308,cs),
(355,270,ls),
(416,254,o),
(440,236,o),
(440,205,cs),
(440,160,o),
(398,133,o),
(328,133,cs),
(242,133,o),
(170,168,o),
(94,247,c),
(-16,129,l),
(55,52,o),
(150,5,o),
(258,-7,c),
(212,-97,l),
(255,-97,ls),
(282,-97,o),
(299,-110,o),
(299,-130,cs),
(299,-151,o),
(279,-165,o),
(249,-165,cs),
(220,-165,o),
(193,-154,o),
(173,-133,c),
(116,-185,l),
(150,-222,o),
(190,-238,o),
(245,-238,cs)
);
}
);
width = 631;
}
);
unicode = 350;
},
{
color = 4;
glyphname = Germandbls;
lastChange = "2024-11-10 18:31:36 +0000";
layers = (
{
anchors = (
{
name = bottom;
pos = (250,0);
},
{
name = top;
pos = (399,700);
}
);
layerId = m001;
shapes = (
{
closed = 1;
nodes = (
(450,-11,o),
(555,85,o),
(555,192,cs),
(555,249,o),
(523,291,o),
(463,325,cs),
(403,359,o),
(382,377,o),
(382,394,cs),
(382,410,o),
(393,421,o),
(451,478,cs),
(616,641,l),
(629,700,l),
(178,700,l),
(29,0,l),
(75,0,l),
(215,657,l),
(569,657,l),
(400,485,ls),
(358,442,o),
(333,415,o),
(333,381,cs),
(333,350,o),
(361,325,o),
(426,287,cs),
(484,253,o),
(507,223,o),
(507,182,cs),
(507,96,o),
(420,32,o),
(343,32,cs),
(287,32,o),
(235,55,o),
(209,92,c),
(173,53,l),
(211,6,o),
(258,-11,o),
(335,-11,cs)
);
}
);
width = 614;
},
{
anchors = (
{
name = bottom;
pos = (250,0);
},
{
name = top;
pos = (399,700);
}
);
layerId = "C55C9F18-A1E0-4E6D-8952-C5F71D844606";
shapes = (
{
closed = 1;
nodes = (
(445,-11,o),
(570,76,o),
(570,200,cs),
(570,252,o),
(545,295,o),
(487,327,cs),
(420,364,o),
(408,373,o),
(408,387,cs),
(408,403,o),
(424,423,o),
(459,458,cs),
(613,611,l),
(632,700,l),
(171,700,l),
(22,0,l),
(99,0,l),
(233,631,l),
(538,631,l),
(396,485,ls),
(360,448,o),
(328,414,o),
(328,373,cs),
(328,342,o),
(351,319,o),
(421,277,cs),
(471,247,o),
(490,225,o),
(490,189,cs),
(490,102,o),
(415,60,o),
(352,60,cs),
(308,60,o),
(265,80,o),
(230,118,c),
(174,51,l),
(213,13,o),
(273,-11,o),
(338,-11,cs)
);
}
);
width = 627;
},
{
anchors = (
{
name = bottom;
pos = (286,0);
},
{
name = top;
pos = (435,700);
}
);
layerId = "0A8B8749-808B-4003-9378-5450DA0F5EBF";
shapes = (
{
closed = 1;
nodes = (
(524,-11,o),
(642,79,o),
(642,232,cs),
(642,283,o),
(619,317,o),
(577,340,cs),
(537,362,o),
(523,378,o),
(523,393,cs),
(523,407,o),
(538,424,o),
(560,448,cs),
(706,602,l),
(727,700,l),
(150,700,l),
(1,0,l),
(173,0,l),
(288,543,l),
(462,543,l),
(402,475,ls),
(372,441,o),
(340,397,o),
(340,353,cs),
(340,317,o),
(358,278,o),
(401,254,cs),
(444,230,o),
(460,214,o),
(460,194,cs),
(460,159,o),
(428,147,o),
(399,147,cs),
(373,147,o),
(350,156,o),
(313,186,c),
(224,42,l),
(273,6,o),
(336,-11,o),
(397,-11,cs)
);
}
);
width = 684;
}
);
unicode = 7838;
},
{
glyphname = T;
kernLeft = T;
kernRight = T;
lastChange = "2024-11-06 22:48:16 +0000";
layers = (
{
anchors = (
{
name = bottom;
pos = (242,0);
},
{
name = top;
pos = (391,700);
}
);
guides = (
{
angle = 78;
pos = (104,658);
userData = {
UFO.identifier = TDKvMDivs9;
};
},
{
pos = (242,0);
userData = {
UFO.identifier = w8Q8ZMpKqb;
};
}
);
layerId = m001;
shapes = (
{
closed = 1;
nodes = (
(265,0,l),
(405,657,l),
(660,657,l),
(669,700,l),
(113,700,l),
(104,657,l),
(360,657,l),
(220,0,l)
);
}
);
width = 588;
},
{
anchors = (
{
name = bottom;
pos = (249,0);
},
{
name = top;
pos = (398,700);
}
);
layerId = "C55C9F18-A1E0-4E6D-8952-C5F71D844606";
shapes = (
{
closed = 1;
nodes = (
(286,0,l),
(420,631,l),
(668,631,l),
(683,700,l),
(112,700,l),
(97,631,l),
(345,631,l),
(211,0,l)
);
}
);
width = 605;
},
{
anchors = (
{
name = bottom;
pos = (270,0);
},
{
name = top;
pos = (419,700);
}
);
layerId = "0A8B8749-808B-4003-9378-5450DA0F5EBF";
shapes = (
{
closed = 1;
nodes = (
(355,0,l),
(472,548,l),
(695,548,l),
(728,700,l),
(111,700,l),
(78,548,l),
(303,548,l),
(186,0,l)
);
}
);
width = 653;
}
);
unicode = 84;
},
{
glyphname = Tbar;
kernLeft = T;
kernRight = T;
lastChange = "2024-11-06 22:48:16 +0000";
layers = (
{
layerId = m001;
shapes = (
{
closed = 1;
nodes = (
(265,0,l),
(336,334,l),
(496,334,l),
(504,375,l),
(345,375,l),
(405,657,l),
(660,657,l),
(669,700,l),
(113,700,l),
(104,657,l),
(360,657,l),
(300,375,l),
(139,375,l),
(131,334,l),
(291,334,l),
(220,0,l)
);
}
);
width = 588;
},
{
layerId = "C55C9F18-A1E0-4E6D-8952-C5F71D844606";
shapes = (
{
closed = 1;
nodes = (
(286,0,l),
(351,306,l),
(499,306,l),
(512,372,l),
(365,372,l),
(420,631,l),
(668,631,l),
(683,700,l),
(112,700,l),
(97,631,l),
(345,631,l),
(290,372,l),
(143,372,l),
(129,306,l),
(276,306,l),
(211,0,l)
);
}
);
width = 605;
},
{
layerId = "0A8B8749-808B-4003-9378-5450DA0F5EBF";
shapes = (
{
closed = 1;
nodes = (
(355,0,l),
(412,269,l),
(547,269,l),
(575,404,l),
(441,404,l),
(472,548,l),
(695,548,l),
(728,700,l),
(111,700,l),
(78,548,l),
(303,548,l),
(272,404,l),
(138,404,l),
(110,269,l),
(243,269,l),
(186,0,l)
);
}
);
width = 653;
}
);
unicode = 358;
},
{
glyphname = Tcedilla;
kernLeft = T;
kernRight = T;
lastChange = "2024-11-06 22:48:16 +0000";
layers = (
{
layerId = m001;
shapes = (
{
closed = 1;
nodes = (
(261,-224,o),
(309,-186,o),
(309,-130,cs),
(309,-92,o),
(282,-65,o),
(230,-60,c),
(259,0,l),
(265,0,l),
(405,657,l),
(660,657,l),
(669,700,l),
(113,700,l),
(104,657,l),
(360,657,l),
(220,0,l),
(227,0,l),
(184,-89,l),
(208,-89,ls),
(247,-89,o),
(275,-105,o),
(275,-135,cs),
(275,-168,o),
(247,-193,o),
(198,-193,cs),
(167,-193,o),
(143,-182,o),
(120,-157,c),
(94,-180,l),
(115,-207,o),
(155,-224,o),
(198,-224,cs)
);
}
);
width = 588;
},
{
layerId = "C55C9F18-A1E0-4E6D-8952-C5F71D844606";
shapes = (
{
closed = 1;
nodes = (
(270,-228,o),
(321,-186,o),
(321,-129,cs),
(321,-88,o),
(292,-61,o),
(243,-56,c),
(271,0,l),
(286,0,l),
(420,631,l),
(668,631,l),
(683,700,l),
(112,700,l),
(97,631,l),
(345,631,l),
(211,0,l),
(228,0,l),
(183,-91,l),
(212,-91,ls),
(250,-91,o),
(273,-107,o),
(273,-134,cs),
(273,-165,o),
(244,-186,o),
(203,-186,cs),
(172,-186,o),
(147,-175,o),
(125,-151,c),
(92,-181,l),
(116,-211,o),
(156,-228,o),
(202,-228,cs)
);
}
);
width = 605;
},
{
layerId = "0A8B8749-808B-4003-9378-5450DA0F5EBF";
shapes = (
{
closed = 1;
nodes = (
(294,-238,o),
(359,-188,o),
(359,-126,cs),
(359,-82,o),
(331,-53,o),
(283,-44,c),
(306,0,l),
(355,0,l),
(472,548,l),
(695,548,l),
(728,700,l),
(111,700,l),
(78,548,l),
(303,548,l),
(186,0,l),
(230,0,l),
(181,-97,l),
(224,-97,ls),
(251,-97,o),
(268,-110,o),
(268,-130,cs),
(268,-151,o),
(248,-165,o),
(218,-165,cs),
(189,-165,o),
(162,-154,o),
(142,-133,c),
(85,-185,l),
(119,-222,o),
(159,-238,o),
(214,-238,cs)
);
}
);
width = 653;
}
);
unicode = 354;
},
{
glyphname = U;
kernLeft = U;
kernRight = U;
lastChange = "2024-11-06 22:48:16 +0000";
layers = (
{
anchors = (
{
name = bottom;
pos = (395,0);
},
{
name = top;
pos = (437,700);
}
);
layerId = m001;
shapes = (
{
closed = 1;
nodes = (
(478,-11,o),
(583,102,o),
(624,295,cs),
(710,700,l),
(665,700,l),
(579,295,ls),
(544,129,o),
(447,32,o),
(313,32,cs),
(173,32,o),
(87,127,o),
(123,297,cs),
(209,700,l),
(164,700,l),
(77,292,ls),
(36,101,o),
(152,-11,o),
(314,-11,cs)
);
}
);
width = 680;
},
{
anchors = (
{
name = bottom;
pos = (401,0);
},
{
name = top;
pos = (438,700);
}
);
layerId = "C55C9F18-A1E0-4E6D-8952-C5F71D844606";
shapes = (
{
closed = 1;
nodes = (
(480,-11,o),
(594,96,o),
(635,290,cs),
(723,700,l),
(647,700,l),
(560,293,ls),
(529,147,o),
(440,60,o),
(321,60,cs),
(189,60,o),
(117,159,o),
(147,299,cs),
(233,700,l),
(157,700,l),
(73,303,ls),
(33,119,o),
(134,-11,o),
(318,-11,cs)
);
}
);
width = 690;
},
{
anchors = (
{
name = bottom;
pos = (419,0);
},
{
name = top;
pos = (444,700);
}
);
layerId = "0A8B8749-808B-4003-9378-5450DA0F5EBF";
shapes = (
{
closed = 1;
nodes = (
(508,-9,o),
(635,97,o),
(673,273,cs),
(764,700,l),
(596,700,l),
(509,290,ls),
(492,206,o),
(426,149,o),
(346,149,cs),
(253,149,o),
(206,216,o),
(228,320,cs),
(309,700,l),
(140,700,l),
(63,338,ls),
(19,131,o),
(128,-9,o),
(334,-9,cs)
);
}
);
width = 718;
}
);
unicode = 85;
},
{
glyphname = Uogonek;
kernLeft = U;
kernRight = U;
lastChange = "2024-11-06 22:48:16 +0000";
layers = (
{
layerId = m001;
shapes = (
{
closed = 1;
nodes = (
(327,-222,o),
(346,-217,o),
(364,-209,c),
(360,-178,l),
(345,-185,o),
(327,-189,o),
(311,-189,cs),
(279,-189,o),
(257,-170,o),
(257,-143,cs),
(257,-99,o),
(288,-55,o),
(395,-1,c),
(513,31,o),
(590,136,o),
(624,295,cs),
(710,700,l),
(665,700,l),
(579,295,ls),
(544,129,o),
(447,32,o),
(313,32,cs),
(173,32,o),
(87,127,o),
(123,297,cs),
(209,700,l),
(164,700,l),
(77,292,ls),
(35,97,o),
(156,-15,o),
(323,-11,c),
(244,-61,o),
(218,-107,o),
(218,-149,cs),
(218,-187,o),
(246,-222,o),
(305,-222,cs)
);
}
);
width = 680;
},
{
layerId = "C55C9F18-A1E0-4E6D-8952-C5F71D844606";
shapes = (
{
closed = 1;
nodes = (
(329,-222,o),
(351,-216,o),
(372,-206,c),
(367,-166,l),
(353,-173,o),
(336,-177,o),
(321,-177,cs),
(291,-177,o),
(271,-160,o),
(271,-134,cs),
(271,-88,o),
(312,-47,o),
(401,-1,c),
(519,30,o),
(601,131,o),
(635,290,cs),
(723,700,l),
(647,700,l),
(560,293,ls),
(529,147,o),
(440,60,o),
(321,60,cs),
(189,60,o),
(117,159,o),
(147,299,cs),
(233,700,l),
(157,700,l),
(73,303,ls),
(33,119,o),
(132,-11,o),
(321,-11,c),
(252,-55,o),
(218,-100,o),
(218,-149,cs),
(218,-193,o),
(253,-222,o),
(306,-222,cs)
);
}
);
width = 690;
},
{
layerId = "0A8B8749-808B-4003-9378-5450DA0F5EBF";
shapes = (
{
closed = 1;
nodes = (
(338,-221,o),
(371,-213,o),
(397,-198,c),
(391,-128,l),
(380,-135,o),
(366,-139,o),
(353,-139,cs),
(329,-139,o),
(315,-128,o),
(315,-108,cs),
(315,-64,o),
(366,-28,o),
(419,0,c),
(549,29,o),
(641,127,o),
(673,273,cs),
(764,700,l),
(596,700,l),
(509,290,ls),
(492,206,o),
(426,149,o),
(346,149,cs),
(253,149,o),
(206,216,o),
(228,320,cs),
(309,700,l),
(140,700,l),
(63,338,ls),
(20,136,o),
(123,-2,o),
(320,-9,c),
(253,-51,o),
(219,-97,o),
(219,-148,cs),
(219,-193,o),
(253,-221,o),
(307,-221,cs)
);
}
);
width = 718;
}
);
unicode = 370;
},
{
glyphname = V;
lastChange = "2024-11-06 22:48:16 +0000";
layers = (
{
layerId = m001;
shapes = (
{
closed = 1;
nodes = (
(301,0,l),
(732,700,l),
(682,700,l),
(278,41,l),
(150,700,l),
(105,700,l),
(242,0,l)
);
}
);
width = 642;
},
{
layerId = "C55C9F18-A1E0-4E6D-8952-C5F71D844606";
shapes = (
{
closed = 1;
nodes = (
(327,0,l),
(757,700,l),
(676,700,l),
(294,71,l),
(177,700,l),
(99,700,l),
(235,0,l)
);
}
);
width = 666;
},
{
layerId = "0A8B8749-808B-4003-9378-5450DA0F5EBF";
shapes = (
{
closed = 1;
nodes = (
(412,0,l),
(838,700,l),
(656,700,l),
(349,179,l),
(262,700,l),
(86,700,l),
(218,0,l)
);
}
);
width = 738;
}
);
unicode = 86;
},
{
glyphname = W;
kernLeft = W;
kernRight = W;
lastChange = "2024-11-06 22:48:16 +0000";
layers = (
{
anchors = (
{
name = top;
pos = (531,700);
}
);
layerId = m001;
shapes = (
{
closed = 1;
nodes = (
(207,0,l),
(518,638,l),
(558,0,l),
(600,0,l),
(927,700,l),
(881,700,l),
(593,79,l),
(553,700,l),
(507,700,l),
(205,81,l),
(178,700,l),
(135,700,l),
(165,0,l)
);
}
);
width = 867;
},
{
anchors = (
{
name = top;
pos = (525,700);
}
);
layerId = "C55C9F18-A1E0-4E6D-8952-C5F71D844606";
shapes = (
{
closed = 1;
nodes = (
(205,0,l),
(505,593,l),
(553,0,l),
(630,0,l),
(927,700,l),
(850,700,l),
(611,125,l),
(563,700,l),
(490,700,l),
(199,125,l),
(203,700,l),
(129,700,l),
(129,0,l)
);
}
);
width = 865;
},
{
anchors = (
{
name = top;
pos = (566,700);
}
);
layerId = "0A8B8749-808B-4003-9378-5450DA0F5EBF";
shapes = (
{
closed = 1;
nodes = (
(298,0,l),
(514,447,l),
(540,0,l),
(719,0,l),
(1020,700,l),
(847,700,l),
(672,269,l),
(644,700,l),
(486,700,l),
(275,267,l),
(283,700,l),
(116,700,l),
(120,0,l)
);
}
);
width = 950;
}
);
unicode = 87;
},
{
glyphname = X;
kernRight = K;
lastChange = "2024-11-06 22:48:16 +0000";
layers = (
{
layerId = m001;
shapes = (
{
closed = 1;
nodes = (
(13,0,l),
(317,329,l),
(491,0,l),
(541,0,l),
(349,361,l),
(669,700,l),
(610,700,l),
(328,398,l),
(173,700,l),
(123,700,l),
(296,367,l),
(-46,0,l)
);
}
);
userData = {
SBAlt = left;
};
width = 599;
},
{
layerId = "C55C9F18-A1E0-4E6D-8952-C5F71D844606";
shapes = (
{
closed = 1;
nodes = (
(41,0,l),
(325,304,l),
(482,0,l),
(566,0,l),
(380,360,l),
(701,700,l),
(608,700,l),
(347,422,l),
(204,700,l),
(120,700,l),
(292,366,l),
(-52,0,l)
);
}
);
userData = {
SBAlt = left;
};
width = 625;
},
{
layerId = "0A8B8749-808B-4003-9378-5450DA0F5EBF";
shapes = (
{
closed = 1;
nodes = (
(142,0,l),
(354,234,l),
(469,0,l),
(659,0,l),
(476,357,l),
(799,700,l),
(595,700,l),
(404,489,l),
(301,700,l),
(111,700,l),
(283,365,l),
(-61,0,l)
);
}
);
userData = {
SBAlt = left;
};
width = 710;
}
);
unicode = 88;
},
{
glyphname = Y;
kernLeft = Y;
kernRight = Y;
lastChange = "2024-11-06 22:48:16 +0000";
layers = (
{
anchors = (
{
name = top;
pos = (396,700);
}
);
layerId = m001;
shapes = (
{
closed = 1;
nodes = (
(268,0,l),
(329,288,l),
(688,700,l),
(631,700,l),
(314,333,l),
(152,700,l),
(104,700,l),
(285,292,l),
(223,0,l)
);
}
);
userData = {
SBAlt = right;
};
width = 597;
},
{
anchors = (
{
name = top;
pos = (403,700);
}
);
layerId = "C55C9F18-A1E0-4E6D-8952-C5F71D844606";
shapes = (
{
closed = 1;
nodes = (
(297,0,l),
(357,282,l),
(719,700,l),
(628,700,l),
(331,354,l),
(178,700,l),
(98,700,l),
(281,286,l),
(221,0,l)
);
}
);
userData = {
SBAlt = right;
};
width = 627;
},
{
anchors = (
{
name = top;
pos = (444,700);
}
);
layerId = "0A8B8749-808B-4003-9378-5450DA0F5EBF";
shapes = (
{
closed = 1;
nodes = (
(387,0,l),
(442,260,l),
(820,700,l),
(622,700,l),
(383,413,l),
(262,700,l),
(83,700,l),
(273,262,l),
(218,0,l)
);
}
);
userData = {
SBAlt = right;
};
width = 717;
}
);
unicode = 89;
},
{
glyphname = Z;
kernLeft = Z;
kernRight = Z;
lastChange = "2024-11-06 22:48:16 +0000";
layers = (
{
anchors = (
{
name = top;
pos = (390,700);
}
);
layerId = m001;
shapes = (
{
closed = 1;
nodes = (
(505,0,l),
(514,43,l),
(48,43,l),
(636,665,l),
(644,700,l),
(125,700,l),
(117,657,l),
(569,657,l),
(-19,35,l),
(-27,0,l)
);
}
);
width = 586;
},
{
anchors = (
{
name = top;
pos = (368,700);
}
);
layerId = "C55C9F18-A1E0-4E6D-8952-C5F71D844606";
shapes = (
{
closed = 1;
nodes = (
(513,0,l),
(528,68,l),
(88,68,l),
(641,645,l),
(654,700,l),
(122,700,l),
(108,632,l),
(534,632,l),
(-18,55,l),
(-30,0,l)
);
}
);
width = 592;
},
{
anchors = (
{
name = top;
pos = (380,700);
}
);
layerId = "0A8B8749-808B-4003-9378-5450DA0F5EBF";
shapes = (
{
closed = 1;
nodes = (
(541,0,l),
(573,149,l),
(225,149,l),
(662,584,l),
(687,700,l),
(116,700,l),
(84,551,l),
(425,551,l),
(-11,116,l),
(-36,0,l)
);
}
);
width = 609;
}
);
unicode = 90;
},
{
glyphname = a;
kernLeft = a;
kernRight = n;
lastChange = "2024-11-14 17:27:51 +0000";
layers = (
{
anchors = (
{
name = bottom;
pos = (376,0);
},
{
name = top;
pos = (282,492);
}
);
layerId = m001;
shapes = (
{
closed = 1;
nodes = (
(246,-10,o),
(298,9,o),
(343,43,c),
(334,0,l),
(377,0,l),
(445,318,ls),
(471,441,o),
(397,502,o),
(281,502,cs),
(229,502,o),
(177,489,o),
(109,459,c),
(124,421,l),
(186,449,o),
(234,463,o),
(285,463,cs),
(384,463,o),
(421,408,o),
(401,314,cs),
(384,233,l),
(341,268,o),
(280,289,o),
(217,289,cs),
(104,289,o),
(20,227,o),
(20,130,cs),
(20,45,o),
(87,-10,o),
(187,-10,cs)
);
},
{
closed = 1;
nodes = (
(108,29,o),
(63,72,o),
(63,132,cs),
(63,206,o),
(126,251,o),
(213,251,cs),
(279,251,o),
(335,231,o),
(375,192,c),
(354,92,l),
(307,51,o),
(256,29,o),
(195,29,cs)
);
}
);
width = 489;
},
{
anchors = (
{
name = bottom;
pos = (397,0);
},
{
name = top;
pos = (288,501);
}
);
layerId = "C55C9F18-A1E0-4E6D-8952-C5F71D844606";
shapes = (
{
closed = 1;
nodes = (
(241,-7,o),
(290,9,o),
(335,41,c),
(326,0,l),
(397,0,l),
(464,317,ls),
(489,437,o),
(422,510,o),
(286,510,cs),
(232,510,o),
(173,497,o),
(104,468,c),
(124,409,l),
(186,436,o),
(231,448,o),
(274,448,cs),
(372,448,o),
(412,403,o),
(393,312,cs),
(380,253,l),
(336,280,o),
(278,296,o),
(220,296,cs),
(96,296,o),
(16,231,o),
(16,133,cs),
(16,48,o),
(84,-7,o),
(187,-7,cs)
);
},
{
closed = 1;
nodes = (
(130,50,o),
(85,84,o),
(85,140,cs),
(85,199,o),
(141,242,o),
(219,242,cs),
(280,242,o),
(329,227,o),
(368,195,c),
(348,101,l),
(305,66,o),
(258,50,o),
(206,50,cs)
);
}
);
width = 506;
},
{
anchors = (
{
name = bottom;
pos = (460,0);
},
{
name = top;
pos = (301,529);
}
);
layerId = "0A8B8749-808B-4003-9378-5450DA0F5EBF";
shapes = (
{
closed = 1;
nodes = (
(229,-5,o),
(268,5,o),
(309,29,c),
(303,0,l),
(460,0,l),
(526,312,ls),
(555,453,o),
(472,538,o),
(304,538,cs),
(238,538,o),
(165,523,o),
(84,493,c),
(122,373,l),
(188,395,o),
(232,405,o),
(268,405,cs),
(348,405,o),
(382,374,o),
(369,311,cs),
(366,296,l),
(323,309,o),
(276,317,o),
(231,317,cs),
(90,317,o),
(6,251,o),
(6,142,cs),
(6,52,o),
(75,-5,o),
(185,-5,cs)
);
},
{
closed = 1;
nodes = (
(188,107,o),
(156,125,o),
(156,155,cs),
(156,192,o),
(188,213,o),
(246,213,cs),
(278,213,o),
(314,207,o),
(345,197,c),
(330,128,l),
(303,114,o),
(274,107,o),
(242,107,cs)
);
}
);
width = 561;
}
);
note = "Version created Mon Aug  6 16:22:34 2018";
unicode = 97;
},
{
glyphname = aogonek;
kernLeft = a;
kernRight = n;
lastChange = "2024-11-06 22:48:16 +0000";
layers = (
{
layerId = m001;
shapes = (
{
closed = 1;
nodes = (
(308,-222,o),
(327,-217,o),
(345,-209,c),
(341,-178,l),
(326,-185,o),
(308,-189,o),
(292,-189,cs),
(260,-189,o),
(238,-170,o),
(238,-143,cs),
(238,-99,o),
(269,-55,o),
(377,0,c),
(445,318,ls),
(471,441,o),
(397,502,o),
(281,502,cs),
(229,502,o),
(177,489,o),
(109,459,c),
(124,421,l),
(186,449,o),
(234,463,o),
(285,463,cs),
(384,463,o),
(421,408,o),
(401,314,cs),
(384,233,l),
(341,268,o),
(280,289,o),
(217,289,cs),
(104,289,o),
(20,227,o),
(20,130,cs),
(20,45,o),
(87,-10,o),
(187,-10,cs),
(246,-10,o),
(298,9,o),
(343,43,c),
(334,0,l),
(335,0,l),
(250,-38,o),
(199,-94,o),
(199,-149,cs),
(199,-193,o),
(234,-222,o),
(286,-222,cs)
);
},
{
closed = 1;
nodes = (
(108,29,o),
(63,72,o),
(63,132,cs),
(63,206,o),
(126,251,o),
(213,251,cs),
(279,251,o),
(335,231,o),
(375,192,c),
(354,92,l),
(307,51,o),
(256,29,o),
(195,29,cs)
);
}
);
width = 489;
},
{
layerId = "C55C9F18-A1E0-4E6D-8952-C5F71D844606";
shapes = (
{
closed = 1;
nodes = (
(324,-222,o),
(346,-216,o),
(367,-206,c),
(362,-166,l),
(348,-173,o),
(331,-177,o),
(316,-177,cs),
(286,-177,o),
(266,-160,o),
(266,-134,cs),
(266,-88,o),
(307,-47,o),
(397,0,c),
(464,317,ls),
(489,437,o),
(422,510,o),
(286,510,cs),
(232,510,o),
(173,497,o),
(104,468,c),
(124,409,l),
(186,436,o),
(231,448,o),
(274,448,cs),
(372,448,o),
(412,403,o),
(393,312,cs),
(380,253,l),
(336,280,o),
(278,296,o),
(220,296,cs),
(96,296,o),
(16,231,o),
(16,133,cs),
(16,48,o),
(84,-7,o),
(187,-7,cs),
(241,-7,o),
(290,9,o),
(335,41,c),
(326,0,l),
(335,0,l),
(254,-47,o),
(213,-96,o),
(213,-149,cs),
(213,-193,o),
(248,-222,o),
(301,-222,cs)
);
},
{
closed = 1;
nodes = (
(130,50,o),
(85,84,o),
(85,140,cs),
(85,199,o),
(141,242,o),
(219,242,cs),
(280,242,o),
(329,227,o),
(368,195,c),
(348,101,l),
(305,66,o),
(258,50,o),
(206,50,cs)
);
}
);
width = 506;
},
{
layerId = "0A8B8749-808B-4003-9378-5450DA0F5EBF";
shapes = (
{
closed = 1;
nodes = (
(379,-221,o),
(412,-213,o),
(438,-198,c),
(432,-128,l),
(421,-135,o),
(407,-139,o),
(394,-139,cs),
(370,-139,o),
(356,-128,o),
(356,-108,cs),
(356,-72,o),
(390,-37,o),
(460,0,c),
(526,312,ls),
(555,453,o),
(472,538,o),
(304,538,cs),
(238,538,o),
(165,523,o),
(84,493,c),
(122,373,l),
(188,395,o),
(232,405,o),
(268,405,cs),
(348,405,o),
(382,374,o),
(369,311,cs),
(366,296,l),
(323,309,o),
(276,317,o),
(231,317,cs),
(90,317,o),
(6,251,o),
(6,142,cs),
(6,52,o),
(75,-5,o),
(185,-5,cs),
(229,-5,o),
(268,5,o),
(309,29,c),
(303,0,l),
(375,0,l),
(298,-44,o),
(260,-93,o),
(260,-148,cs),
(260,-193,o),
(294,-221,o),
(348,-221,cs)
);
},
{
closed = 1;
nodes = (
(188,107,o),
(156,125,o),
(156,155,cs),
(156,192,o),
(188,213,o),
(246,213,cs),
(278,213,o),
(314,207,o),
(345,197,c),
(330,128,l),
(303,114,o),
(274,107,o),
(242,107,cs)
);
}
);
width = 561;
}
);
unicode = 261;
},
{
glyphname = ae;
kernLeft = a;
kernRight = e;
lastChange = "2024-11-06 22:48:16 +0000";
layers = (
{
layerId = m001;
shapes = (
{
closed = 1;
nodes = (
(268,-10,o),
(348,22,o),
(409,85,c),
(449,27,o),
(514,-10,o),
(588,-10,cs),
(648,-10,o),
(712,8,o),
(761,40,c),
(737,76,l),
(693,49,o),
(642,32,o),
(590,32,cs),
(484,32,o),
(407,117,o),
(412,234,c),
(824,234,l),
(825,242,o),
(827,273,o),
(827,280,cs),
(827,407,o),
(747,502,o),
(631,502,cs),
(548,502,o),
(474,460,o),
(425,395,c),
(412,467,o),
(350,502,o),
(263,502,cs),
(211,502,o),
(159,489,o),
(91,459,c),
(106,421,l),
(168,449,o),
(216,463,o),
(267,463,cs),
(364,463,o),
(400,409,o),
(381,314,cs),
(367,245,l),
(326,273,o),
(272,289,o),
(217,289,cs),
(104,289,o),
(20,227,o),
(20,130,cs),
(20,45,o),
(87,-10,o),
(187,-10,cs)
);
},
{
closed = 1;
nodes = (
(441,382,o),
(526,460,o),
(627,460,cs),
(727,460,o),
(789,375,o),
(784,276,c),
(418,276,l)
);
},
{
closed = 1;
nodes = (
(108,29,o),
(63,72,o),
(63,132,cs),
(63,206,o),
(126,251,o),
(213,251,cs),
(276,251,o),
(329,233,o),
(369,198,c),
(371,169,o),
(379,141,o),
(391,117,c),
(334,61,o),
(270,29,o),
(195,29,cs)
);
}
);
width = 866;
},
{
layerId = "C55C9F18-A1E0-4E6D-8952-C5F71D844606";
shapes = (
{
closed = 1;
nodes = (
(275,-7,o),
(344,23,o),
(408,83,c),
(450,26,o),
(520,-9,o),
(604,-9,cs),
(669,-9,o),
(725,7,o),
(780,45,c),
(742,96,l),
(705,70,o),
(656,55,o),
(607,55,cs),
(510,55,o),
(436,128,o),
(434,228,c),
(835,228,l),
(837,244,o),
(838,259,o),
(838,273,cs),
(838,408,o),
(747,509,o),
(624,509,cs),
(555,509,o),
(487,475,o),
(439,419,c),
(417,477,o),
(358,510,o),
(270,510,cs),
(215,510,o),
(157,497,o),
(87,468,c),
(108,409,l),
(170,436,o),
(214,448,o),
(256,448,cs),
(352,448,o),
(392,402,o),
(375,313,cs),
(365,265,l),
(324,285,o),
(275,296,o),
(224,296,cs),
(102,296,o),
(22,233,o),
(22,135,cs),
(22,49,o),
(92,-7,o),
(198,-7,cs)
);
},
{
closed = 1;
nodes = (
(462,377,o),
(534,444,o),
(618,444,cs),
(701,444,o),
(763,378,o),
(769,287,c),
(441,287,l)
);
},
{
closed = 1;
nodes = (
(137,50,o),
(91,84,o),
(91,141,cs),
(91,199,o),
(147,242,o),
(224,242,cs),
(278,242,o),
(326,229,o),
(364,205,c),
(366,175,o),
(373,148,o),
(384,124,c),
(329,74,o),
(273,50,o),
(211,50,cs)
);
}
);
width = 876;
},
{
layerId = "0A8B8749-808B-4003-9378-5450DA0F5EBF";
shapes = (
{
closed = 1;
nodes = (
(285,-5,o),
(342,16,o),
(412,70,c),
(460,19,o),
(533,-11,o),
(618,-11,cs),
(697,-11,o),
(758,9,o),
(825,58,c),
(736,159,l),
(709,135,o),
(673,122,o),
(631,122,cs),
(567,122,o),
(520,157,o),
(504,210,c),
(874,210,l),
(879,251,o),
(880,265,o),
(880,280,cs),
(880,431,o),
(780,537,o),
(636,537,cs),
(576,537,o),
(517,516,o),
(467,477,c),
(432,516,o),
(374,538,o),
(298,538,cs),
(231,538,o),
(160,524,o),
(76,493,c),
(114,373,l),
(182,396,o),
(222,405,o),
(257,405,cs),
(331,405,o),
(369,372,o),
(357,319,cs),
(353,300,l),
(312,311,o),
(269,317,o),
(227,317,cs),
(94,317,o),
(14,254,o),
(14,148,cs),
(14,54,o),
(91,-5,o),
(213,-5,cs)
);
},
{
closed = 1;
nodes = (
(535,371,o),
(577,404,o),
(629,404,cs),
(679,404,o),
(717,372,o),
(731,322,c),
(513,322,l)
);
},
{
closed = 1;
nodes = (
(195,107,o),
(163,128,o),
(163,159,cs),
(163,191,o),
(195,211,o),
(246,211,cs),
(279,211,o),
(322,205,o),
(351,196,c),
(354,178,o),
(358,161,o),
(364,145,c),
(327,120,o),
(286,107,o),
(244,107,cs)
);
}
);
width = 908;
}
);
unicode = 230;
},
{
glyphname = b;
kernLeft = b;
kernRight = o;
lastChange = "2024-11-06 22:48:16 +0000";
layers = (
{
layerId = m001;
shapes = (
{
closed = 1;
nodes = (
(397,-10,o),
(518,118,o),
(518,274,cs),
(518,405,o),
(427,502,o),
(302,502,cs),
(250,502,o),
(200,485,o),
(155,451,c),
(210,711,l),
(165,700,l),
(16,0,l),
(59,0,l),
(75,72,l),
(113,21,o),
(177,-10,o),
(249,-10,cs)
);
},
{
closed = 1;
nodes = (
(177,32,o),
(111,71,o),
(86,126,c),
(143,397,l),
(184,437,o),
(239,460,o),
(295,460,cs),
(400,460,o),
(474,382,o),
(474,271,cs),
(474,139,o),
(373,32,o),
(248,32,cs)
);
}
);
userData = {
com.typemytype.robofont.guideline.magnetic.43hwwX3D8b = 5;
com.typemytype.robofont.guideline.magnetic.6ezvxvKjBb = 5;
com.typemytype.robofont.guideline.magnetic.bU6L8Xioaj = 5;
};
width = 560;
},
{
layerId = "C55C9F18-A1E0-4E6D-8952-C5F71D844606";
shapes = (
{
closed = 1;
nodes = (
(416,-9,o),
(539,120,o),
(539,278,cs),
(539,410,o),
(445,508,o),
(318,508,cs),
(269,508,o),
(222,494,o),
(181,466,c),
(234,717,l),
(159,700,l),
(10,0,l),
(81,0,l),
(95,64,l),
(136,17,o),
(196,-9,o),
(264,-9,cs)
);
},
{
closed = 1;
nodes = (
(196,57,o),
(138,89,o),
(111,138,c),
(164,390,l),
(202,424,o),
(251,443,o),
(303,443,cs),
(399,443,o),
(468,372,o),
(468,272,cs),
(468,153,o),
(377,57,o),
(262,57,cs)
);
}
);
userData = {
com.typemytype.robofont.guideline.magnetic.43hwwX3D8b = 5;
com.typemytype.robofont.guideline.magnetic.6ezvxvKjBb = 5;
com.typemytype.robofont.guideline.magnetic.bU6L8Xioaj = 5;
};
width = 578;
},
{
layerId = "0A8B8749-808B-4003-9378-5450DA0F5EBF";
shapes = (
{
closed = 1;
nodes = (
(477,-7,o),
(609,125,o),
(609,290,cs),
(609,429,o),
(506,536,o),
(373,536,cs),
(333,536,o),
(295,526,o),
(260,508,c),
(308,735,l),
(142,700,l),
(-7,0,l),
(150,0,l),
(160,47,l),
(201,12,o),
(253,-7,o),
(313,-7,cs)
);
},
{
closed = 1;
nodes = (
(259,131,o),
(216,150,o),
(190,182,c),
(229,364,l),
(258,388,o),
(291,399,o),
(329,399,cs),
(401,399,o),
(454,346,o),
(454,276,cs),
(454,195,o),
(390,131,o),
(307,131,cs)
);
}
);
userData = {
com.typemytype.robofont.guideline.magnetic.43hwwX3D8b = 5;
com.typemytype.robofont.guideline.magnetic.6ezvxvKjBb = 5;
com.typemytype.robofont.guideline.magnetic.bU6L8Xioaj = 5;
};
width = 635;
}
);
unicode = 98;
},
{
glyphname = c;
kernLeft = o;
kernRight = c;
lastChange = "2024-11-06 22:48:16 +0000";
layers = (
{
anchors = (
{
name = bottom;
pos = (261,0);
},
{
name = top;
pos = (311,492);
}
);
layerId = m001;
shapes = (
{
closed = 1;
nodes = (
(318,-10,o),
(378,10,o),
(437,52,c),
(411,88,l),
(359,51,o),
(309,32,o),
(262,32,cs),
(161,32,o),
(87,112,o),
(87,219,cs),
(87,347,o),
(191,460,o),
(308,460,cs),
(369,460,o),
(426,429,o),
(462,378,c),
(495,407,l),
(451,466,o),
(381,502,o),
(312,502,cs),
(167,502,o),
(43,371,o),
(43,219,cs),
(43,90,o),
(137,-10,o),
(258,-10,cs)
);
}
);
userData = {
com.typemytype.robofont.guideline.magnetic.AWHW3nlO1Z = 5;
com.typemytype.robofont.guideline.magnetic.Bv1rynWzTY = 5;
com.typemytype.robofont.guideline.magnetic.y5ZavQQJwR = 5;
};
width = 493;
},
{
anchors = (
{
name = bottom;
pos = (256,0);
},
{
name = top;
pos = (320,501);
}
);
layerId = "C55C9F18-A1E0-4E6D-8952-C5F71D844606";
shapes = (
{
closed = 1;
nodes = (
(325,-9,o),
(388,13,o),
(446,58,c),
(411,110,l),
(364,75,o),
(317,56,o),
(269,56,cs),
(178,56,o),
(108,129,o),
(108,222,cs),
(108,341,o),
(201,442,o),
(309,442,cs),
(366,442,o),
(416,415,o),
(452,365,c),
(505,414,l),
(464,471,o),
(388,509,o),
(314,509,cs),
(163,509,o),
(36,377,o),
(36,219,cs),
(36,87,o),
(131,-9,o),
(260,-9,cs)
);
}
);
userData = {
com.typemytype.robofont.guideline.magnetic.AWHW3nlO1Z = 5;
com.typemytype.robofont.guideline.magnetic.Bv1rynWzTY = 5;
com.typemytype.robofont.guideline.magnetic.y5ZavQQJwR = 5;
};
width = 501;
},
{
anchors = (
{
name = bottom;
pos = (282,0);
},
{
name = top;
pos = (323,529);
}
);
layerId = "0A8B8749-808B-4003-9378-5450DA0F5EBF";
shapes = (
{
closed = 1;
nodes = (
(358,-11,o),
(431,19,o),
(490,75,c),
(408,180,l),
(372,145,o),
(338,129,o),
(297,129,cs),
(228,129,o),
(182,177,o),
(182,249,cs),
(182,331,o),
(241,398,o),
(314,398,cs),
(363,398,o),
(400,377,o),
(430,331,c),
(538,429,l),
(490,498,o),
(408,539,o),
(316,539,cs),
(154,539,o),
(24,406,o),
(24,240,cs),
(24,95,o),
(133,-11,o),
(280,-11,cs)
);
}
);
userData = {
com.typemytype.robofont.guideline.magnetic.AWHW3nlO1Z = 5;
com.typemytype.robofont.guideline.magnetic.Bv1rynWzTY = 5;
com.typemytype.robofont.guideline.magnetic.y5ZavQQJwR = 5;
};
width = 528;
}
);
unicode = 99;
},
{
glyphname = ccedilla;
kernLeft = o;
kernRight = c;
lastChange = "2024-11-06 22:48:16 +0000";
layers = (
{
layerId = m001;
shapes = (
{
closed = 1;
nodes = (
(279,-224,o),
(327,-186,o),
(327,-130,cs),
(327,-92,o),
(300,-65,o),
(248,-60,c),
(272,-10,l),
(328,-7,o),
(383,13,o),
(437,52,c),
(411,88,l),
(359,51,o),
(309,32,o),
(262,32,cs),
(161,32,o),
(87,112,o),
(87,219,cs),
(87,347,o),
(191,460,o),
(308,460,cs),
(369,460,o),
(426,429,o),
(462,378,c),
(495,407,l),
(451,466,o),
(381,502,o),
(312,502,cs),
(167,502,o),
(43,371,o),
(43,219,cs),
(43,96,o),
(128,0,o),
(241,-9,c),
(202,-89,l),
(226,-89,ls),
(265,-89,o),
(293,-105,o),
(293,-135,cs),
(293,-168,o),
(265,-193,o),
(216,-193,cs),
(185,-193,o),
(161,-182,o),
(138,-157,c),
(112,-180,l),
(133,-207,o),
(173,-224,o),
(216,-224,cs)
);
}
);
width = 493;
},
{
layerId = "C55C9F18-A1E0-4E6D-8952-C5F71D844606";
shapes = (
{
closed = 1;
nodes = (
(277,-228,o),
(328,-186,o),
(328,-129,cs),
(328,-88,o),
(299,-61,o),
(250,-56,c),
(274,-9,l),
(334,-6,o),
(392,16,o),
(446,58,c),
(411,110,l),
(364,75,o),
(317,56,o),
(269,56,cs),
(178,56,o),
(108,129,o),
(108,222,cs),
(108,341,o),
(201,442,o),
(309,442,cs),
(366,442,o),
(416,415,o),
(452,365,c),
(505,414,l),
(464,471,o),
(388,509,o),
(314,509,cs),
(163,509,o),
(36,377,o),
(36,219,cs),
(36,97,o),
(117,6,o),
(231,-7,c),
(190,-91,l),
(219,-91,ls),
(257,-91,o),
(280,-107,o),
(280,-134,cs),
(280,-165,o),
(251,-186,o),
(210,-186,cs),
(179,-186,o),
(154,-175,o),
(132,-151,c),
(99,-181,l),
(123,-211,o),
(163,-228,o),
(209,-228,cs)
);
}
);
width = 501;
},
{
layerId = "0A8B8749-808B-4003-9378-5450DA0F5EBF";
shapes = (
{
closed = 1;
nodes = (
(307,-236,o),
(372,-186,o),
(372,-124,cs),
(372,-80,o),
(344,-51,o),
(296,-42,c),
(313,-9,l),
(379,-2,o),
(439,27,o),
(490,75,c),
(408,180,l),
(372,145,o),
(338,129,o),
(297,129,cs),
(228,129,o),
(182,177,o),
(182,249,cs),
(182,331,o),
(241,398,o),
(314,398,cs),
(363,398,o),
(400,377,o),
(430,331,c),
(538,429,l),
(490,498,o),
(408,539,o),
(316,539,cs),
(154,539,o),
(24,406,o),
(24,240,cs),
(24,109,o),
(113,10,o),
(238,-8,c),
(194,-95,l),
(237,-95,ls),
(264,-95,o),
(281,-108,o),
(281,-128,cs),
(281,-149,o),
(261,-163,o),
(231,-163,cs),
(202,-163,o),
(175,-152,o),
(155,-131,c),
(98,-183,l),
(132,-220,o),
(172,-236,o),
(227,-236,cs)
);
}
);
width = 528;
}
);
unicode = 231;
},
{
glyphname = d;
kernLeft = o;
kernRight = d;
lastChange = "2024-11-15 10:48:37 +0000";
layers = (
{
anchors = (
{
name = bottom;
pos = (228,0);
},
{
name = center;
pos = (266,262);
},
{
name = top;
pos = (332,492);
},
{
name = topright;
pos = (681,710);
}
);
layerId = m001;
shapes = (
{
closed = 1;
nodes = (
(311,-10,o),
(361,7,o),
(406,41,c),
(397,0,l),
(440,0,l),
(591,711,l),
(546,700,l),
(486,420,l),
(448,471,o),
(384,502,o),
(312,502,cs),
(164,502,o),
(43,374,o),
(43,218,cs),
(43,87,o),
(134,-10,o),
(259,-10,cs)
);
},
{
closed = 1;
nodes = (
(161,32,o),
(87,110,o),
(87,221,cs),
(87,353,o),
(188,460,o),
(313,460,cs),
(384,460,o),
(449,421,o),
(475,366,c),
(417,95,l),
(376,55,o),
(322,32,o),
(266,32,cs)
);
}
);
userData = {
com.typemytype.robofont.guideline.magnetic.3Re7KNphvk = 5;
com.typemytype.robofont.guideline.magnetic.DhywB1fZro = 5;
com.typemytype.robofont.guideline.magnetic.vaJcv40rS8 = 5;
};
width = 560;
},
{
anchors = (
{
name = bottom;
pos = (237,0);
},
{
name = center;
pos = (275,280);
},
{
name = top;
pos = (343,501);
},
{
name = topright;
pos = (595,707);
}
);
layerId = "C55C9F18-A1E0-4E6D-8952-C5F71D844606";
shapes = (
{
closed = 1;
nodes = (
(309,-8,o),
(356,7,o),
(397,35,c),
(390,0,l),
(462,0,l),
(614,717,l),
(539,700,l),
(483,436,l),
(442,482,o),
(382,508,o),
(314,508,cs),
(161,508,o),
(38,379,o),
(38,222,cs),
(38,90,o),
(132,-8,o),
(259,-8,cs)
);
},
{
closed = 1;
nodes = (
(178,56,o),
(109,128,o),
(109,228,cs),
(109,347,o),
(201,443,o),
(316,443,cs),
(381,443,o),
(440,411,o),
(467,363,c),
(413,111,l),
(376,76,o),
(326,56,o),
(275,56,cs)
);
}
);
userData = {
com.typemytype.robofont.guideline.magnetic.3Re7KNphvk = 5;
com.typemytype.robofont.guideline.magnetic.DhywB1fZro = 5;
com.typemytype.robofont.guideline.magnetic.vaJcv40rS8 = 5;
};
width = 579;
},
{
anchors = (
{
name = bottom;
pos = (262,0);
},
{
name = center;
pos = (304,290);
},
{
name = top;
pos = (374,529);
},
{
name = topright;
pos = (678,715);
}
);
layerId = "0A8B8749-808B-4003-9378-5450DA0F5EBF";
shapes = (
{
closed = 1;
nodes = (
(303,-7,o),
(342,3,o),
(378,22,c),
(373,0,l),
(530,0,l),
(686,735,l),
(520,700,l),
(475,488,l),
(435,519,o),
(382,536,o),
(323,536,cs),
(159,536,o),
(27,404,o),
(27,239,cs),
(27,100,o),
(130,-7,o),
(263,-7,cs)
);
},
{
closed = 1;
nodes = (
(236,130,o),
(183,183,o),
(183,253,cs),
(183,334,o),
(247,398,o),
(329,398,cs),
(376,398,o),
(419,380,o),
(446,352,c),
(406,164,l),
(378,141,o),
(345,130,o),
(307,130,cs)
);
}
);
userData = {
com.typemytype.robofont.guideline.magnetic.3Re7KNphvk = 5;
com.typemytype.robofont.guideline.magnetic.DhywB1fZro = 5;
com.typemytype.robofont.guideline.magnetic.vaJcv40rS8 = 5;
};
width = 635;
}
);
unicode = 100;
},
{
color = (0,0,255,191);
glyphname = dcaron;
kernLeft = o;
kernRight = dcaron;
lastChange = "2024-11-15 10:52:01 +0000";
layers = (
{
background = {
anchors = (
{
name = bottom;
pos = (228,0);
},
{
name = center;
pos = (266,262);
},
{
name = top;
pos = (332,492);
},
{
name = topright;
pos = (591,711);
}
);
shapes = (
{
closed = 1;
nodes = (
(311,-10,o),
(361,7,o),
(406,41,c),
(397,0,l),
(440,0,l),
(591,711,l),
(546,700,l),
(486,420,l),
(448,471,o),
(384,502,o),
(312,502,cs),
(164,502,o),
(43,374,o),
(43,218,cs),
(43,87,o),
(134,-10,o),
(259,-10,cs)
);
},
{
closed = 1;
nodes = (
(161,32,o),
(87,110,o),
(87,221,cs),
(87,353,o),
(188,460,o),
(313,460,cs),
(384,460,o),
(449,421,o),
(475,366,c),
(417,95,l),
(376,55,o),
(322,32,o),
(266,32,cs)
);
},
{
closed = 1;
nodes = (
(669,532,l),
(727,711,l),
(677,700,l),
(639,532,l)
);
}
);
};
layerId = m001;
shapes = (
{
ref = d;
},
{
pos = (474,-2);
ref = caroncomb.alt;
}
);
width = 560;
},
{
background = {
anchors = (
{
name = bottom;
pos = (237,0);
},
{
name = center;
pos = (275,280);
},
{
name = top;
pos = (343,501);
},
{
name = topright;
pos = (614,717);
}
);
shapes = (
{
closed = 1;
nodes = (
(309,-8,o),
(356,7,o),
(397,35,c),
(390,0,l),
(462,0,l),
(614,717,l),
(539,700,l),
(483,436,l),
(442,482,o),
(382,508,o),
(314,508,cs),
(161,508,o),
(38,379,o),
(38,222,cs),
(38,90,o),
(132,-8,o),
(259,-8,cs)
);
},
{
closed = 1;
nodes = (
(178,56,o),
(109,128,o),
(109,228,cs),
(109,347,o),
(201,443,o),
(316,443,cs),
(381,443,o),
(440,411,o),
(467,363,c),
(413,111,l),
(376,76,o),
(326,56,o),
(275,56,cs)
);
},
{
closed = 1;
nodes = (
(955,508,l),
(1021,718,l),
(946,703,l),
(897,508,l)
);
}
);
};
layerId = "C55C9F18-A1E0-4E6D-8952-C5F71D844606";
shapes = (
{
ref = d;
},
{
pos = (498,4);
ref = caroncomb.alt;
}
);
width = 579;
},
{
background = {
anchors = (
{
name = bottom;
pos = (262,0);
},
{
name = center;
pos = (304,290);
},
{
name = top;
pos = (374,529);
},
{
name = topright;
pos = (686,735);
}
);
shapes = (
{
closed = 1;
nodes = (
(303,-7,o),
(342,3,o),
(378,22,c),
(373,0,l),
(530,0,l),
(686,735,l),
(520,700,l),
(475,488,l),
(435,519,o),
(382,536,o),
(323,536,cs),
(159,536,o),
(27,404,o),
(27,239,cs),
(27,100,o),
(130,-7,o),
(263,-7,cs)
);
},
{
closed = 1;
nodes = (
(236,130,o),
(183,183,o),
(183,253,cs),
(183,334,o),
(247,398,o),
(329,398,cs),
(376,398,o),
(419,380,o),
(446,352,c),
(406,164,l),
(378,141,o),
(345,130,o),
(307,130,cs)
);
},
{
closed = 1;
nodes = (
(1005,498,l),
(1105,727,l),
(970,702,l),
(916,498,l)
);
}
);
};
layerId = "0A8B8749-808B-4003-9378-5450DA0F5EBF";
shapes = (
{
ref = d;
},
{
pos = (583,13);
ref = caroncomb.alt;
}
);
width = 635;
}
);
unicode = 271;
},
{
glyphname = dcroat;
kernLeft = o;
kernRight = d;
lastChange = "2024-11-06 22:48:16 +0000";
layers = (
{
layerId = m001;
shapes = (
{
closed = 1;
nodes = (
(311,-10,o),
(361,7,o),
(406,41,c),
(397,0,l),
(440,0,l),
(565,590,l),
(631,590,l),
(639,627,l),
(573,627,l),
(591,711,l),
(546,700,l),
(530,627,l),
(358,627,l),
(350,590,l),
(522,590,l),
(486,420,l),
(448,471,o),
(384,502,o),
(312,502,cs),
(164,502,o),
(43,374,o),
(43,218,cs),
(43,87,o),
(134,-10,o),
(259,-10,cs)
);
},
{
closed = 1;
nodes = (
(161,32,o),
(87,110,o),
(87,221,cs),
(87,353,o),
(188,460,o),
(313,460,cs),
(384,460,o),
(449,421,o),
(475,366,c),
(417,95,l),
(376,55,o),
(322,32,o),
(266,32,cs)
);
}
);
width = 560;
},
{
layerId = "C55C9F18-A1E0-4E6D-8952-C5F71D844606";
shapes = (
{
closed = 1;
nodes = (
(309,-8,o),
(356,7,o),
(397,35,c),
(390,0,l),
(462,0,l),
(586,586,l),
(649,586,l),
(661,644,l),
(599,644,l),
(614,717,l),
(539,700,l),
(527,644,l),
(367,644,l),
(355,586,l),
(515,586,l),
(483,436,l),
(442,482,o),
(382,508,o),
(314,508,cs),
(161,508,o),
(38,379,o),
(38,222,cs),
(38,90,o),
(132,-8,o),
(259,-8,cs)
);
},
{
closed = 1;
nodes = (
(178,56,o),
(109,128,o),
(109,228,cs),
(109,347,o),
(201,443,o),
(316,443,cs),
(381,443,o),
(440,411,o),
(467,363,c),
(413,111,l),
(376,76,o),
(326,56,o),
(275,56,cs)
);
}
);
width = 578;
},
{
layerId = "0A8B8749-808B-4003-9378-5450DA0F5EBF";
shapes = (
{
closed = 1;
nodes = (
(303,-7,o),
(342,3,o),
(378,22,c),
(373,0,l),
(530,0,l),
(652,576,l),
(701,576,l),
(721,671,l),
(672,671,l),
(686,735,l),
(520,700,l),
(514,671,l),
(389,671,l),
(369,576,l),
(494,576,l),
(475,488,l),
(435,519,o),
(382,536,o),
(323,536,cs),
(159,536,o),
(27,404,o),
(27,239,cs),
(27,100,o),
(130,-7,o),
(263,-7,cs)
);
},
{
closed = 1;
nodes = (
(236,130,o),
(183,183,o),
(183,253,cs),
(183,334,o),
(247,398,o),
(329,398,cs),
(376,398,o),
(419,380,o),
(446,352,c),
(406,164,l),
(378,141,o),
(345,130,o),
(307,130,cs)
);
}
);
width = 633;
}
);
unicode = 273;
},
{
glyphname = eth;
kernLeft = o;
kernRight = o;
lastChange = "2024-11-06 22:48:16 +0000";
layers = (
{
layerId = m001;
shapes = (
{
closed = 1;
nodes = (
(435,-10,o),
(550,147,o),
(550,385,cs),
(550,469,o),
(526,546,o),
(481,607,c),
(600,662,l),
(586,700,l),
(454,639,l),
(421,672,o),
(381,698,o),
(334,717,c),
(317,683,l),
(351,670,o),
(388,646,o),
(416,621,c),
(314,574,l),
(328,536,l),
(443,589,l),
(491,527,o),
(513,445,o),
(509,351,c),
(482,441,o),
(404,494,o),
(311,494,cs),
(162,494,o),
(44,366,o),
(44,212,cs),
(44,86,o),
(131,-10,o),
(260,-10,cs)
);
},
{
closed = 1;
nodes = (
(156,32,o),
(88,111,o),
(88,214,cs),
(88,343,o),
(190,452,o),
(310,452,cs),
(417,452,o),
(485,373,o),
(485,270,cs),
(485,141,o),
(383,32,o),
(263,32,cs)
);
}
);
width = 591;
},
{
layerId = "C55C9F18-A1E0-4E6D-8952-C5F71D844606";
shapes = (
{
closed = 1;
nodes = (
(434,-9,o),
(555,154,o),
(555,388,cs),
(555,476,o),
(533,551,o),
(490,612,c),
(597,663,l),
(576,711,l),
(456,654,l),
(424,686,o),
(385,713,o),
(339,734,c),
(299,683,l),
(335,668,o),
(366,648,o),
(392,624,c),
(297,579,l),
(317,530,l),
(428,583,l),
(468,526,o),
(489,454,o),
(487,374,c),
(458,445,o),
(391,491,o),
(305,491,cs),
(159,491,o),
(39,367,o),
(39,216,cs),
(39,84,o),
(131,-9,o),
(260,-9,cs)
);
},
{
closed = 1;
nodes = (
(173,58,o),
(108,124,o),
(108,218,cs),
(108,331,o),
(199,428,o),
(305,428,cs),
(395,428,o),
(462,359,o),
(462,267,cs),
(462,155,o),
(370,58,o),
(265,58,cs)
);
}
);
width = 588;
},
{
layerId = "0A8B8749-808B-4003-9378-5450DA0F5EBF";
shapes = (
{
closed = 1;
nodes = (
(444,-9,o),
(576,152,o),
(576,366,cs),
(576,462,o),
(553,547,o),
(509,620,c),
(593,661,l),
(551,748,l),
(449,698,l),
(422,726,o),
(392,751,o),
(357,774,c),
(252,677,l),
(274,663,o),
(294,649,o),
(313,631,c),
(247,598,l),
(287,512,l),
(377,556,l),
(403,518,o),
(419,478,o),
(423,441,c),
(390,470,o),
(346,484,o),
(291,484,cs),
(147,484,o),
(27,367,o),
(27,227,cs),
(27,87,o),
(126,-9,o),
(269,-9,cs)
);
},
{
closed = 1;
nodes = (
(219,133,o),
(177,175,o),
(177,231,cs),
(177,295,o),
(232,350,o),
(297,350,cs),
(351,350,o),
(392,308,o),
(392,253,cs),
(392,189,o),
(337,133,o),
(274,133,cs)
);
}
);
width = 580;
}
);
unicode = 240;
},
{
glyphname = e;
kernLeft = o;
kernRight = e;
lastChange = "2024-11-06 22:48:16 +0000";
layers = (
{
anchors = (
{
name = bottom;
pos = (339,0);
},
{
name = top;
pos = (308,492);
}
);
layerId = m001;
shapes = (
{
closed = 1;
nodes = (
(323,-10,o),
(387,8,o),
(436,40,c),
(412,76,l),
(368,49,o),
(317,32,o),
(265,32,cs),
(159,32,o),
(83,117,o),
(87,234,c),
(499,234,l),
(500,242,o),
(502,273,o),
(502,280,cs),
(502,407,o),
(422,502,o),
(306,502,cs),
(161,502,o),
(43,375,o),
(43,219,cs),
(43,90,o),
(142,-10,o),
(263,-10,cs)
);
},
{
closed = 1;
nodes = (
(116,382,o),
(201,460,o),
(302,460,cs),
(402,460,o),
(463,375,o),
(459,276,c),
(93,276,l)
);
}
);
userData = {
SBAlt = left;
com.typemytype.robofont.guideline.magnetic.GLd7J1WNnr = 5;
com.typemytype.robofont.guideline.magnetic.yQRxHJogCR = 5;
com.typemytype.robofont.guideline.magnetic.yiN9uCawPM = 5;
};
width = 539;
},
{
anchors = (
{
name = bottom;
pos = (359,0);
},
{
name = top;
pos = (304,501);
}
);
layerId = "C55C9F18-A1E0-4E6D-8952-C5F71D844606";
shapes = (
{
closed = 1;
nodes = (
(345,-9,o),
(401,7,o),
(456,45,c),
(418,96,l),
(381,70,o),
(332,55,o),
(283,55,cs),
(186,55,o),
(112,128,o),
(110,228,c),
(511,228,l),
(513,244,o),
(514,259,o),
(514,273,cs),
(514,408,o),
(423,509,o),
(301,509,cs),
(157,509,o),
(38,381,o),
(38,226,cs),
(38,89,o),
(139,-9,o),
(280,-9,cs)
);
},
{
closed = 1;
nodes = (
(138,377,o),
(210,444,o),
(294,444,cs),
(377,444,o),
(439,378,o),
(445,287,c),
(117,287,l)
);
}
);
userData = {
SBAlt = left;
com.typemytype.robofont.guideline.magnetic.GLd7J1WNnr = 5;
com.typemytype.robofont.guideline.magnetic.yQRxHJogCR = 5;
com.typemytype.robofont.guideline.magnetic.yiN9uCawPM = 5;
};
width = 552;
},
{
anchors = (
{
name = bottom;
pos = (384,0);
},
{
name = top;
pos = (318,529);
}
);
layerId = "0A8B8749-808B-4003-9378-5450DA0F5EBF";
shapes = (
{
closed = 1;
nodes = (
(376,-11,o),
(436,9,o),
(503,58,c),
(414,159,l),
(387,135,o),
(351,122,o),
(309,122,cs),
(245,122,o),
(198,157,o),
(182,210,c),
(552,210,l),
(557,251,o),
(558,265,o),
(558,280,cs),
(558,431,o),
(458,537,o),
(314,537,cs),
(155,537,o),
(24,403,o),
(24,242,cs),
(24,95,o),
(138,-11,o),
(296,-11,cs)
);
},
{
closed = 1;
nodes = (
(213,371,o),
(255,404,o),
(307,404,cs),
(357,404,o),
(395,372,o),
(409,322,c),
(191,322,l)
);
}
);
userData = {
SBAlt = left;
com.typemytype.robofont.guideline.magnetic.GLd7J1WNnr = 5;
com.typemytype.robofont.guideline.magnetic.yQRxHJogCR = 5;
com.typemytype.robofont.guideline.magnetic.yiN9uCawPM = 5;
};
width = 586;
}
);
unicode = 101;
},
{
glyphname = eogonek;
kernLeft = o;
kernRight = e;
lastChange = "2024-11-06 22:48:16 +0000";
layers = (
{
layerId = m001;
shapes = (
{
closed = 1;
nodes = (
(271,-222,o),
(290,-217,o),
(308,-209,c),
(304,-178,l),
(289,-185,o),
(271,-189,o),
(255,-189,cs),
(223,-189,o),
(201,-170,o),
(201,-143,cs),
(201,-99,o),
(232,-55,o),
(339,-1,c),
(374,7,o),
(407,21,o),
(436,40,c),
(412,76,l),
(368,49,o),
(317,32,o),
(265,32,cs),
(159,32,o),
(82,121,o),
(87,234,c),
(499,234,l),
(500,242,o),
(502,273,o),
(502,280,cs),
(502,407,o),
(422,502,o),
(306,502,cs),
(161,502,o),
(43,375,o),
(43,219,cs),
(43,88,o),
(144,-12,o),
(268,-10,c),
(188,-61,o),
(162,-108,o),
(162,-149,cs),
(162,-187,o),
(190,-222,o),
(249,-222,cs)
);
},
{
closed = 1;
nodes = (
(116,382,o),
(201,460,o),
(302,460,cs),
(402,460,o),
(463,375,o),
(459,276,c),
(93,276,l)
);
}
);
width = 539;
},
{
layerId = "C55C9F18-A1E0-4E6D-8952-C5F71D844606";
shapes = (
{
closed = 1;
nodes = (
(285,-222,o),
(307,-216,o),
(328,-206,c),
(323,-166,l),
(309,-173,o),
(292,-177,o),
(277,-177,cs),
(247,-177,o),
(227,-160,o),
(227,-134,cs),
(227,-88,o),
(268,-47,o),
(358,0,c),
(392,8,o),
(424,23,o),
(456,45,c),
(418,96,l),
(381,70,o),
(332,55,o),
(283,55,cs),
(186,55,o),
(112,128,o),
(110,228,c),
(511,228,l),
(513,244,o),
(514,259,o),
(514,273,cs),
(514,408,o),
(423,509,o),
(301,509,cs),
(157,509,o),
(38,381,o),
(38,226,cs),
(38,89,o),
(139,-9,o),
(280,-9,c),
(210,-53,o),
(174,-99,o),
(174,-149,cs),
(174,-193,o),
(209,-222,o),
(262,-222,cs)
);
},
{
closed = 1;
nodes = (
(138,377,o),
(210,444,o),
(294,444,cs),
(377,444,o),
(439,378,o),
(445,287,c),
(117,287,l)
);
}
);
width = 552;
},
{
layerId = "0A8B8749-808B-4003-9378-5450DA0F5EBF";
shapes = (
{
closed = 1;
nodes = (
(305,-221,o),
(338,-213,o),
(364,-198,c),
(358,-128,l),
(347,-135,o),
(333,-139,o),
(320,-139,cs),
(296,-139,o),
(282,-128,o),
(282,-108,cs),
(282,-72,o),
(316,-37,o),
(385,-1,c),
(426,10,o),
(463,29,o),
(503,58,c),
(414,159,l),
(387,135,o),
(351,122,o),
(309,122,cs),
(245,122,o),
(198,157,o),
(182,210,c),
(552,210,l),
(557,251,o),
(558,265,o),
(558,280,cs),
(558,431,o),
(458,537,o),
(314,537,cs),
(155,537,o),
(24,403,o),
(24,242,cs),
(24,99,o),
(132,-5,o),
(284,-11,c),
(219,-52,o),
(186,-97,o),
(186,-148,cs),
(186,-193,o),
(220,-221,o),
(274,-221,cs)
);
},
{
closed = 1;
nodes = (
(213,371,o),
(255,404,o),
(307,404,cs),
(357,404,o),
(395,372,o),
(409,322,c),
(191,322,l)
);
}
);
width = 586;
}
);
unicode = 281;
},
{
glyphname = f;
kernLeft = t;
kernRight = f;
lastChange = "2024-11-06 22:48:16 +0000";
layers = (
{
guides = (
{
angle = 78;
pos = (112,150);
userData = {
UFO.identifier = qqIjPlwYHr;
};
}
);
layerId = m001;
shapes = (
{
closed = 1;
nodes = (
(124,0,l),
(220,452,l),
(368,452,l),
(377,492,l),
(228,492,l),
(252,603,ls),
(266,669,o),
(297,698,o),
(355,698,cs),
(378,698,o),
(394,694,o),
(417,684,c),
(425,726,l),
(401,736,o),
(381,740,o),
(355,740,cs),
(277,740,o),
(228,696,o),
(210,611,cs),
(185,492,l),
(69,492,l),
(60,452,l),
(176,452,l),
(81,0,l)
);
}
);
userData = {
com.typemytype.robofont.guideline.magnetic.Jyq3OeIVtB = 5;
com.typemytype.robofont.guideline.magnetic.UhIARswkdr = 5;
com.typemytype.robofont.guideline.magnetic.glw3sKy2nB = 5;
};
width = 341;
},
{
layerId = "C55C9F18-A1E0-4E6D-8952-C5F71D844606";
shapes = (
{
closed = 1;
nodes = (
(150,0,l),
(243,438,l),
(388,438,l),
(402,501,l),
(257,501,l),
(278,600,ls),
(290,658,o),
(318,682,o),
(371,682,cs),
(398,682,o),
(416,678,o),
(438,669,c),
(451,735,l),
(429,744,o),
(403,748,o),
(375,748,cs),
(286,748,o),
(227,698,o),
(207,606,cs),
(185,501,l),
(69,501,l),
(56,438,l),
(171,438,l),
(78,0,l)
);
}
);
userData = {
com.typemytype.robofont.guideline.magnetic.Jyq3OeIVtB = 5;
com.typemytype.robofont.guideline.magnetic.UhIARswkdr = 5;
com.typemytype.robofont.guideline.magnetic.glw3sKy2nB = 5;
};
width = 366;
},
{
layerId = "0A8B8749-808B-4003-9378-5450DA0F5EBF";
shapes = (
{
closed = 1;
nodes = (
(234,0,l),
(318,394,l),
(454,394,l),
(482,529,l),
(347,529,l),
(354,561,ls),
(361,597,o),
(386,615,o),
(429,615,cs),
(453,615,o),
(476,611,o),
(499,603,c),
(527,737,l),
(503,747,o),
(457,754,o),
(421,754,cs),
(301,754,o),
(222,691,o),
(197,576,cs),
(187,529,l),
(74,529,l),
(46,394,l),
(158,394,l),
(75,0,l)
);
}
);
userData = {
com.typemytype.robofont.guideline.magnetic.Jyq3OeIVtB = 5;
com.typemytype.robofont.guideline.magnetic.UhIARswkdr = 5;
com.typemytype.robofont.guideline.magnetic.glw3sKy2nB = 5;
};
width = 444;
}
);
unicode = 102;
},
{
glyphname = g;
kernLeft = o;
kernRight = q;
lastChange = "2024-11-06 22:48:16 +0000";
layers = (
{
anchors = (
{
name = top;
pos = (315,492);
}
);
guides = (
{
angle = 78;
pos = (552,519);
userData = {
UFO.identifier = NAKG3lDi2H;
};
}
);
layerId = m001;
shapes = (
{
closed = 1;
nodes = (
(339,-214,o),
(407,-154,o),
(431,-43,cs),
(545,492,l),
(502,492,l),
(487,419,l),
(448,471,o),
(384,502,o),
(312,502,cs),
(164,502,o),
(43,374,o),
(43,218,cs),
(43,87,o),
(134,-10,o),
(259,-10,cs),
(312,-10,o),
(363,8,o),
(409,43,c),
(389,-39,ls),
(368,-127,o),
(318,-172,o),
(234,-172,cs),
(176,-172,o),
(121,-151,o),
(64,-108,c),
(36,-140,l),
(90,-185,o),
(169,-214,o),
(237,-214,cs)
);
},
{
closed = 1;
nodes = (
(161,32,o),
(87,110,o),
(87,221,cs),
(87,353,o),
(188,460,o),
(313,460,cs),
(385,460,o),
(451,421,o),
(476,365,c),
(420,98,l),
(379,56,o),
(323,32,o),
(266,32,cs)
);
}
);
width = 563;
},
{
anchors = (
{
name = top;
pos = (322,501);
}
);
layerId = "C55C9F18-A1E0-4E6D-8952-C5F71D844606";
shapes = (
{
closed = 1;
nodes = (
(358,-210,o),
(433,-148,o),
(457,-33,cs),
(568,501,l),
(496,501,l),
(482,437,l),
(442,483,o),
(381,508,o),
(314,508,cs),
(162,508,o),
(39,380,o),
(39,222,cs),
(39,90,o),
(132,-7,o),
(259,-7,cs),
(310,-7,o),
(356,8,o),
(398,36,c),
(385,-26,ls),
(368,-105,o),
(319,-145,o),
(242,-145,cs),
(184,-145,o),
(128,-124,o),
(70,-82,c),
(32,-137,l),
(89,-182,o),
(172,-210,o),
(245,-210,cs)
);
},
{
closed = 1;
nodes = (
(178,57,o),
(110,128,o),
(110,228,cs),
(110,347,o),
(201,443,o),
(316,443,cs),
(381,443,o),
(440,412,o),
(467,363,c),
(414,112,l),
(376,77,o),
(327,57,o),
(275,57,cs)
);
}
);
width = 580;
},
{
anchors = (
{
name = top;
pos = (346,529);
}
);
layerId = "0A8B8749-808B-4003-9378-5450DA0F5EBF";
shapes = (
{
closed = 1;
nodes = (
(408,-214,o),
(498,-145,o),
(525,-18,cs),
(640,529,l),
(482,529,l),
(474,489,l),
(434,519,o),
(382,536,o),
(323,536,cs),
(160,536,o),
(29,405,o),
(29,242,cs),
(29,103,o),
(130,-2,o),
(263,-2,cs),
(302,-2,o),
(340,7,o),
(374,25,c),
(369,0,ls),
(358,-54,o),
(322,-80,o),
(263,-80,cs),
(206,-80,o),
(142,-59,o),
(84,-22,c),
(12,-142,l),
(80,-187,o),
(176,-214,o),
(267,-214,cs)
);
},
{
closed = 1;
nodes = (
(236,133,o),
(185,185,o),
(185,256,cs),
(185,335,o),
(248,398,o),
(329,398,cs),
(374,398,o),
(416,381,o),
(444,354,c),
(404,165,l),
(376,144,o),
(344,133,o),
(307,133,cs)
);
}
);
width = 634;
}
);
note = "Version created Sun Jan 13 16:53:00 2019";
unicode = 103;
},
{
color = (0,0,255,191);
glyphname = gcommaaccent;
kernLeft = o;
kernRight = q;
lastChange = "2024-11-06 22:48:16 +0000";
layers = (
{
layerId = m001;
shapes = (
{
closed = 1;
nodes = (
(400,772,l),
(313,604,l),
(364,604,l),
(436,772,l)
);
},
{
ref = g;
}
);
width = 564;
},
{
layerId = "C55C9F18-A1E0-4E6D-8952-C5F71D844606";
shapes = (
{
closed = 1;
nodes = (
(404,787,l),
(306,608,l),
(381,608,l),
(459,787,l)
);
},
{
ref = g;
}
);
width = 581;
},
{
layerId = "0A8B8749-808B-4003-9378-5450DA0F5EBF";
shapes = (
{
closed = 1;
nodes = (
(404,832,l),
(270,617,l),
(418,617,l),
(518,832,l)
);
},
{
ref = g;
}
);
width = 634;
}
);
unicode = 291;
},
{
glyphname = h;
kernLeft = b;
kernRight = n;
lastChange = "2024-11-06 22:48:16 +0000";
layers = (
{
anchors = (
{
name = top;
pos = (186,700);
}
);
guides = (
{
angle = 78;
pos = (72,264);
userData = {
UFO.identifier = PAA86uE6v5;
};
},
{
angle = 78;
pos = (37,0);
userData = {
UFO.identifier = ePaUkP5b0A;
};
}
);
layerId = m001;
shapes = (
{
closed = 1;
nodes = (
(59,0,l),
(140,379,l),
(179,430,o),
(237,461,o),
(300,461,cs),
(395,461,o),
(444,395,o),
(422,291,cs),
(360,0,l),
(403,0,l),
(466,297,ls),
(492,419,o),
(420,502,o),
(308,502,cs),
(248,502,o),
(196,479,o),
(151,433,c),
(210,711,l),
(165,700,l),
(16,0,l)
);
}
);
userData = {
com.typemytype.robofont.guideline.magnetic.1maR87MQON = 5;
com.typemytype.robofont.guideline.magnetic.SFqz0IkLDM = 5;
com.typemytype.robofont.guideline.magnetic.weklE1HfVD = 5;
};
width = 519;
},
{
anchors = (
{
name = top;
pos = (193,700);
}
);
layerId = "C55C9F18-A1E0-4E6D-8952-C5F71D844606";
shapes = (
{
closed = 1;
nodes = (
(82,0,l),
(162,376,l),
(200,421,o),
(250,446,o),
(305,446,cs),
(392,446,o),
(436,385,o),
(416,293,cs),
(354,0,l),
(426,0,l),
(490,302,ls),
(515,422,o),
(447,510,o),
(329,510,cs),
(272,510,o),
(221,490,o),
(178,451,c),
(234,717,l),
(159,700,l),
(10,0,l)
);
}
);
userData = {
com.typemytype.robofont.guideline.magnetic.1maR87MQON = 5;
com.typemytype.robofont.guideline.magnetic.SFqz0IkLDM = 5;
com.typemytype.robofont.guideline.magnetic.weklE1HfVD = 5;
};
width = 539;
},
{
anchors = (
{
name = top;
pos = (218,700);
}
);
layerId = "0A8B8749-808B-4003-9378-5450DA0F5EBF";
shapes = (
{
closed = 1;
nodes = (
(152,0,l),
(229,361,l),
(256,387,o),
(287,400,o),
(324,400,cs),
(383,400,o),
(415,360,o),
(403,300,cs),
(339,0,l),
(498,0,l),
(565,315,ls),
(592,443,o),
(521,537,o),
(395,537,cs),
(346,537,o),
(299,523,o),
(257,496,c),
(308,735,l),
(142,700,l),
(-7,0,l)
);
}
);
userData = {
com.typemytype.robofont.guideline.magnetic.1maR87MQON = 5;
com.typemytype.robofont.guideline.magnetic.SFqz0IkLDM = 5;
com.typemytype.robofont.guideline.magnetic.weklE1HfVD = 5;
};
width = 599;
}
);
unicode = 104;
},
{
glyphname = hbar;
kernLeft = b;
kernRight = n;
lastChange = "2024-11-06 22:48:16 +0000";
layers = (
{
layerId = m001;
shapes = (
{
closed = 1;
nodes = (
(59,0,l),
(140,379,l),
(179,430,o),
(237,461,o),
(300,461,cs),
(395,461,o),
(444,395,o),
(422,291,cs),
(360,0,l),
(403,0,l),
(466,297,ls),
(492,419,o),
(420,502,o),
(308,502,cs),
(248,502,o),
(196,479,o),
(151,433,c),
(184,590,l),
(356,590,l),
(364,627,l),
(192,627,l),
(210,711,l),
(165,700,l),
(149,627,l),
(83,627,l),
(75,590,l),
(142,590,l),
(16,0,l)
);
}
);
width = 519;
},
{
layerId = "C55C9F18-A1E0-4E6D-8952-C5F71D844606";
shapes = (
{
closed = 1;
nodes = (
(82,0,l),
(162,376,l),
(200,421,o),
(250,446,o),
(305,446,cs),
(392,446,o),
(436,385,o),
(416,293,cs),
(354,0,l),
(426,0,l),
(490,302,ls),
(515,422,o),
(447,510,o),
(329,510,cs),
(272,510,o),
(221,490,o),
(178,451,c),
(206,586,l),
(364,586,l),
(376,644,l),
(219,644,l),
(234,717,l),
(159,700,l),
(147,644,l),
(82,644,l),
(70,586,l),
(135,586,l),
(10,0,l)
);
}
);
width = 538;
},
{
layerId = "0A8B8749-808B-4003-9378-5450DA0F5EBF";
shapes = (
{
closed = 1;
nodes = (
(152,0,l),
(229,361,l),
(256,387,o),
(287,400,o),
(324,400,cs),
(383,400,o),
(415,360,o),
(403,300,cs),
(339,0,l),
(498,0,l),
(565,315,ls),
(592,443,o),
(521,537,o),
(395,537,cs),
(346,537,o),
(299,523,o),
(257,496,c),
(274,576,l),
(400,576,l),
(420,671,l),
(294,671,l),
(308,735,l),
(142,700,l),
(136,671,l),
(82,671,l),
(62,576,l),
(116,576,l),
(-7,0,l)
);
}
);
width = 598;
}
);
unicode = 295;
},
{
glyphname = i;
kernLeft = b;
kernRight = d;
lastChange = "2024-11-06 22:48:16 +0000";
layers = (
{
anchors = (
{
name = bottom;
pos = (58,0);
}
);
layerId = m001;
shapes = (
{
closed = 1;
nodes = (
(59,0,l),
(164,492,l),
(121,492,l),
(16,0,l)
);
},
{
closed = 1;
nodes = (
(192,603,o),
(211,621,o),
(211,645,cs),
(211,664,o),
(196,679,o),
(177,679,cs),
(155,679,o),
(136,661,o),
(136,638,cs),
(136,618,o),
(151,603,o),
(170,603,cs)
);
}
);
userData = {
com.typemytype.robofont.guideline.magnetic.M5QXaMOTBT = 5;
com.typemytype.robofont.guideline.magnetic.WPp3aovRVD = 5;
com.typemytype.robofont.guideline.magnetic.YRXwvdlc1z = 5;
com.typemytype.robofont.guideline.magnetic.k4WbWZIlfl = 5;
com.typemytype.robofont.guideline.magnetic.sDmz4dqJ1T = 5;
};
width = 179;
},
{
anchors = (
{
name = bottom;
pos = (82,0);
}
);
layerId = "C55C9F18-A1E0-4E6D-8952-C5F71D844606";
shapes = (
{
closed = 1;
nodes = (
(82,0,l),
(188,501,l),
(116,501,l),
(10,0,l)
);
},
{
closed = 1;
nodes = (
(206,597,o),
(232,623,o),
(232,653,cs),
(232,678,o),
(213,697,o),
(188,697,cs),
(159,697,o),
(133,671,o),
(133,642,cs),
(133,617,o),
(152,597,o),
(177,597,cs)
);
}
);
userData = {
com.typemytype.robofont.guideline.magnetic.M5QXaMOTBT = 5;
com.typemytype.robofont.guideline.magnetic.WPp3aovRVD = 5;
com.typemytype.robofont.guideline.magnetic.YRXwvdlc1z = 5;
com.typemytype.robofont.guideline.magnetic.k4WbWZIlfl = 5;
com.typemytype.robofont.guideline.magnetic.sDmz4dqJ1T = 5;
};
width = 198;
},
{
anchors = (
{
name = bottom;
pos = (152,0);
}
);
layerId = "0A8B8749-808B-4003-9378-5450DA0F5EBF";
shapes = (
{
closed = 1;
nodes = (
(152,0,l),
(264,529,l),
(105,529,l),
(-7,0,l)
);
},
{
closed = 1;
nodes = (
(256,578,o),
(302,624,o),
(302,678,cs),
(302,722,o),
(268,756,o),
(224,756,cs),
(172,756,o),
(126,710,o),
(126,656,cs),
(126,612,o),
(160,578,o),
(204,578,cs)
);
}
);
userData = {
com.typemytype.robofont.guideline.magnetic.M5QXaMOTBT = 5;
com.typemytype.robofont.guideline.magnetic.WPp3aovRVD = 5;
com.typemytype.robofont.guideline.magnetic.YRXwvdlc1z = 5;
com.typemytype.robofont.guideline.magnetic.k4WbWZIlfl = 5;
com.typemytype.robofont.guideline.magnetic.sDmz4dqJ1T = 5;
};
width = 257;
}
);
unicode = 105;
},
{
glyphname = idotless;
kernLeft = n;
kernRight = q;
lastChange = "2024-11-06 23:03:50 +0000";
layers = (
{
anchors = (
{
name = bottom;
pos = (59,0);
},
{
name = top;
pos = (142,492);
}
);
guides = (
{
pos = (142,492);
userData = {
UFO.identifier = RYE7gOuEm7;
};
}
);
layerId = m001;
shapes = (
{
closed = 1;
nodes = (
(59,0,l),
(164,492,l),
(121,492,l),
(16,0,l)
);
}
);
userData = {
com.typemytype.robofont.guideline.magnetic.M5QXaMOTBT = 5;
com.typemytype.robofont.guideline.magnetic.WPp3aovRVD = 5;
com.typemytype.robofont.guideline.magnetic.YRXwvdlc1z = 5;
com.typemytype.robofont.guideline.magnetic.k4WbWZIlfl = 5;
com.typemytype.robofont.guideline.magnetic.sDmz4dqJ1T = 5;
};
width = 178;
},
{
anchors = (
{
name = bottom;
pos = (82,0);
},
{
name = top;
pos = (152,501);
}
);
layerId = "C55C9F18-A1E0-4E6D-8952-C5F71D844606";
shapes = (
{
closed = 1;
nodes = (
(82,0,l),
(188,501,l),
(116,501,l),
(10,0,l)
);
}
);
userData = {
com.typemytype.robofont.guideline.magnetic.M5QXaMOTBT = 5;
com.typemytype.robofont.guideline.magnetic.WPp3aovRVD = 5;
com.typemytype.robofont.guideline.magnetic.YRXwvdlc1z = 5;
com.typemytype.robofont.guideline.magnetic.k4WbWZIlfl = 5;
com.typemytype.robofont.guideline.magnetic.sDmz4dqJ1T = 5;
};
width = 198;
},
{
anchors = (
{
name = bottom;
pos = (152,0);
},
{
name = top;
pos = (184,529);
}
);
layerId = "0A8B8749-808B-4003-9378-5450DA0F5EBF";
shapes = (
{
closed = 1;
nodes = (
(152,0,l),
(264,529,l),
(105,529,l),
(-7,0,l)
);
}
);
userData = {
com.typemytype.robofont.guideline.magnetic.M5QXaMOTBT = 5;
com.typemytype.robofont.guideline.magnetic.WPp3aovRVD = 5;
com.typemytype.robofont.guideline.magnetic.YRXwvdlc1z = 5;
com.typemytype.robofont.guideline.magnetic.k4WbWZIlfl = 5;
com.typemytype.robofont.guideline.magnetic.sDmz4dqJ1T = 5;
};
width = 257;
}
);
unicode = 305;
},
{
glyphname = iogonek;
kernLeft = b;
kernRight = d;
lastChange = "2024-11-06 22:48:16 +0000";
layers = (
{
layerId = m001;
shapes = (
{
closed = 1;
nodes = (
(193,603,o),
(211,622,o),
(211,645,cs),
(211,664,o),
(196,679,o),
(177,679,cs),
(155,679,o),
(136,661,o),
(136,638,cs),
(136,618,o),
(151,603,o),
(170,603,cs)
);
},
{
closed = 1;
nodes = (
(-12,-222,o),
(7,-218,o),
(27,-209,c),
(23,-178,l),
(8,-185,o),
(-10,-189,o),
(-26,-189,cs),
(-58,-189,o),
(-80,-170,o),
(-80,-143,cs),
(-80,-93,o),
(-37,-49,o),
(59,0,c),
(164,492,l),
(121,492,l),
(16,0,l),
(17,0,l),
(-68,-38,o),
(-119,-94,o),
(-119,-149,cs),
(-119,-193,o),
(-84,-222,o),
(-32,-222,cs)
);
}
);
width = 179;
},
{
layerId = "C55C9F18-A1E0-4E6D-8952-C5F71D844606";
shapes = (
{
closed = 1;
nodes = (
(206,597,o),
(232,623,o),
(232,653,cs),
(232,678,o),
(213,697,o),
(188,697,cs),
(159,697,o),
(133,671,o),
(133,642,cs),
(133,617,o),
(152,597,o),
(177,597,cs)
);
},
{
closed = 1;
nodes = (
(9,-222,o),
(31,-216,o),
(52,-206,c),
(47,-166,l),
(33,-173,o),
(16,-177,o),
(1,-177,cs),
(-29,-177,o),
(-49,-160,o),
(-49,-134,cs),
(-49,-88,o),
(-8,-47,o),
(82,0,c),
(188,501,l),
(116,501,l),
(10,0,l),
(20,0,l),
(-61,-47,o),
(-102,-96,o),
(-102,-149,cs),
(-102,-193,o),
(-67,-222,o),
(-14,-222,cs)
);
}
);
width = 198;
},
{
layerId = "0A8B8749-808B-4003-9378-5450DA0F5EBF";
shapes = (
{
closed = 1;
nodes = (
(256,578,o),
(302,624,o),
(302,678,cs),
(302,722,o),
(268,756,o),
(224,756,cs),
(172,756,o),
(126,710,o),
(126,656,cs),
(126,612,o),
(160,578,o),
(204,578,cs)
);
},
{
closed = 1;
nodes = (
(71,-221,o),
(104,-213,o),
(130,-198,c),
(124,-128,l),
(113,-135,o),
(99,-139,o),
(86,-139,cs),
(62,-139,o),
(48,-128,o),
(48,-108,cs),
(48,-72,o),
(82,-37,o),
(152,0,c),
(264,529,l),
(105,529,l),
(-7,0,l),
(67,0,l),
(-10,-44,o),
(-48,-93,o),
(-48,-148,cs),
(-48,-193,o),
(-14,-221,o),
(40,-221,cs)
);
}
);
width = 257;
}
);
unicode = 303;
},
{
glyphname = j;
kernLeft = b;
kernRight = d;
lastChange = "2024-11-06 22:48:16 +0000";
layers = (
{
guides = (
{
angle = 78;
pos = (69,245);
userData = {
UFO.identifier = JmSWmKlBo6;
};
}
);
layerId = m001;
shapes = (
{
closed = 1;
nodes = (
(192,603,o),
(211,621,o),
(211,644,cs),
(211,663,o),
(196,678,o),
(177,678,cs),
(155,678,o),
(136,660,o),
(136,637,cs),
(136,618,o),
(151,603,o),
(170,603,cs)
);
},
{
closed = 1;
nodes = (
(-22,-214,o),
(24,-173,o),
(38,-105,cs),
(164,492,l),
(121,492,l),
(-3,-95,ls),
(-14,-146,o),
(-37,-171,o),
(-79,-171,cs),
(-92,-171,o),
(-106,-170,o),
(-118,-165,c),
(-127,-209,l),
(-114,-212,o),
(-100,-214,o),
(-87,-214,cs)
);
}
);
userData = {
SBAlt = right;
com.typemytype.robofont.guideline.magnetic.I8W9tlf4Hl = 5;
com.typemytype.robofont.guideline.magnetic.JgWxigOrnU = 5;
com.typemytype.robofont.guideline.magnetic.P1CmYF1M0X = 5;
com.typemytype.robofont.guideline.magnetic.wEVaqWZ15I = 5;
com.typemytype.robofont.guideline.magnetic.zc08ofHgWS = 5;
};
width = 178;
},
{
layerId = "C55C9F18-A1E0-4E6D-8952-C5F71D844606";
shapes = (
{
closed = 1;
nodes = (
(206,597,o),
(232,623,o),
(232,653,cs),
(232,678,o),
(213,697,o),
(188,697,cs),
(159,697,o),
(133,671,o),
(133,642,cs),
(133,617,o),
(152,597,o),
(177,597,cs)
);
},
{
closed = 1;
nodes = (
(-5,-207,o),
(47,-164,o),
(63,-87,cs),
(188,501,l),
(116,501,l),
(-7,-78,ls),
(-17,-124,o),
(-37,-143,o),
(-77,-143,cs),
(-94,-143,o),
(-108,-141,o),
(-119,-137,c),
(-132,-199,l),
(-117,-204,o),
(-96,-207,o),
(-80,-207,cs)
);
}
);
userData = {
SBAlt = right;
com.typemytype.robofont.guideline.magnetic.I8W9tlf4Hl = 5;
com.typemytype.robofont.guideline.magnetic.JgWxigOrnU = 5;
com.typemytype.robofont.guideline.magnetic.P1CmYF1M0X = 5;
com.typemytype.robofont.guideline.magnetic.wEVaqWZ15I = 5;
com.typemytype.robofont.guideline.magnetic.zc08ofHgWS = 5;
};
width = 198;
},
{
layerId = "0A8B8749-808B-4003-9378-5450DA0F5EBF";
shapes = (
{
closed = 1;
nodes = (
(256,578,o),
(302,624,o),
(302,678,cs),
(302,722,o),
(268,756,o),
(224,756,cs),
(172,756,o),
(126,710,o),
(126,656,cs),
(126,612,o),
(160,578,o),
(204,578,cs)
);
},
{
closed = 1;
nodes = (
(46,-218,o),
(117,-162,o),
(139,-61,cs),
(265,529,l),
(105,529,l),
(-17,-44,ls),
(-23,-74,o),
(-41,-88,o),
(-72,-88,cs),
(-96,-88,o),
(-110,-86,o),
(-126,-82,c),
(-152,-203,l),
(-132,-211,o),
(-89,-218,o),
(-59,-218,cs)
);
}
);
userData = {
SBAlt = right;
com.typemytype.robofont.guideline.magnetic.I8W9tlf4Hl = 5;
com.typemytype.robofont.guideline.magnetic.JgWxigOrnU = 5;
com.typemytype.robofont.guideline.magnetic.P1CmYF1M0X = 5;
com.typemytype.robofont.guideline.magnetic.wEVaqWZ15I = 5;
com.typemytype.robofont.guideline.magnetic.zc08ofHgWS = 5;
};
width = 257;
}
);
unicode = 106;
},
{
glyphname = jdotless;
kernLeft = n;
kernRight = q;
lastChange = "2024-11-06 23:03:50 +0000";
layers = (
{
anchors = (
{
name = top;
pos = (142,492);
}
);
layerId = m001;
shapes = (
{
closed = 1;
nodes = (
(-22,-214,o),
(24,-173,o),
(38,-105,cs),
(164,492,l),
(121,492,l),
(-3,-95,ls),
(-14,-146,o),
(-37,-171,o),
(-79,-171,cs),
(-92,-171,o),
(-106,-170,o),
(-118,-165,c),
(-127,-209,l),
(-114,-212,o),
(-100,-214,o),
(-87,-214,cs)
);
}
);
userData = {
SBAlt = right;
com.typemytype.robofont.guideline.magnetic.I8W9tlf4Hl = 5;
com.typemytype.robofont.guideline.magnetic.JgWxigOrnU = 5;
com.typemytype.robofont.guideline.magnetic.P1CmYF1M0X = 5;
com.typemytype.robofont.guideline.magnetic.wEVaqWZ15I = 5;
com.typemytype.robofont.guideline.magnetic.zc08ofHgWS = 5;
};
width = 178;
},
{
anchors = (
{
name = top;
pos = (152,501);
}
);
layerId = "C55C9F18-A1E0-4E6D-8952-C5F71D844606";
shapes = (
{
closed = 1;
nodes = (
(-5,-207,o),
(47,-164,o),
(63,-87,cs),
(188,501,l),
(116,501,l),
(-7,-78,ls),
(-17,-124,o),
(-37,-143,o),
(-77,-143,cs),
(-94,-143,o),
(-108,-141,o),
(-119,-137,c),
(-132,-199,l),
(-117,-204,o),
(-96,-207,o),
(-80,-207,cs)
);
}
);
userData = {
SBAlt = right;
com.typemytype.robofont.guideline.magnetic.I8W9tlf4Hl = 5;
com.typemytype.robofont.guideline.magnetic.JgWxigOrnU = 5;
com.typemytype.robofont.guideline.magnetic.P1CmYF1M0X = 5;
com.typemytype.robofont.guideline.magnetic.wEVaqWZ15I = 5;
com.typemytype.robofont.guideline.magnetic.zc08ofHgWS = 5;
};
width = 198;
},
{
anchors = (
{
name = top;
pos = (185,529);
}
);
layerId = "0A8B8749-808B-4003-9378-5450DA0F5EBF";
shapes = (
{
closed = 1;
nodes = (
(46,-218,o),
(117,-162,o),
(139,-61,cs),
(265,529,l),
(105,529,l),
(-17,-44,ls),
(-23,-74,o),
(-41,-88,o),
(-72,-88,cs),
(-96,-88,o),
(-110,-86,o),
(-126,-82,c),
(-152,-203,l),
(-132,-211,o),
(-89,-218,o),
(-59,-218,cs)
);
}
);
userData = {
SBAlt = right;
com.typemytype.robofont.guideline.magnetic.I8W9tlf4Hl = 5;
com.typemytype.robofont.guideline.magnetic.JgWxigOrnU = 5;
com.typemytype.robofont.guideline.magnetic.P1CmYF1M0X = 5;
com.typemytype.robofont.guideline.magnetic.wEVaqWZ15I = 5;
com.typemytype.robofont.guideline.magnetic.zc08ofHgWS = 5;
};
width = 257;
}
);
unicode = 567;
},
{
glyphname = k;
kernLeft = b;
kernRight = k;
lastChange = "2024-11-06 22:48:16 +0000";
layers = (
{
anchors = (
{
name = bottom;
pos = (175,0);
}
);
guides = (
{
angle = 78;
pos = (120,486);
userData = {
UFO.identifier = irZJMcBGLu;
};
}
);
layerId = m001;
shapes = (
{
closed = 1;
nodes = (
(59,0,l),
(111,245,l),
(343,0,l),
(402,0,l),
(157,256,l),
(494,492,l),
(423,492,l),
(117,274,l),
(210,711,l),
(165,700,l),
(16,0,l)
);
}
);
width = 453;
},
{
anchors = (
{
name = bottom;
pos = (198,0);
}
);
layerId = "C55C9F18-A1E0-4E6D-8952-C5F71D844606";
shapes = (
{
closed = 1;
nodes = (
(82,0,l),
(133,241,l),
(348,0,l),
(438,0,l),
(207,257,l),
(539,501,l),
(440,501,l),
(142,282,l),
(234,717,l),
(159,700,l),
(10,0,l)
);
}
);
width = 485;
},
{
anchors = (
{
name = bottom;
pos = (241,0);
}
);
layerId = "0A8B8749-808B-4003-9378-5450DA0F5EBF";
shapes = (
{
closed = 1;
nodes = (
(152,0,l),
(200,227,l),
(361,0,l),
(552,0,l),
(353,263,l),
(649,529,l),
(456,529,l),
(216,303,l),
(308,735,l),
(142,700,l),
(-7,0,l)
);
}
);
width = 585;
}
);
unicode = 107;
},
{
glyphname = kgreenlandic;
kernLeft = n;
kernRight = k;
lastChange = "2024-11-06 22:48:16 +0000";
layers = (
{
guides = (
{
angle = 78;
pos = (107,430);
userData = {
UFO.identifier = dk0cFixnh8;
};
}
);
layerId = m001;
shapes = (
{
closed = 1;
nodes = (
(59,0,l),
(111,245,l),
(343,0,l),
(402,0,l),
(157,256,l),
(504,492,l),
(433,492,l),
(117,274,l),
(164,492,l),
(121,492,l),
(16,0,l)
);
}
);
width = 453;
},
{
layerId = "C55C9F18-A1E0-4E6D-8952-C5F71D844606";
shapes = (
{
closed = 1;
nodes = (
(82,0,l),
(132,237,l),
(339,0,l),
(430,0,l),
(207,254,l),
(543,501,l),
(445,501,l),
(141,277,l),
(188,501,l),
(116,501,l),
(10,0,l)
);
}
);
width = 485;
},
{
layerId = "0A8B8749-808B-4003-9378-5450DA0F5EBF";
shapes = (
{
closed = 1;
nodes = (
(152,0,l),
(200,227,l),
(361,0,l),
(552,0,l),
(353,263,l),
(649,529,l),
(456,529,l),
(216,303,l),
(264,529,l),
(106,529,l),
(-7,0,l)
);
}
);
width = 585;
}
);
unicode = 312;
},
{
glyphname = l;
kernLeft = b;
kernRight = d;
lastChange = "2024-11-15 10:48:54 +0000";
layers = (
{
anchors = (
{
name = bottom;
pos = (37,0);
},
{
name = top;
pos = (186,700);
},
{
name = topright;
pos = (292,711);
}
);
guides = (
{
angle = 78;
pos = (37,0);
userData = {
UFO.identifier = NDvAqCDijy;
};
}
);
layerId = m001;
shapes = (
{
closed = 1;
nodes = (
(59,0,l),
(210,711,l),
(165,700,l),
(16,0,l)
);
}
);
userData = {
SBAlt = left;
};
width = 178;
},
{
anchors = (
{
name = bottom;
pos = (45,0);
},
{
name = top;
pos = (194,700);
},
{
name = topright;
pos = (227,707);
}
);
layerId = "C55C9F18-A1E0-4E6D-8952-C5F71D844606";
shapes = (
{
closed = 1;
nodes = (
(82,0,l),
(234,717,l),
(159,700,l),
(10,0,l)
);
}
);
userData = {
SBAlt = left;
};
width = 198;
},
{
anchors = (
{
name = bottom;
pos = (72,0);
},
{
name = top;
pos = (221,700);
},
{
name = topright;
pos = (288,735);
}
);
layerId = "0A8B8749-808B-4003-9378-5450DA0F5EBF";
shapes = (
{
closed = 1;
nodes = (
(152,0,l),
(308,735,l),
(142,700,l),
(-7,0,l)
);
}
);
userData = {
SBAlt = left;
};
width = 257;
}
);
unicode = 108;
},
{
glyphname = lslash;
kernLeft = b;
lastChange = "2024-11-06 22:48:16 +0000";
layers = (
{
layerId = m001;
shapes = (
{
closed = 1;
nodes = (
(79,0,l),
(159,377,l),
(256,449,l),
(267,500,l),
(170,428,l),
(230,711,l),
(185,700,l),
(119,391,l),
(32,326,l),
(21,274,l),
(108,339,l),
(36,0,l)
);
}
);
width = 214;
},
{
layerId = "C55C9F18-A1E0-4E6D-8952-C5F71D844606";
shapes = (
{
closed = 1;
nodes = (
(103,0,l),
(182,372,l),
(272,435,l),
(288,510,l),
(198,447,l),
(255,717,l),
(180,700,l),
(113,387,l),
(29,328,l),
(13,254,l),
(98,313,l),
(31,0,l)
);
}
);
width = 236;
},
{
layerId = "0A8B8749-808B-4003-9378-5450DA0F5EBF";
shapes = (
{
closed = 1;
nodes = (
(177,0,l),
(251,347,l),
(327,393,l),
(358,538,l),
(281,492,l),
(333,735,l),
(167,700,l),
(99,382,l),
(23,336,l),
(-8,191,l),
(68,237,l),
(18,0,l)
);
}
);
width = 302;
}
);
unicode = 322;
},
{
glyphname = m;
kernLeft = n;
kernRight = n;
lastChange = "2024-11-06 22:48:16 +0000";
layers = (
{
guides = (
{
angle = 78;
pos = (734,137);
userData = {
UFO.identifier = yqfIR87V9v;
};
}
);
layerId = m001;
shapes = (
{
closed = 1;
nodes = (
(59,0,l),
(139,376,l),
(180,429,o),
(234,461,o),
(294,461,cs),
(378,461,o),
(423,396,o),
(402,296,cs),
(339,0,l),
(382,0,l),
(447,307,ls),
(451,326,o),
(453,345,o),
(452,362,c),
(501,427,o),
(558,461,o),
(618,461,cs),
(701,461,o),
(746,396,o),
(727,305,cs),
(662,0,l),
(705,0,l),
(770,307,ls),
(794,422,o),
(730,502,o),
(627,502,cs),
(562,502,o),
(505,471,o),
(445,402,c),
(427,463,o),
(373,502,o),
(303,502,cs),
(245,502,o),
(196,479,o),
(151,433,c),
(164,492,l),
(121,492,l),
(16,0,l)
);
}
);
userData = {
com.typemytype.robofont.guideline.magnetic.h213klWP2W = 5;
com.typemytype.robofont.guideline.magnetic.hJe8b2OHQ9 = 5;
com.typemytype.robofont.guideline.magnetic.hXWrlkj5cU = 5;
};
width = 821;
},
{
layerId = "C55C9F18-A1E0-4E6D-8952-C5F71D844606";
shapes = (
{
closed = 1;
nodes = (
(82,0,l),
(161,374,l),
(201,421,o),
(248,446,o),
(298,446,cs),
(376,446,o),
(416,385,o),
(396,297,cs),
(333,0,l),
(405,0,l),
(471,309,ls),
(475,327,o),
(476,345,o),
(476,361,c),
(522,418,o),
(570,446,o),
(623,446,cs),
(699,446,o),
(739,387,o),
(722,304,cs),
(657,0,l),
(729,0,l),
(794,309,ls),
(819,425,o),
(757,510,o),
(647,510,cs),
(580,510,o),
(521,479,o),
(466,415,c),
(445,473,o),
(394,510,o),
(323,510,cs),
(269,510,o),
(220,490,o),
(177,449,c),
(188,501,l),
(116,501,l),
(10,0,l)
);
}
);
userData = {
com.typemytype.robofont.guideline.magnetic.h213klWP2W = 5;
com.typemytype.robofont.guideline.magnetic.hJe8b2OHQ9 = 5;
com.typemytype.robofont.guideline.magnetic.hXWrlkj5cU = 5;
};
width = 842;
},
{
layerId = "0A8B8749-808B-4003-9378-5450DA0F5EBF";
shapes = (
{
closed = 1;
nodes = (
(152,0,l),
(228,361,l),
(255,387,o),
(283,400,o),
(314,400,cs),
(368,400,o),
(395,360,o),
(383,300,cs),
(319,0,l),
(478,0,l),
(545,315,ls),
(548,329,o),
(550,343,o),
(551,356,c),
(578,386,o),
(608,400,o),
(641,400,cs),
(694,400,o),
(722,359,o),
(710,300,cs),
(646,0,l),
(805,0,l),
(872,315,ls),
(899,442,o),
(831,537,o),
(712,537,cs),
(644,537,o),
(581,509,o),
(530,457,c),
(503,506,o),
(452,537,o),
(386,537,cs),
(340,537,o),
(296,522,o),
(256,493,c),
(264,529,l),
(105,529,l),
(-7,0,l)
);
}
);
userData = {
com.typemytype.robofont.guideline.magnetic.h213klWP2W = 5;
com.typemytype.robofont.guideline.magnetic.hJe8b2OHQ9 = 5;
com.typemytype.robofont.guideline.magnetic.hXWrlkj5cU = 5;
};
width = 906;
}
);
unicode = 109;
},
{
glyphname = n;
kernLeft = n;
kernRight = n;
lastChange = "2024-11-06 22:48:16 +0000";
layers = (
{
anchors = (
{
name = bottom;
pos = (208,0);
},
{
name = top;
pos = (312,492);
}
);
guides = (
{
angle = 78;
pos = (520,550);
userData = {
UFO.identifier = cI2v9Cx5HW;
};
}
);
layerId = m001;
shapes = (
{
closed = 1;
nodes = (
(59,0,l),
(140,380,l),
(179,430,o),
(237,461,o),
(300,461,cs),
(395,461,o),
(444,395,o),
(422,291,cs),
(360,0,l),
(403,0,l),
(466,297,ls),
(492,420,o),
(420,502,o),
(308,502,cs),
(248,502,o),
(196,480,o),
(152,434,c),
(164,492,l),
(121,492,l),
(16,0,l)
);
}
);
userData = {
com.typemytype.robofont.guideline.magnetic.AJJrn0CVsR = 5;
com.typemytype.robofont.guideline.magnetic.GC7nEb8Tyw = 5;
com.typemytype.robofont.guideline.magnetic.dWiVVKb1gu = 5;
};
width = 519;
},
{
anchors = (
{
name = bottom;
pos = (218,0);
},
{
name = top;
pos = (322,501);
}
);
layerId = "C55C9F18-A1E0-4E6D-8952-C5F71D844606";
shapes = (
{
closed = 1;
nodes = (
(82,0,l),
(162,376,l),
(200,421,o),
(250,446,o),
(305,446,cs),
(392,446,o),
(436,385,o),
(416,293,cs),
(354,0,l),
(426,0,l),
(490,302,ls),
(515,422,o),
(447,510,o),
(329,510,cs),
(272,510,o),
(221,490,o),
(177,451,c),
(188,501,l),
(116,501,l),
(10,0,l)
);
}
);
userData = {
com.typemytype.robofont.guideline.magnetic.AJJrn0CVsR = 5;
com.typemytype.robofont.guideline.magnetic.GC7nEb8Tyw = 5;
com.typemytype.robofont.guideline.magnetic.dWiVVKb1gu = 5;
};
width = 539;
},
{
anchors = (
{
name = bottom;
pos = (244,0);
},
{
name = top;
pos = (356,529);
}
);
layerId = "0A8B8749-808B-4003-9378-5450DA0F5EBF";
shapes = (
{
closed = 1;
nodes = (
(152,0,l),
(228,361,l),
(255,387,o),
(287,400,o),
(324,400,cs),
(383,400,o),
(415,360,o),
(403,300,cs),
(339,0,l),
(498,0,l),
(565,315,ls),
(592,443,o),
(521,537,o),
(395,537,cs),
(345,537,o),
(299,523,o),
(257,496,c),
(264,529,l),
(105,529,l),
(-7,0,l)
);
}
);
userData = {
com.typemytype.robofont.guideline.magnetic.AJJrn0CVsR = 5;
com.typemytype.robofont.guideline.magnetic.GC7nEb8Tyw = 5;
com.typemytype.robofont.guideline.magnetic.dWiVVKb1gu = 5;
};
width = 599;
}
);
unicode = 110;
},
{
glyphname = eng;
kernLeft = n;
kernRight = n;
lastChange = "2024-11-06 22:48:16 +0000";
layers = (
{
layerId = m001;
shapes = (
{
closed = 1;
nodes = (
(321,-214,o),
(367,-173,o),
(381,-105,cs),
(466,297,ls),
(492,420,o),
(420,502,o),
(308,502,cs),
(248,502,o),
(196,480,o),
(152,434,c),
(164,492,l),
(121,492,l),
(16,0,l),
(59,0,l),
(140,380,l),
(179,430,o),
(237,461,o),
(300,461,cs),
(395,461,o),
(444,395,o),
(422,291,cs),
(340,-95,ls),
(329,-147,o),
(306,-171,o),
(264,-171,cs),
(251,-171,o),
(237,-170,o),
(225,-165,c),
(216,-209,l),
(229,-212,o),
(243,-214,o),
(256,-214,cs)
);
}
);
width = 519;
},
{
layerId = "C55C9F18-A1E0-4E6D-8952-C5F71D844606";
shapes = (
{
closed = 1;
nodes = (
(340,-207,o),
(391,-163,o),
(407,-87,cs),
(491,305,ls),
(516,423,o),
(448,510,o),
(329,510,cs),
(272,510,o),
(221,490,o),
(177,451,c),
(188,501,l),
(116,501,l),
(10,0,l),
(82,0,l),
(162,376,l),
(200,421,o),
(250,446,o),
(305,446,cs),
(391,446,o),
(436,385,o),
(416,294,cs),
(338,-78,ls),
(328,-124,o),
(307,-143,o),
(268,-143,cs),
(249,-143,o),
(237,-141,o),
(226,-137,c),
(212,-199,l),
(226,-204,o),
(248,-207,o),
(265,-207,cs)
);
}
);
width = 538;
},
{
layerId = "0A8B8749-808B-4003-9378-5450DA0F5EBF";
shapes = (
{
closed = 1;
nodes = (
(392,-218,o),
(464,-161,o),
(485,-61,cs),
(565,315,ls),
(592,443,o),
(521,537,o),
(395,537,cs),
(345,537,o),
(299,523,o),
(257,496,c),
(264,529,l),
(105,529,l),
(-7,0,l),
(152,0,l),
(228,361,l),
(255,387,o),
(287,400,o),
(324,400,cs),
(383,400,o),
(415,360,o),
(403,300,cs),
(329,-44,ls),
(322,-74,o),
(305,-88,o),
(274,-88,cs),
(250,-88,o),
(236,-86,o),
(220,-82,c),
(194,-203,l),
(214,-211,o),
(257,-218,o),
(287,-218,cs)
);
}
);
width = 598;
}
);
unicode = 331;
},
{
glyphname = o;
kernLeft = o;
kernRight = o;
lastChange = "2024-11-14 17:27:56 +0000";
layers = (
{
anchors = (
{
name = top;
pos = (320,492);
}
);
layerId = m001;
shapes = (
{
closed = 1;
nodes = (
(404,-10,o),
(527,120,o),
(527,273,cs),
(527,401,o),
(434,502,o),
(312,502,cs),
(167,502,o),
(43,371,o),
(43,219,cs),
(43,90,o),
(137,-10,o),
(258,-10,cs)
);
},
{
closed = 1;
nodes = (
(161,32,o),
(87,112,o),
(87,219,cs),
(87,347,o),
(191,460,o),
(308,460,cs),
(409,460,o),
(483,380,o),
(483,273,cs),
(483,145,o),
(379,32,o),
(262,32,cs)
);
}
);
userData = {
com.typemytype.robofont.guideline.magnetic.ti1pkfhnBE = 5;
com.typemytype.robofont.guideline.magnetic.xBKVV7HV8o = 5;
com.typemytype.robofont.guideline.magnetic.xILeKg2kOl = 5;
};
width = 569;
},
{
anchors = (
{
name = top;
pos = (314,501);
}
);
layerId = "C55C9F18-A1E0-4E6D-8952-C5F71D844606";
shapes = (
{
closed = 1;
nodes = (
(418,-10,o),
(541,119,o),
(541,272,cs),
(541,409,o),
(441,511,o),
(308,511,cs),
(162,511,o),
(39,382,o),
(39,229,cs),
(39,92,o),
(138,-10,o),
(272,-10,cs)
);
},
{
closed = 1;
nodes = (
(180,56,o),
(110,132,o),
(110,233,cs),
(110,348,o),
(199,445,o),
(305,445,cs),
(399,445,o),
(470,369,o),
(470,268,cs),
(470,153,o),
(381,56,o),
(275,56,cs)
);
}
);
userData = {
com.typemytype.robofont.guideline.magnetic.ti1pkfhnBE = 5;
com.typemytype.robofont.guideline.magnetic.xBKVV7HV8o = 5;
com.typemytype.robofont.guideline.magnetic.xILeKg2kOl = 5;
};
width = 581;
},
{
anchors = (
{
name = top;
pos = (335,529);
}
);
layerId = "0A8B8749-808B-4003-9378-5450DA0F5EBF";
shapes = (
{
closed = 1;
nodes = (
(455,-10,o),
(591,124,o),
(591,284,cs),
(591,429,o),
(477,539,o),
(326,539,cs),
(162,539,o),
(26,406,o),
(26,245,cs),
(26,100,o),
(140,-10,o),
(292,-10,cs)
);
},
{
closed = 1;
nodes = (
(231,130,o),
(182,181,o),
(182,252,cs),
(182,333,o),
(243,399,o),
(318,399,cs),
(386,399,o),
(435,348,o),
(435,277,cs),
(435,196,o),
(374,130,o),
(299,130,cs)
);
}
);
userData = {
com.typemytype.robofont.guideline.magnetic.ti1pkfhnBE = 5;
com.typemytype.robofont.guideline.magnetic.xBKVV7HV8o = 5;
com.typemytype.robofont.guideline.magnetic.xILeKg2kOl = 5;
};
width = 617;
}
);
unicode = 111;
},
{
glyphname = oslash;
kernLeft = o;
kernRight = o;
lastChange = "2024-11-06 22:48:16 +0000";
layers = (
{
layerId = m001;
shapes = (
{
closed = 1;
nodes = (
(404,-10,o),
(527,120,o),
(527,273,cs),
(527,326,o),
(511,374,o),
(484,412,c),
(566,492,l),
(509,492,l),
(458,442,l),
(420,480,o),
(369,502,o),
(312,502,cs),
(167,502,o),
(43,371,o),
(43,219,cs),
(43,166,o),
(59,118,o),
(86,80,c),
(4,0,l),
(60,0,l),
(111,50,l),
(149,12,o),
(201,-10,o),
(258,-10,cs)
);
},
{
closed = 1;
nodes = (
(98,141,o),
(87,178,o),
(87,219,cs),
(87,347,o),
(191,460,o),
(308,460,cs),
(355,460,o),
(397,442,o),
(427,413,c),
(117,110,l)
);
},
{
closed = 1;
nodes = (
(214,32,o),
(173,50,o),
(142,80,c),
(453,382,l),
(472,352,o),
(483,314,o),
(483,273,cs),
(483,145,o),
(379,32,o),
(262,32,cs)
);
}
);
width = 568;
},
{
layerId = "C55C9F18-A1E0-4E6D-8952-C5F71D844606";
shapes = (
{
closed = 1;
nodes = (
(418,-10,o),
(541,119,o),
(541,272,cs),
(541,328,o),
(524,378,o),
(496,418,c),
(581,501,l),
(510,501,l),
(462,454,l),
(422,490,o),
(368,511,o),
(308,511,cs),
(162,511,o),
(39,382,o),
(39,229,cs),
(39,173,o),
(55,123,o),
(84,83,c),
(-1,0,l),
(69,0,l),
(117,47,l),
(157,11,o),
(211,-10,o),
(272,-10,cs)
);
},
{
closed = 1;
nodes = (
(119,162,o),
(110,196,o),
(110,233,cs),
(110,348,o),
(199,445,o),
(305,445,cs),
(347,445,o),
(384,430,o),
(412,405,c),
(136,134,l)
);
},
{
closed = 1;
nodes = (
(233,56,o),
(196,71,o),
(167,96,c),
(444,367,l),
(460,339,o),
(470,305,o),
(470,268,cs),
(470,153,o),
(381,56,o),
(275,56,cs)
);
}
);
width = 580;
},
{
layerId = "0A8B8749-808B-4003-9378-5450DA0F5EBF";
shapes = (
{
closed = 1;
nodes = (
(455,-10,o),
(591,124,o),
(591,284,cs),
(591,343,o),
(572,397,o),
(539,439,c),
(629,529,l),
(516,529,l),
(481,494,l),
(438,522,o),
(385,539,o),
(326,539,cs),
(162,539,o),
(26,406,o),
(26,245,cs),
(26,186,o),
(45,132,o),
(78,90,c),
(-12,0,l),
(100,0,l),
(136,36,l),
(179,7,o),
(233,-10,o),
(292,-10,cs)
);
},
{
closed = 1;
nodes = (
(185,218,o),
(182,234,o),
(182,252,cs),
(182,333,o),
(243,399,o),
(318,399,cs),
(338,399,o),
(357,394,o),
(373,386,c),
(191,203,l)
);
},
{
closed = 1;
nodes = (
(278,130,o),
(260,135,o),
(243,143,c),
(426,326,l),
(432,311,o),
(435,295,o),
(435,277,cs),
(435,196,o),
(374,130,o),
(299,130,cs)
);
}
);
width = 618;
}
);
unicode = 248;
},
{
glyphname = oe;
kernLeft = o;
kernRight = e;
lastChange = "2024-11-06 22:48:16 +0000";
layers = (
{
layerId = m001;
shapes = (
{
closed = 1;
nodes = (
(360,-10,o),
(451,55,o),
(496,147,c),
(524,54,o),
(607,-10,o),
(703,-10,cs),
(763,-10,o),
(827,8,o),
(876,40,c),
(852,76,l),
(808,49,o),
(757,32,o),
(705,32,cs),
(599,32,o),
(522,117,o),
(527,234,c),
(939,234,l),
(940,242,o),
(942,273,o),
(942,280,cs),
(942,407,o),
(862,502,o),
(746,502,c),
(645,502,o),
(557,439,o),
(514,348,c),
(485,438,o),
(407,502,o),
(312,502,cs),
(167,502,o),
(43,371,o),
(43,219,cs),
(43,90,o),
(137,-10,o),
(258,-10,cs)
);
},
{
closed = 1;
nodes = (
(556,382,o),
(641,460,o),
(742,460,c),
(842,460,o),
(904,375,o),
(899,276,c),
(533,276,l)
);
},
{
closed = 1;
nodes = (
(161,32,o),
(87,112,o),
(87,219,cs),
(87,347,o),
(191,460,o),
(308,460,cs),
(409,460,o),
(483,380,o),
(483,273,cs),
(483,145,o),
(379,32,o),
(262,32,cs)
);
}
);
width = 979;
},
{
layerId = "C55C9F18-A1E0-4E6D-8952-C5F71D844606";
shapes = (
{
closed = 1;
nodes = (
(364,-10,o),
(446,42,o),
(495,118,c),
(532,40,o),
(611,-9,o),
(711,-9,cs),
(775,-9,o),
(832,7,o),
(887,45,c),
(848,96,l),
(812,70,o),
(763,55,o),
(714,55,cs),
(617,55,o),
(543,128,o),
(541,228,c),
(942,228,l),
(944,244,o),
(945,259,o),
(945,273,cs),
(945,408,o),
(854,509,o),
(731,509,c),
(641,509,o),
(561,458,o),
(515,383,c),
(478,460,o),
(401,511,o),
(308,511,cs),
(162,511,o),
(39,382,o),
(39,229,cs),
(39,92,o),
(138,-10,o),
(272,-10,cs)
);
},
{
closed = 1;
nodes = (
(569,377,o),
(641,444,o),
(725,444,c),
(808,444,o),
(869,378,o),
(875,287,c),
(547,287,l)
);
},
{
closed = 1;
nodes = (
(180,56,o),
(110,132,o),
(110,233,cs),
(110,348,o),
(199,445,o),
(305,445,cs),
(399,445,o),
(470,369,o),
(470,268,cs),
(470,153,o),
(381,56,o),
(275,56,cs)
);
}
);
width = 982;
},
{
layerId = "0A8B8749-808B-4003-9378-5450DA0F5EBF";
shapes = (
{
closed = 1;
nodes = (
(374,-10,o),
(448,25,o),
(502,82,c),
(549,24,o),
(622,-11,o),
(709,-11,cs),
(788,-11,o),
(849,9,o),
(916,58,c),
(827,159,l),
(800,135,o),
(764,122,o),
(722,122,cs),
(658,122,o),
(611,157,o),
(595,210,c),
(965,210,l),
(970,251,o),
(971,265,o),
(971,280,cs),
(971,431,o),
(871,537,o),
(727,537,c),
(649,537,o),
(577,503,o),
(526,448,c),
(480,504,o),
(408,539,o),
(326,539,cs),
(162,539,o),
(26,406,o),
(26,245,cs),
(26,100,o),
(140,-10,o),
(292,-10,cs)
);
},
{
closed = 1;
nodes = (
(626,371,o),
(668,404,o),
(720,404,c),
(770,404,o),
(808,372,o),
(822,322,c),
(604,322,l)
);
},
{
closed = 1;
nodes = (
(231,130,o),
(182,181,o),
(182,252,cs),
(182,333,o),
(243,399,o),
(318,399,cs),
(386,399,o),
(435,348,o),
(435,277,cs),
(435,196,o),
(374,130,o),
(299,130,cs)
);
}
);
width = 999;
}
);
unicode = 339;
},
{
glyphname = p;
kernLeft = n;
kernRight = o;
lastChange = "2024-11-06 22:48:16 +0000";
layers = (
{
layerId = m001;
shapes = (
{
closed = 1;
nodes = (
(16,-204,l),
(75,72,l),
(113,21,o),
(177,-10,o),
(249,-10,cs),
(397,-10,o),
(518,118,o),
(518,274,cs),
(518,405,o),
(427,502,o),
(302,502,cs),
(250,502,o),
(200,485,o),
(156,451,c),
(164,492,l),
(121,492,l),
(-27,-204,l)
);
},
{
closed = 1;
nodes = (
(177,32,o),
(111,71,o),
(86,126,c),
(143,397,l),
(184,437,o),
(239,460,o),
(295,460,cs),
(400,460,o),
(474,382,o),
(474,271,cs),
(474,139,o),
(373,32,o),
(248,32,cs)
);
}
);
userData = {
com.typemytype.robofont.guideline.magnetic.0gOtco4sOe = 5;
com.typemytype.robofont.guideline.magnetic.AHE6RNoQoA = 5;
com.typemytype.robofont.guideline.magnetic.VMcsyYy48A = 5;
};
width = 560;
},
{
layerId = "C55C9F18-A1E0-4E6D-8952-C5F71D844606";
shapes = (
{
closed = 1;
nodes = (
(38,-204,l),
(95,64,l),
(136,17,o),
(196,-9,o),
(264,-9,cs),
(416,-9,o),
(539,120,o),
(539,278,cs),
(539,410,o),
(445,508,o),
(318,508,cs),
(269,508,o),
(222,493,o),
(180,465,c),
(188,501,l),
(116,501,l),
(-34,-204,l)
);
},
{
closed = 1;
nodes = (
(196,57,o),
(138,89,o),
(111,138,c),
(165,390,l),
(202,424,o),
(251,443,o),
(303,443,cs),
(399,443,o),
(468,372,o),
(468,272,cs),
(468,153,o),
(377,57,o),
(262,57,cs)
);
}
);
userData = {
com.typemytype.robofont.guideline.magnetic.0gOtco4sOe = 5;
com.typemytype.robofont.guideline.magnetic.AHE6RNoQoA = 5;
com.typemytype.robofont.guideline.magnetic.VMcsyYy48A = 5;
};
width = 578;
},
{
layerId = "0A8B8749-808B-4003-9378-5450DA0F5EBF";
shapes = (
{
closed = 1;
nodes = (
(108,-204,l),
(162,45,l),
(202,11,o),
(254,-7,o),
(313,-7,cs),
(477,-7,o),
(609,125,o),
(609,290,cs),
(609,429,o),
(506,536,o),
(373,536,cs),
(332,536,o),
(293,526,o),
(257,506,c),
(262,529,l),
(105,529,l),
(-51,-204,l)
);
},
{
closed = 1;
nodes = (
(259,131,o),
(217,150,o),
(191,181,c),
(230,365,l),
(258,388,o),
(291,399,o),
(329,399,cs),
(401,399,o),
(454,346,o),
(454,276,cs),
(454,195,o),
(390,131,o),
(307,131,cs)
);
}
);
userData = {
com.typemytype.robofont.guideline.magnetic.0gOtco4sOe = 5;
com.typemytype.robofont.guideline.magnetic.AHE6RNoQoA = 5;
com.typemytype.robofont.guideline.magnetic.VMcsyYy48A = 5;
};
width = 635;
}
);
unicode = 112;
},
{
glyphname = thorn;
kernLeft = b;
kernRight = o;
lastChange = "2024-11-06 22:48:16 +0000";
layers = (
{
guides = (
{
angle = 78;
pos = (95,364);
userData = {
UFO.identifier = EFhl2XSQWb;
};
}
);
layerId = m001;
shapes = (
{
closed = 1;
nodes = (
(16,-204,l),
(75,72,l),
(113,21,o),
(177,-10,o),
(249,-10,cs),
(397,-10,o),
(518,118,o),
(518,274,cs),
(518,405,o),
(427,502,o),
(302,502,cs),
(250,502,o),
(200,485,o),
(156,452,c),
(210,711,l),
(165,700,l),
(-27,-204,l)
);
},
{
closed = 1;
nodes = (
(400,460,o),
(474,382,o),
(474,271,cs),
(474,139,o),
(373,32,o),
(248,32,cs),
(177,32,o),
(111,71,o),
(86,126,c),
(143,397,l),
(184,437,o),
(239,460,o),
(295,460,cs)
);
}
);
width = 560;
},
{
layerId = "C55C9F18-A1E0-4E6D-8952-C5F71D844606";
shapes = (
{
closed = 1;
nodes = (
(38,-205,l),
(95,64,l),
(136,17,o),
(196,-9,o),
(264,-9,cs),
(416,-9,o),
(539,120,o),
(539,278,cs),
(539,410,o),
(445,508,o),
(318,508,cs),
(269,508,o),
(222,494,o),
(181,466,c),
(234,717,l),
(159,700,l),
(-34,-205,l)
);
},
{
closed = 1;
nodes = (
(399,443,o),
(468,372,o),
(468,272,cs),
(468,153,o),
(377,57,o),
(262,57,cs),
(196,57,o),
(138,89,o),
(111,138,c),
(164,390,l),
(202,424,o),
(251,443,o),
(303,443,cs)
);
}
);
width = 577;
},
{
layerId = "0A8B8749-808B-4003-9378-5450DA0F5EBF";
shapes = (
{
closed = 1;
nodes = (
(107,-211,l),
(161,45,l),
(202,11,o),
(254,-7,o),
(313,-7,cs),
(477,-7,o),
(609,125,o),
(609,290,cs),
(609,429,o),
(506,536,o),
(373,536,cs),
(333,536,o),
(295,526,o),
(260,508,c),
(308,735,l),
(142,700,l),
(-52,-211,l)
);
},
{
closed = 1;
nodes = (
(401,399,o),
(454,346,o),
(454,276,cs),
(454,195,o),
(390,131,o),
(307,131,cs),
(259,131,o),
(216,150,o),
(190,182,c),
(229,365,l),
(258,388,o),
(291,399,o),
(329,399,cs)
);
}
);
width = 635;
}
);
unicode = 254;
},
{
glyphname = q;
kernLeft = o;
kernRight = q;
lastChange = "2024-11-06 22:48:16 +0000";
layers = (
{
layerId = m001;
shapes = (
{
closed = 1;
nodes = (
(397,-204,l),
(545,492,l),
(502,492,l),
(486,420,l),
(448,471,o),
(384,502,o),
(312,502,cs),
(164,502,o),
(43,374,o),
(43,218,cs),
(43,87,o),
(134,-10,o),
(259,-10,cs),
(311,-10,o),
(361,7,o),
(406,41,c),
(354,-204,l)
);
},
{
closed = 1;
nodes = (
(161,32,o),
(87,110,o),
(87,221,cs),
(87,353,o),
(188,460,o),
(313,460,cs),
(384,460,o),
(449,422,o),
(475,367,c),
(417,95,l),
(376,55,o),
(322,32,o),
(266,32,cs)
);
}
);
userData = {
com.typemytype.robofont.guideline.magnetic.EVwhXz5CDB = 5;
com.typemytype.robofont.guideline.magnetic.JRDHbdPpde = 5;
com.typemytype.robofont.guideline.magnetic.Vkm6xmu5Gk = 5;
};
width = 560;
},
{
layerId = "C55C9F18-A1E0-4E6D-8952-C5F71D844606";
shapes = (
{
closed = 1;
nodes = (
(419,-204,l),
(568,501,l),
(497,501,l),
(483,436,l),
(442,482,o),
(382,508,o),
(314,508,cs),
(161,508,o),
(38,379,o),
(38,222,cs),
(38,90,o),
(132,-8,o),
(259,-8,cs),
(309,-8,o),
(356,7,o),
(398,35,c),
(347,-204,l)
);
},
{
closed = 1;
nodes = (
(178,56,o),
(109,128,o),
(109,228,cs),
(109,347,o),
(201,443,o),
(316,443,cs),
(381,443,o),
(440,411,o),
(467,363,c),
(414,111,l),
(376,76,o),
(327,56,o),
(275,56,cs)
);
}
);
userData = {
com.typemytype.robofont.guideline.magnetic.EVwhXz5CDB = 5;
com.typemytype.robofont.guideline.magnetic.JRDHbdPpde = 5;
com.typemytype.robofont.guideline.magnetic.Vkm6xmu5Gk = 5;
};
width = 579;
},
{
layerId = "0A8B8749-808B-4003-9378-5450DA0F5EBF";
shapes = (
{
closed = 1;
nodes = (
(487,-204,l),
(642,529,l),
(485,529,l),
(476,486,l),
(436,519,o),
(383,536,o),
(323,536,cs),
(159,536,o),
(27,404,o),
(27,239,cs),
(27,100,o),
(130,-7,o),
(263,-7,cs),
(303,-7,o),
(340,3,o),
(375,21,c),
(328,-204,l)
);
},
{
closed = 1;
nodes = (
(236,130,o),
(183,183,o),
(183,253,cs),
(183,334,o),
(247,398,o),
(329,398,cs),
(376,398,o),
(419,380,o),
(446,351,c),
(406,164,l),
(377,141,o),
(345,130,o),
(307,130,cs)
);
}
);
userData = {
com.typemytype.robofont.guideline.magnetic.EVwhXz5CDB = 5;
com.typemytype.robofont.guideline.magnetic.JRDHbdPpde = 5;
com.typemytype.robofont.guideline.magnetic.Vkm6xmu5Gk = 5;
};
width = 635;
}
);
unicode = 113;
},
{
glyphname = r;
kernLeft = n;
kernRight = r;
lastChange = "2024-11-06 22:48:16 +0000";
layers = (
{
anchors = (
{
name = bottom;
pos = (37,0);
},
{
name = top;
pos = (208,492);
}
);
layerId = m001;
shapes = (
{
closed = 1;
nodes = (
(59,0,l),
(135,355,l),
(174,424,o),
(227,460,o),
(286,460,cs),
(303,460,o),
(320,457,o),
(334,451,c),
(344,496,l),
(333,500,o),
(315,502,o),
(296,502,cs),
(238,502,o),
(186,472,o),
(149,421,c),
(164,492,l),
(121,492,l),
(16,0,l)
);
}
);
userData = {
com.typemytype.robofont.guideline.magnetic.HcUJOBJckp = 5;
com.typemytype.robofont.guideline.magnetic.TDzb8Kp9av = 5;
com.typemytype.robofont.guideline.magnetic.iczTHUZORA = 5;
};
width = 312;
},
{
anchors = (
{
name = bottom;
pos = (44,0);
},
{
name = top;
pos = (232,501);
}
);
layerId = "C55C9F18-A1E0-4E6D-8952-C5F71D844606";
shapes = (
{
closed = 1;
nodes = (
(80,0,l),
(154,350,l),
(192,413,o),
(242,446,o),
(299,446,cs),
(319,446,o),
(342,442,o),
(356,435,c),
(370,503,l),
(358,508,o),
(336,512,o),
(317,512,cs),
(261,512,o),
(210,485,o),
(173,438,c),
(186,501,l),
(115,501,l),
(8,0,l)
);
}
);
userData = {
com.typemytype.robofont.guideline.magnetic.HcUJOBJckp = 5;
com.typemytype.robofont.guideline.magnetic.TDzb8Kp9av = 5;
com.typemytype.robofont.guideline.magnetic.iczTHUZORA = 5;
};
width = 338;
},
{
anchors = (
{
name = bottom;
pos = (72,0);
},
{
name = top;
pos = (296,529);
}
);
layerId = "0A8B8749-808B-4003-9378-5450DA0F5EBF";
shapes = (
{
closed = 1;
nodes = (
(152,0,l),
(224,342,l),
(256,380,o),
(301,402,o),
(349,402,cs),
(378,402,o),
(416,393,o),
(430,382,c),
(459,522,l),
(445,533,o),
(420,539,o),
(390,539,cs),
(339,539,o),
(293,519,o),
(254,482,c),
(264,529,l),
(105,529,l),
(-7,0,l)
);
}
);
userData = {
com.typemytype.robofont.guideline.magnetic.HcUJOBJckp = 5;
com.typemytype.robofont.guideline.magnetic.TDzb8Kp9av = 5;
com.typemytype.robofont.guideline.magnetic.iczTHUZORA = 5;
};
width = 423;
}
);
unicode = 114;
},
{
glyphname = s;
kernLeft = s;
kernRight = s;
lastChange = "2024-11-06 22:48:16 +0000";
layers = (
{
anchors = (
{
name = bottom;
pos = (187,0);
},
{
name = top;
pos = (241,492);
}
);
layerId = m001;
shapes = (
{
closed = 1;
nodes = (
(294,-12,o),
(376,53,o),
(376,140,cs),
(376,205,o),
(337,240,o),
(251,261,cs),
(177,279,ls),
(112,295,o),
(90,318,o),
(90,360,cs),
(90,420,o),
(141,461,o),
(218,461,cs),
(276,461,o),
(329,436,o),
(380,389,c),
(410,421,l),
(353,474,o),
(287,502,o),
(219,502,cs),
(118,502,o),
(46,443,o),
(46,358,cs),
(46,294,o),
(83,257,o),
(167,237,cs),
(241,219,ls),
(308,203,o),
(332,180,o),
(332,138,cs),
(332,76,o),
(270,29,o),
(186,29,cs),
(121,29,o),
(62,60,o),
(24,111,c),
(-11,84,l),
(35,23,o),
(107,-12,o),
(187,-12,cs)
);
}
);
userData = {
SBAlt = right;
};
width = 417;
},
{
anchors = (
{
name = bottom;
pos = (195,0);
},
{
name = top;
pos = (233,501);
}
);
layerId = "C55C9F18-A1E0-4E6D-8952-C5F71D844606";
shapes = (
{
closed = 1;
nodes = (
(313,-10,o),
(399,58,o),
(399,149,cs),
(399,215,o),
(359,255,o),
(271,275,cs),
(189,294,ls),
(131,307,o),
(109,327,o),
(109,364,cs),
(109,415,o),
(154,450,o),
(222,450,cs),
(276,450,o),
(334,426,o),
(383,382,c),
(427,430,l),
(368,483,o),
(300,509,o),
(226,509,cs),
(116,509,o),
(43,449,o),
(43,358,cs),
(43,291,o),
(82,251,o),
(167,232,cs),
(249,213,ls),
(306,200,o),
(330,179,o),
(330,142,cs),
(330,89,o),
(275,50,o),
(201,50,cs),
(138,50,o),
(80,77,o),
(35,128,c),
(-13,83,l),
(34,26,o),
(117,-10,o),
(199,-10,cs)
);
}
);
userData = {
SBAlt = right;
};
width = 438;
},
{
anchors = (
{
name = bottom;
pos = (223,0);
},
{
name = top;
pos = (266,529);
}
);
layerId = "0A8B8749-808B-4003-9378-5450DA0F5EBF";
shapes = (
{
closed = 1;
nodes = (
(370,-11,o),
(469,68,o),
(469,173,cs),
(469,245,o),
(418,298,o),
(330,317,cs),
(229,339,ls),
(190,347,o),
(175,359,o),
(175,379,cs),
(175,404,o),
(199,418,o),
(239,418,cs),
(289,418,o),
(343,398,o),
(397,359,c),
(484,457,l),
(422,508,o),
(338,537,o),
(250,537,cs),
(116,537,o),
(34,470,o),
(34,360,cs),
(34,284,o),
(82,231,o),
(169,212,cs),
(270,190,ls),
(301,183,o),
(317,171,o),
(317,153,cs),
(317,127,o),
(287,110,o),
(240,110,cs),
(183,110,o),
(127,133,o),
(67,180,c),
(-21,76,l),
(40,22,o),
(138,-11,o),
(239,-11,cs)
);
}
);
userData = {
SBAlt = right;
};
width = 503;
}
);
note = "Version created Fri Aug  3 17:49:29 2018";
unicode = 115;
},
{
glyphname = scedilla;
kernLeft = s;
kernRight = s;
lastChange = "2024-11-06 22:48:16 +0000";
layers = (
{
layerId = m001;
shapes = (
{
closed = 1;
nodes = (
(205,-224,o),
(253,-186,o),
(253,-130,cs),
(253,-92,o),
(226,-65,o),
(174,-60,c),
(197,-12,l),
(300,-9,o),
(378,55,o),
(378,140,cs),
(378,205,o),
(339,241,o),
(253,261,cs),
(176,279,ls),
(111,294,o),
(89,316,o),
(89,358,cs),
(89,418,o),
(141,460,o),
(218,460,cs),
(276,460,o),
(328,436,o),
(379,389,c),
(409,421,l),
(352,474,o),
(285,502,o),
(218,502,cs),
(117,502,o),
(45,443,o),
(45,358,cs),
(45,294,o),
(82,257,o),
(166,237,cs),
(243,219,ls),
(310,203,o),
(334,182,o),
(334,140,cs),
(334,79,o),
(273,32,o),
(189,32,cs),
(124,32,o),
(63,61,o),
(26,111,c),
(-9,85,l),
(32,30,o),
(96,-5,o),
(166,-11,c),
(128,-89,l),
(152,-89,ls),
(191,-89,o),
(219,-105,o),
(219,-135,cs),
(219,-168,o),
(191,-193,o),
(142,-193,cs),
(111,-193,o),
(87,-182,o),
(64,-157,c),
(38,-180,l),
(59,-207,o),
(99,-224,o),
(142,-224,cs)
);
}
);
width = 417;
},
{
layerId = "C55C9F18-A1E0-4E6D-8952-C5F71D844606";
shapes = (
{
closed = 1;
nodes = (
(216,-228,o),
(267,-186,o),
(267,-129,cs),
(267,-88,o),
(238,-61,o),
(189,-56,c),
(212,-10,l),
(320,-5,o),
(399,62,o),
(399,149,cs),
(399,215,o),
(359,255,o),
(271,275,cs),
(189,294,ls),
(131,307,o),
(109,327,o),
(109,364,cs),
(109,415,o),
(154,450,o),
(222,450,cs),
(276,450,o),
(334,426,o),
(383,382,c),
(427,430,l),
(368,483,o),
(300,509,o),
(226,509,cs),
(116,509,o),
(43,449,o),
(43,358,cs),
(43,291,o),
(82,251,o),
(167,232,cs),
(249,213,ls),
(306,200,o),
(330,179,o),
(330,142,cs),
(330,89,o),
(275,50,o),
(201,50,cs),
(138,50,o),
(80,77,o),
(35,128,c),
(-13,83,l),
(28,33,o),
(98,-1,o),
(170,-8,c),
(129,-91,l),
(158,-91,ls),
(196,-91,o),
(219,-107,o),
(219,-134,cs),
(219,-165,o),
(190,-186,o),
(149,-186,cs),
(118,-186,o),
(93,-175,o),
(71,-151,c),
(38,-181,l),
(62,-211,o),
(102,-228,o),
(148,-228,cs)
);
}
);
width = 438;
},
{
layerId = "0A8B8749-808B-4003-9378-5450DA0F5EBF";
shapes = (
{
closed = 1;
nodes = (
(247,-238,o),
(312,-188,o),
(312,-126,cs),
(312,-82,o),
(284,-53,o),
(236,-44,c),
(253,-11,l),
(377,-5,o),
(469,72,o),
(469,173,cs),
(469,245,o),
(418,298,o),
(330,317,cs),
(229,339,ls),
(190,347,o),
(175,359,o),
(175,379,cs),
(175,404,o),
(199,418,o),
(239,418,cs),
(289,418,o),
(343,398,o),
(397,359,c),
(484,457,l),
(422,508,o),
(338,537,o),
(250,537,cs),
(116,537,o),
(34,470,o),
(34,360,cs),
(34,284,o),
(82,231,o),
(169,212,cs),
(270,190,ls),
(301,183,o),
(317,171,o),
(317,153,cs),
(317,127,o),
(287,110,o),
(240,110,cs),
(183,110,o),
(127,133,o),
(67,180,c),
(-21,76,l),
(28,33,o),
(100,3,o),
(179,-7,c),
(134,-97,l),
(177,-97,ls),
(204,-97,o),
(221,-110,o),
(221,-130,cs),
(221,-151,o),
(201,-165,o),
(171,-165,cs),
(142,-165,o),
(115,-154,o),
(95,-133,c),
(38,-185,l),
(72,-222,o),
(112,-238,o),
(167,-238,cs)
);
}
);
width = 503;
}
);
unicode = 351;
},
{
glyphname = germandbls;
kernLeft = b;
kernRight = s;
lastChange = "2024-11-06 22:48:16 +0000";
layers = (
{
guides = (
{
angle = 78;
pos = (72,265);
userData = {
UFO.identifier = sfh06G4lsL;
};
}
);
layerId = m001;
shapes = (
{
closed = 1;
nodes = (
(452,-10,o),
(526,50,o),
(526,132,cs),
(526,192,o),
(496,229,o),
(425,260,cs),
(362,287,ls),
(332,300,o),
(319,318,o),
(319,349,cs),
(319,446,o),
(539,438,o),
(539,589,cs),
(539,675,o),
(468,740,o),
(374,740,cs),
(244,740,o),
(157,665,o),
(128,527,cs),
(16,0,l),
(61,0,l),
(172,519,ls),
(197,637,o),
(266,698,o),
(374,698,cs),
(443,698,o),
(495,652,o),
(495,589,cs),
(495,466,o),
(275,481,o),
(275,349,cs),
(275,303,o),
(298,269,o),
(344,249,cs),
(407,222,ls),
(462,199,o),
(482,175,o),
(482,132,cs),
(482,73,o),
(428,32,o),
(352,32,cs),
(291,32,o),
(241,53,o),
(216,89,c),
(180,65,l),
(213,18,o),
(277,-10,o),
(352,-10,cs)
);
}
);
width = 567;
},
{
layerId = "C55C9F18-A1E0-4E6D-8952-C5F71D844606";
shapes = (
{
closed = 1;
nodes = (
(496,-12,o),
(571,50,o),
(571,132,cs),
(571,185,o),
(543,219,o),
(471,252,cs),
(401,284,ls),
(365,300,o),
(351,317,o),
(351,340,cs),
(351,425,o),
(591,396,o),
(591,559,cs),
(591,648,o),
(505,711,o),
(384,711,cs),
(242,711,o),
(145,633,o),
(114,489,cs),
(10,0,l),
(80,0,l),
(184,484,ls),
(207,593,o),
(277,649,o),
(383,649,cs),
(460,649,o),
(520,605,o),
(520,550,cs),
(520,440,o),
(281,463,o),
(281,330,cs),
(281,287,o),
(305,258,o),
(361,233,cs),
(432,201,ls),
(482,178,o),
(504,158,o),
(504,126,cs),
(504,78,o),
(462,45,o),
(397,45,cs),
(336,45,o),
(284,67,o),
(248,119,c),
(197,80,l),
(242,17,o),
(313,-12,o),
(396,-12,cs)
);
}
);
width = 609;
},
{
layerId = "0A8B8749-808B-4003-9378-5450DA0F5EBF";
shapes = (
{
closed = 1;
nodes = (
(581,-13,o),
(664,58,o),
(664,159,cs),
(664,212,o),
(635,250,o),
(573,281,cs),
(500,317,ls),
(476,328,o),
(467,338,o),
(467,351,cs),
(467,406,o),
(671,413,o),
(671,565,cs),
(671,666,o),
(557,739,o),
(400,739,cs),
(241,739,o),
(134,655,o),
(101,503,cs),
(-7,0,l),
(153,0,l),
(256,481,ls),
(274,567,o),
(322,610,o),
(398,610,cs),
(462,610,o),
(512,581,o),
(512,544,cs),
(512,469,o),
(319,468,o),
(319,333,cs),
(319,286,o),
(344,252,o),
(397,226,cs),
(475,188,ls),
(509,171,o),
(521,159,o),
(521,141,cs),
(521,114,o),
(499,98,o),
(460,98,cs),
(414,98,o),
(369,123,o),
(332,170,c),
(239,92,l),
(291,26,o),
(375,-13,o),
(465,-13,cs)
);
}
);
width = 697;
}
);
unicode = 223;
},
{
glyphname = t;
kernLeft = t;
kernRight = t_1;
lastChange = "2024-11-15 10:43:31 +0000";
layers = (
{
anchors = (
{
name = bottom;
pos = (170,0);
},
{
name = center;
pos = (165,246);
},
{
name = top;
pos = (247,630);
},
{
name = topright;
pos = (337,731);
}
);
layerId = m001;
shapes = (
{
closed = 1;
nodes = (
(220,-10,o),
(241,-7,o),
(262,-1,c),
(271,42,l),
(244,34,o),
(230,31,o),
(215,31,cs),
(147,31,o),
(125,55,o),
(138,115,cs),
(210,452,l),
(356,452,l),
(365,492,l),
(219,492,l),
(248,630,l),
(202,616,l),
(175,492,l),
(69,492,l),
(60,452,l),
(167,452,l),
(93,106,ls),
(77,32,o),
(116,-10,o),
(199,-10,cs)
);
}
);
userData = {
com.typemytype.robofont.guideline.magnetic.ARbl6Ir4kG = 5;
com.typemytype.robofont.guideline.magnetic.shUC5mERkM = 5;
com.typemytype.robofont.guideline.magnetic.vaRljFhYiM = 5;
};
width = 330;
},
{
anchors = (
{
name = bottom;
pos = (186,0);
},
{
name = center;
pos = (179,251);
},
{
name = top;
pos = (263,647);
},
{
name = topright;
pos = (280,778);
}
);
layerId = "C55C9F18-A1E0-4E6D-8952-C5F71D844606";
shapes = (
{
closed = 1;
nodes = (
(239,-9,o),
(266,-6,o),
(288,0,c),
(301,65,l),
(277,58,o),
(261,55,o),
(243,55,cs),
(177,55,o),
(157,77,o),
(169,135,cs),
(234,438,l),
(380,438,l),
(394,501,l),
(248,501,l),
(279,647,l),
(202,628,l),
(175,501,l),
(70,501,l),
(56,438,l),
(162,438,l),
(95,119,ls),
(77,37,o),
(121,-9,o),
(215,-9,cs)
);
}
);
userData = {
com.typemytype.robofont.guideline.magnetic.ARbl6Ir4kG = 5;
com.typemytype.robofont.guideline.magnetic.shUC5mERkM = 5;
com.typemytype.robofont.guideline.magnetic.vaRljFhYiM = 5;
};
width = 357;
},
{
anchors = (
{
name = bottom;
pos = (217,0);
},
{
name = center;
pos = (220,265);
},
{
name = top;
pos = (313,700);
},
{
name = topright;
pos = (365,796);
}
);
layerId = "0A8B8749-808B-4003-9378-5450DA0F5EBF";
shapes = (
{
closed = 1;
nodes = (
(296,-6,o),
(341,-1,o),
(366,5,c),
(394,135,l),
(370,129,o),
(351,127,o),
(328,127,cs),
(274,127,o),
(256,147,o),
(266,195,cs),
(309,394,l),
(454,394,l),
(482,529,l),
(337,529,l),
(374,700,l),
(208,665,l),
(179,529,l),
(74,529,l),
(46,394,l),
(151,394,l),
(103,170,ls),
(79,57,o),
(136,-6,o),
(263,-6,cs)
);
}
);
userData = {
com.typemytype.robofont.guideline.magnetic.ARbl6Ir4kG = 5;
com.typemytype.robofont.guideline.magnetic.shUC5mERkM = 5;
com.typemytype.robofont.guideline.magnetic.vaRljFhYiM = 5;
};
width = 439;
}
);
unicode = 116;
},
{
glyphname = tbar;
kernLeft = t;
kernRight = t_1;
lastChange = "2024-11-06 22:48:16 +0000";
layers = (
{
guides = (
{
angle = 78;
pos = (49,393);
userData = {
UFO.identifier = XsVl7iXjwV;
};
},
{
angle = 78;
pos = (333,339);
userData = {
UFO.identifier = gSrNaqjBF5;
};
}
);
layerId = m001;
shapes = (
{
closed = 1;
nodes = (
(220,-10,o),
(241,-7,o),
(262,-1,c),
(271,42,l),
(244,34,o),
(230,31,o),
(215,31,cs),
(147,31,o),
(125,55,o),
(138,115,cs),
(171,269,l),
(318,269,l),
(326,306,l),
(179,306,l),
(210,452,l),
(356,452,l),
(365,492,l),
(219,492,l),
(248,630,l),
(202,616,l),
(175,492,l),
(69,492,l),
(60,452,l),
(167,452,l),
(136,306,l),
(31,306,l),
(23,269,l),
(128,269,l),
(93,106,ls),
(77,32,o),
(116,-10,o),
(199,-10,cs)
);
}
);
width = 330;
},
{
layerId = "C55C9F18-A1E0-4E6D-8952-C5F71D844606";
shapes = (
{
closed = 1;
nodes = (
(239,-9,o),
(266,-6,o),
(288,0,c),
(301,65,l),
(277,58,o),
(261,55,o),
(243,55,cs),
(177,55,o),
(157,77,o),
(169,135,cs),
(197,263,l),
(343,263,l),
(356,322,l),
(209,322,l),
(234,438,l),
(380,438,l),
(394,501,l),
(248,501,l),
(279,647,l),
(202,628,l),
(175,501,l),
(70,501,l),
(56,438,l),
(162,438,l),
(138,322,l),
(32,322,l),
(19,263,l),
(125,263,l),
(95,119,ls),
(77,37,o),
(121,-9,o),
(215,-9,cs)
);
}
);
width = 364;
},
{
layerId = "0A8B8749-808B-4003-9378-5450DA0F5EBF";
shapes = (
{
closed = 1;
nodes = (
(296,-6,o),
(341,-1,o),
(366,5,c),
(394,135,l),
(370,129,o),
(351,127,o),
(328,127,cs),
(274,127,o),
(256,147,o),
(266,195,cs),
(270,215,l),
(416,215,l),
(439,330,l),
(295,330,l),
(309,394,l),
(454,394,l),
(482,529,l),
(337,529,l),
(374,700,l),
(208,665,l),
(179,529,l),
(74,529,l),
(46,394,l),
(151,394,l),
(137,330,l),
(32,330,l),
(9,215,l),
(113,215,l),
(103,170,ls),
(79,57,o),
(136,-6,o),
(263,-6,cs)
);
}
);
width = 449;
}
);
unicode = 359;
},
{
glyphname = tcaron;
kernLeft = t;
kernRight = t_1;
lastChange = "2024-11-15 10:32:29 +0000";
layers = (
{
background = {
shapes = (
{
closed = 1;
nodes = (
(220,-10,o),
(241,-7,o),
(262,-1,c),
(271,42,l),
(244,34,o),
(230,31,o),
(215,31,cs),
(147,31,o),
(125,55,o),
(138,115,cs),
(210,452,l),
(356,452,l),
(365,492,l),
(219,492,l),
(248,630,l),
(202,616,l),
(175,492,l),
(69,492,l),
(60,452,l),
(167,452,l),
(93,106,ls),
(77,32,o),
(116,-10,o),
(199,-10,cs)
);
},
{
closed = 1;
nodes = (
(325,552,l),
(379,711,l),
(329,700,l),
(295,552,l)
);
}
);
};
layerId = m001;
shapes = (
{
ref = t;
},
{
pos = (130,19);
ref = caroncomb.alt;
}
);
width = 330;
},
{
background = {
shapes = (
{
closed = 1;
nodes = (
(239,-9,o),
(266,-6,o),
(288,0,c),
(301,65,l),
(277,58,o),
(261,55,o),
(243,55,cs),
(177,55,o),
(157,77,o),
(169,135,cs),
(234,438,l),
(380,438,l),
(394,501,l),
(248,501,l),
(279,647,l),
(202,628,l),
(175,501,l),
(70,501,l),
(56,438,l),
(162,438,l),
(95,119,ls),
(77,37,o),
(121,-9,o),
(215,-9,cs)
);
},
{
closed = 1;
nodes = (
(398,582,l),
(460,782,l),
(385,767,l),
(340,582,l)
);
}
);
};
layerId = "C55C9F18-A1E0-4E6D-8952-C5F71D844606";
shapes = (
{
ref = t;
},
{
pos = (183,75);
ref = caroncomb.alt;
}
);
width = 357;
},
{
background = {
shapes = (
{
closed = 1;
nodes = (
(296,-6,o),
(341,-1,o),
(366,5,c),
(394,135,l),
(370,129,o),
(351,127,o),
(328,127,cs),
(274,127,o),
(256,147,o),
(266,195,cs),
(309,394,l),
(454,394,l),
(482,529,l),
(337,529,l),
(374,700,l),
(208,665,l),
(179,529,l),
(74,529,l),
(46,394,l),
(151,394,l),
(103,170,ls),
(79,57,o),
(136,-6,o),
(263,-6,cs)
);
},
{
closed = 1;
nodes = (
(499,591,l),
(599,820,l),
(464,795,l),
(410,591,l)
);
}
);
};
layerId = "0A8B8749-808B-4003-9378-5450DA0F5EBF";
shapes = (
{
ref = t;
},
{
pos = (270,94);
ref = caroncomb.alt;
}
);
width = 439;
}
);
unicode = 357;
},
{
glyphname = tcedilla;
kernLeft = t;
kernRight = t_1;
lastChange = "2024-11-06 22:48:16 +0000";
layers = (
{
layerId = m001;
shapes = (
{
closed = 1;
nodes = (
(201,-224,o),
(249,-186,o),
(249,-130,cs),
(249,-92,o),
(222,-65,o),
(170,-60,c),
(194,-10,l),
(215,-10,o),
(243,-7,o),
(262,-1,c),
(271,42,l),
(244,34,o),
(230,31,o),
(215,31,cs),
(147,31,o),
(125,55,o),
(138,115,cs),
(210,452,l),
(356,452,l),
(365,492,l),
(219,492,l),
(248,630,l),
(202,616,l),
(175,492,l),
(69,492,l),
(60,452,l),
(167,452,l),
(93,106,ls),
(79,43,o),
(105,4,o),
(164,-7,c),
(124,-89,l),
(148,-89,ls),
(187,-89,o),
(215,-105,o),
(215,-135,cs),
(215,-168,o),
(187,-193,o),
(138,-193,cs),
(107,-193,o),
(83,-182,o),
(60,-157,c),
(34,-180,l),
(55,-207,o),
(95,-224,o),
(138,-224,cs)
);
}
);
width = 330;
},
{
layerId = "C55C9F18-A1E0-4E6D-8952-C5F71D844606";
shapes = (
{
closed = 1;
nodes = (
(216,-228,o),
(267,-186,o),
(267,-129,cs),
(267,-88,o),
(238,-61,o),
(189,-56,c),
(213,-9,l),
(239,-9,o),
(266,-6,o),
(288,0,c),
(301,65,l),
(277,58,o),
(261,55,o),
(243,55,cs),
(177,55,o),
(157,77,o),
(169,135,cs),
(234,438,l),
(380,438,l),
(394,501,l),
(248,501,l),
(279,647,l),
(202,628,l),
(175,501,l),
(70,501,l),
(56,438,l),
(162,438,l),
(95,119,ls),
(80,51,o),
(108,8,o),
(171,-5,c),
(129,-91,l),
(158,-91,ls),
(196,-91,o),
(219,-107,o),
(219,-134,cs),
(219,-165,o),
(190,-186,o),
(149,-186,cs),
(118,-186,o),
(93,-175,o),
(71,-151,c),
(38,-181,l),
(62,-211,o),
(102,-228,o),
(148,-228,cs)
);
}
);
width = 357;
},
{
layerId = "0A8B8749-808B-4003-9378-5450DA0F5EBF";
shapes = (
{
closed = 1;
nodes = (
(265,-238,o),
(330,-188,o),
(330,-126,cs),
(330,-82,o),
(302,-53,o),
(254,-44,c),
(274,-6,l),
(305,-5,o),
(344,0,o),
(366,5,c),
(394,135,l),
(370,129,o),
(351,127,o),
(328,127,cs),
(274,127,o),
(256,147,o),
(266,195,cs),
(309,394,l),
(454,394,l),
(482,529,l),
(337,529,l),
(374,700,l),
(208,665,l),
(179,529,l),
(74,529,l),
(46,394,l),
(151,394,l),
(103,170,ls),
(83,77,o),
(118,18,o),
(201,0,c),
(152,-97,l),
(195,-97,ls),
(222,-97,o),
(239,-110,o),
(239,-130,cs),
(239,-151,o),
(219,-165,o),
(189,-165,cs),
(160,-165,o),
(133,-154,o),
(113,-133,c),
(56,-185,l),
(90,-222,o),
(130,-238,o),
(185,-238,cs)
);
}
);
width = 439;
}
);
unicode = 355;
},
{
glyphname = u;
kernLeft = u;
kernRight = q;
lastChange = "2024-11-06 22:48:16 +0000";
layers = (
{
anchors = (
{
name = bottom;
pos = (398,0);
},
{
name = top;
pos = (312,492);
}
);
layerId = m001;
shapes = (
{
closed = 1;
nodes = (
(272,-10,o),
(324,13,o),
(368,58,c),
(356,0,l),
(399,0,l),
(504,492,l),
(461,492,l),
(380,113,l),
(341,62,o),
(283,31,o),
(220,31,cs),
(126,31,o),
(76,98,o),
(98,202,cs),
(160,492,l),
(117,492,l),
(55,195,ls),
(29,72,o),
(101,-10,o),
(212,-10,cs)
);
}
);
userData = {
com.typemytype.robofont.guideline.magnetic.MlLhvhYKG6 = 5;
com.typemytype.robofont.guideline.magnetic.cwPjWIGXTw = 5;
com.typemytype.robofont.guideline.magnetic.rsZfa0yxOy = 5;
};
width = 519;
},
{
anchors = (
{
name = bottom;
pos = (421,0);
},
{
name = top;
pos = (312,501);
}
);
layerId = "C55C9F18-A1E0-4E6D-8952-C5F71D844606";
shapes = (
{
closed = 1;
nodes = (
(265,-9,o),
(316,11,o),
(360,50,c),
(349,0,l),
(421,0,l),
(528,501,l),
(456,501,l),
(376,127,l),
(338,80,o),
(288,55,o),
(232,55,cs),
(146,55,o),
(101,116,o),
(121,208,cs),
(183,501,l),
(111,501,l),
(47,200,ls),
(22,80,o),
(90,-9,o),
(209,-9,cs)
);
}
);
userData = {
com.typemytype.robofont.guideline.magnetic.MlLhvhYKG6 = 5;
com.typemytype.robofont.guideline.magnetic.cwPjWIGXTw = 5;
com.typemytype.robofont.guideline.magnetic.rsZfa0yxOy = 5;
};
width = 538;
},
{
anchors = (
{
name = bottom;
pos = (494,0);
},
{
name = top;
pos = (346,529);
}
);
layerId = "0A8B8749-808B-4003-9378-5450DA0F5EBF";
shapes = (
{
closed = 1;
nodes = (
(254,-8,o),
(300,6,o),
(342,33,c),
(335,0,l),
(494,0,l),
(606,529,l),
(447,529,l),
(371,168,l),
(344,142,o),
(312,129,o),
(275,129,cs),
(216,129,o),
(184,169,o),
(196,229,cs),
(260,529,l),
(101,529,l),
(34,214,ls),
(7,86,o),
(78,-8,o),
(204,-8,cs)
);
}
);
userData = {
com.typemytype.robofont.guideline.magnetic.MlLhvhYKG6 = 5;
com.typemytype.robofont.guideline.magnetic.cwPjWIGXTw = 5;
com.typemytype.robofont.guideline.magnetic.rsZfa0yxOy = 5;
};
width = 599;
}
);
unicode = 117;
},
{
glyphname = uogonek;
kernLeft = u;
kernRight = q;
lastChange = "2024-11-06 22:48:16 +0000";
layers = (
{
layerId = m001;
shapes = (
{
closed = 1;
nodes = (
(330,-222,o),
(349,-217,o),
(367,-209,c),
(363,-178,l),
(348,-185,o),
(330,-189,o),
(314,-189,cs),
(282,-189,o),
(260,-170,o),
(260,-143,cs),
(260,-99,o),
(291,-55,o),
(399,0,c),
(504,492,l),
(461,492,l),
(380,113,l),
(341,62,o),
(283,31,o),
(220,31,cs),
(126,31,o),
(76,98,o),
(98,202,cs),
(160,492,l),
(117,492,l),
(55,195,ls),
(29,72,o),
(101,-10,o),
(212,-10,cs),
(272,-10,o),
(324,13,o),
(368,58,c),
(356,0,l),
(357,0,l),
(272,-38,o),
(221,-94,o),
(221,-149,cs),
(221,-193,o),
(256,-222,o),
(308,-222,cs)
);
}
);
width = 519;
},
{
layerId = "C55C9F18-A1E0-4E6D-8952-C5F71D844606";
shapes = (
{
closed = 1;
nodes = (
(348,-222,o),
(370,-216,o),
(391,-206,c),
(386,-166,l),
(372,-173,o),
(355,-177,o),
(340,-177,cs),
(310,-177,o),
(290,-160,o),
(290,-134,cs),
(290,-88,o),
(331,-47,o),
(421,0,c),
(528,501,l),
(456,501,l),
(376,127,l),
(338,80,o),
(288,55,o),
(232,55,cs),
(146,55,o),
(101,116,o),
(121,208,cs),
(183,501,l),
(111,501,l),
(47,200,ls),
(22,80,o),
(90,-9,o),
(209,-9,cs),
(265,-9,o),
(316,11,o),
(360,50,c),
(349,0,l),
(359,0,l),
(278,-47,o),
(237,-96,o),
(237,-149,cs),
(237,-193,o),
(272,-222,o),
(325,-222,cs)
);
}
);
width = 538;
},
{
layerId = "0A8B8749-808B-4003-9378-5450DA0F5EBF";
shapes = (
{
closed = 1;
nodes = (
(413,-221,o),
(446,-213,o),
(472,-198,c),
(466,-128,l),
(455,-135,o),
(441,-139,o),
(428,-139,cs),
(404,-139,o),
(390,-128,o),
(390,-108,cs),
(390,-72,o),
(424,-37,o),
(494,0,c),
(606,529,l),
(447,529,l),
(371,168,l),
(344,142,o),
(312,129,o),
(275,129,cs),
(216,129,o),
(184,169,o),
(196,229,cs),
(260,529,l),
(101,529,l),
(34,214,ls),
(7,86,o),
(78,-8,o),
(204,-8,cs),
(254,-8,o),
(300,6,o),
(342,33,c),
(335,0,l),
(409,0,l),
(332,-44,o),
(294,-93,o),
(294,-148,cs),
(294,-193,o),
(328,-221,o),
(382,-221,cs)
);
}
);
width = 599;
}
);
unicode = 371;
},
{
glyphname = v;
kernRight = v;
lastChange = "2024-11-06 22:48:16 +0000";
layers = (
{
layerId = m001;
shapes = (
{
closed = 1;
nodes = (
(204,0,l),
(519,492,l),
(469,492,l),
(195,61,l),
(105,492,l),
(60,492,l),
(164,0,l)
);
}
);
userData = {
SBAlt = right;
};
width = 473;
},
{
layerId = "C55C9F18-A1E0-4E6D-8952-C5F71D844606";
shapes = (
{
closed = 1;
nodes = (
(231,0,l),
(551,501,l),
(470,501,l),
(216,96,l),
(135,501,l),
(58,501,l),
(163,0,l)
);
}
);
userData = {
SBAlt = right;
};
width = 503;
},
{
layerId = "0A8B8749-808B-4003-9378-5450DA0F5EBF";
shapes = (
{
closed = 1;
nodes = (
(318,0,l),
(652,529,l),
(479,529,l),
(282,205,l),
(223,529,l),
(54,529,l),
(164,0,l)
);
}
);
userData = {
SBAlt = right;
};
width = 594;
}
);
unicode = 118;
},
{
glyphname = w;
kernLeft = w;
kernRight = w;
lastChange = "2024-11-06 22:48:16 +0000";
layers = (
{
anchors = (
{
name = top;
pos = (380,492);
}
);
layerId = m001;
shapes = (
{
closed = 1;
nodes = (
(154,0,l),
(368,428,l),
(399,0,l),
(443,0,l),
(695,492,l),
(650,492,l),
(433,64,l),
(402,492,l),
(359,492,l),
(146,67,l),
(111,492,l),
(68,492,l),
(111,0,l)
);
}
);
width = 657;
},
{
anchors = (
{
name = top;
pos = (396,501);
}
);
layerId = "C55C9F18-A1E0-4E6D-8952-C5F71D844606";
shapes = (
{
closed = 1;
nodes = (
(169,0,l),
(377,401,l),
(413,0,l),
(484,0,l),
(728,501,l),
(657,501,l),
(466,101,l),
(429,501,l),
(364,501,l),
(157,101,l),
(136,501,l),
(67,501,l),
(100,0,l)
);
}
);
width = 689;
},
{
anchors = (
{
name = top;
pos = (447,529);
}
);
layerId = "0A8B8749-808B-4003-9378-5450DA0F5EBF";
shapes = (
{
closed = 1;
nodes = (
(246,0,l),
(401,307,l),
(425,0,l),
(578,0,l),
(831,529,l),
(681,529,l),
(539,218,l),
(512,529,l),
(380,529,l),
(222,218,l),
(212,529,l),
(64,529,l),
(94,0,l)
);
}
);
width = 783;
}
);
unicode = 119;
},
{
glyphname = x;
kernRight = k;
lastChange = "2024-11-06 22:48:16 +0000";
layers = (
{
layerId = m001;
shapes = (
{
closed = 1;
nodes = (
(13,0,l),
(225,222,l),
(342,0,l),
(391,0,l),
(255,252,l),
(487,492,l),
(430,492,l),
(235,288,l),
(127,492,l),
(78,492,l),
(204,258,l),
(-44,0,l)
);
}
);
userData = {
SBAlt = right;
};
width = 451;
},
{
layerId = "C55C9F18-A1E0-4E6D-8952-C5F71D844606";
shapes = (
{
closed = 1;
nodes = (
(38,0,l),
(233,204,l),
(340,0,l),
(420,0,l),
(282,256,l),
(519,501,l),
(431,501,l),
(251,312,l),
(153,501,l),
(71,501,l),
(200,261,l),
(-51,0,l)
);
}
);
userData = {
SBAlt = right;
};
width = 480;
},
{
layerId = "0A8B8749-808B-4003-9378-5450DA0F5EBF";
shapes = (
{
closed = 1;
nodes = (
(123,0,l),
(264,151,l),
(340,0,l),
(517,0,l),
(377,268,l),
(626,529,l),
(442,529,l),
(311,387,l),
(239,529,l),
(61,529,l),
(198,270,l),
(-61,0,l)
);
}
);
userData = {
SBAlt = right;
};
width = 568;
}
);
unicode = 120;
},
{
glyphname = y;
kernLeft = y;
kernRight = v;
lastChange = "2024-11-06 22:48:16 +0000";
layers = (
{
anchors = (
{
name = top;
pos = (288,492);
}
);
layerId = m001;
shapes = (
{
closed = 1;
nodes = (
(46,-214,o),
(93,-180,o),
(145,-98,cs),
(517,492,l),
(468,492,l),
(193,54,l),
(105,492,l),
(60,492,l),
(159,2,l),
(99,-93,ls),
(66,-144,o),
(30,-170,o),
(-11,-170,cs),
(-25,-170,o),
(-41,-168,o),
(-52,-164,c),
(-61,-208,l),
(-45,-212,o),
(-29,-214,o),
(-17,-214,cs)
);
}
);
width = 471;
},
{
anchors = (
{
name = top;
pos = (292,501);
}
);
layerId = "C55C9F18-A1E0-4E6D-8952-C5F71D844606";
shapes = (
{
closed = 1;
nodes = (
(68,-214,o),
(122,-177,o),
(178,-88,cs),
(549,501,l),
(468,501,l),
(210,86,l),
(135,501,l),
(58,501,l),
(154,1,l),
(106,-73,ls),
(74,-123,o),
(39,-146,o),
(-4,-146,cs),
(-20,-146,o),
(-36,-144,o),
(-47,-140,c),
(-61,-206,l),
(-44,-211,o),
(-25,-214,o),
(-6,-214,cs)
);
}
);
width = 501;
},
{
anchors = (
{
name = top;
pos = (348,529);
}
);
layerId = "0A8B8749-808B-4003-9378-5450DA0F5EBF";
shapes = (
{
closed = 1;
nodes = (
(141,-214,o),
(214,-168,o),
(285,-55,cs),
(652,529,l),
(479,529,l),
(269,183,l),
(223,529,l),
(54,529,l),
(141,0,l),
(135,-10,ls),
(109,-53,o),
(72,-72,o),
(24,-72,cs),
(3,-72,o),
(-14,-70,o),
(-27,-66,c),
(-56,-203,l),
(-29,-210,o),
(0,-214,o),
(33,-214,cs)
);
}
);
width = 591;
}
);
unicode = 121;
},
{
glyphname = z;
kernLeft = z;
kernRight = z;
lastChange = "2024-11-06 22:48:16 +0000";
layers = (
{
anchors = (
{
name = top;
pos = (271,492);
}
);
guides = (
{
angle = 78;
pos = (440,447);
userData = {
UFO.identifier = SuPKpJAxXr;
};
}
);
layerId = m001;
shapes = (
{
closed = 1;
nodes = (
(346,0,l),
(355,42,l),
(48,42,l),
(441,453,l),
(449,492,l),
(88,492,l),
(79,450,l),
(381,450,l),
(-12,39,l),
(-20,0,l)
);
}
);
width = 437;
},
{
anchors = (
{
name = top;
pos = (267,501);
}
);
layerId = "C55C9F18-A1E0-4E6D-8952-C5F71D844606";
shapes = (
{
closed = 1;
nodes = (
(364,0,l),
(378,66,l),
(86,66,l),
(456,444,l),
(468,501,l),
(86,501,l),
(72,435,l),
(357,435,l),
(-11,58,l),
(-23,0,l)
);
}
);
width = 453;
},
{
anchors = (
{
name = top;
pos = (295,529);
}
);
layerId = "0A8B8749-808B-4003-9378-5450DA0F5EBF";
shapes = (
{
closed = 1;
nodes = (
(423,0,l),
(452,135,l),
(210,135,l),
(503,416,l),
(527,529,l),
(82,529,l),
(54,394,l),
(285,394,l),
(-7,113,l),
(-31,0,l)
);
}
);
width = 504;
}
);
unicode = 122;
},
{
glyphname = a.ss01;
kernLeft = o;
kernRight = q;
lastChange = "2024-11-13 22:13:20 +0000";
layers = (
{
anchors = (
{
name = bottom;
pos = (440,0);
},
{
name = top;
pos = (320,492);
}
);
layerId = m001;
shapes = (
{
closed = 1;
nodes = (
(311,-10,o),
(361,7,o),
(406,41,c),
(397,0,l),
(440,0,l),
(545,492,l),
(502,492,l),
(487,420,l),
(448,471,o),
(384,502,o),
(312,502,cs),
(164,502,o),
(43,374,o),
(43,218,cs),
(43,87,o),
(134,-10,o),
(259,-10,cs)
);
},
{
closed = 1;
nodes = (
(161,32,o),
(87,110,o),
(87,221,cs),
(87,353,o),
(188,460,o),
(313,460,cs),
(384,460,o),
(450,421,o),
(475,366,c),
(417,95,l),
(376,55,o),
(322,32,o),
(266,32,cs)
);
}
);
userData = {
com.typemytype.robofont.guideline.magnetic.3Re7KNphvk = 5;
com.typemytype.robofont.guideline.magnetic.DhywB1fZro = 5;
com.typemytype.robofont.guideline.magnetic.vaJcv40rS8 = 5;
};
width = 560;
},
{
anchors = (
{
name = bottom;
pos = (462,0);
},
{
name = top;
pos = (324,501);
}
);
layerId = "C55C9F18-A1E0-4E6D-8952-C5F71D844606";
shapes = (
{
closed = 1;
nodes = (
(309,-8,o),
(356,7,o),
(397,35,c),
(390,0,l),
(462,0,l),
(568,501,l),
(497,501,l),
(483,436,l),
(443,482,o),
(382,508,o),
(314,508,cs),
(161,508,o),
(38,379,o),
(38,222,cs),
(38,90,o),
(132,-8,o),
(259,-8,cs)
);
},
{
closed = 1;
nodes = (
(178,56,o),
(109,128,o),
(109,228,cs),
(109,347,o),
(201,443,o),
(316,443,cs),
(381,443,o),
(440,411,o),
(467,362,c),
(413,111,l),
(376,76,o),
(326,56,o),
(275,56,cs)
);
}
);
userData = {
com.typemytype.robofont.guideline.magnetic.3Re7KNphvk = 5;
com.typemytype.robofont.guideline.magnetic.DhywB1fZro = 5;
com.typemytype.robofont.guideline.magnetic.vaJcv40rS8 = 5;
};
width = 579;
},
{
anchors = (
{
name = bottom;
pos = (530,0);
},
{
name = top;
pos = (339,529);
}
);
layerId = "0A8B8749-808B-4003-9378-5450DA0F5EBF";
shapes = (
{
closed = 1;
nodes = (
(303,-7,o),
(342,3,o),
(378,22,c),
(373,0,l),
(530,0,l),
(642,529,l),
(484,529,l),
(475,487,l),
(435,519,o),
(382,536,o),
(323,536,cs),
(159,536,o),
(27,404,o),
(27,239,cs),
(27,100,o),
(130,-7,o),
(263,-7,cs)
);
},
{
closed = 1;
nodes = (
(236,130,o),
(183,183,o),
(183,253,cs),
(183,334,o),
(247,398,o),
(329,398,cs),
(376,398,o),
(419,380,o),
(446,352,c),
(406,164,l),
(378,141,o),
(345,130,o),
(307,130,cs)
);
}
);
userData = {
com.typemytype.robofont.guideline.magnetic.3Re7KNphvk = 5;
com.typemytype.robofont.guideline.magnetic.DhywB1fZro = 5;
com.typemytype.robofont.guideline.magnetic.vaJcv40rS8 = 5;
};
width = 635;
}
);
},
{
glyphname = aogonek.ss01;
kernLeft = o;
kernRight = q;
lastChange = "2024-11-13 22:13:20 +0000";
layers = (
{
layerId = m001;
shapes = (
{
closed = 1;
nodes = (
(369,-222,o),
(388,-218,o),
(408,-209,c),
(404,-178,l),
(389,-185,o),
(371,-189,o),
(355,-189,cs),
(323,-189,o),
(301,-170,o),
(301,-143,cs),
(301,-93,o),
(344,-49,o),
(440,0,c),
(545,492,l),
(502,492,l),
(487,420,l),
(447,472,o),
(383,502,o),
(312,502,cs),
(164,502,o),
(43,374,o),
(43,218,cs),
(43,87,o),
(134,-10,o),
(259,-10,cs),
(312,-10,o),
(361,7,o),
(406,41,c),
(397,0,l),
(398,0,l),
(314,-36,o),
(262,-93,o),
(262,-149,cs),
(262,-193,o),
(297,-222,o),
(349,-222,cs)
);
},
{
closed = 1;
nodes = (
(161,32,o),
(87,110,o),
(87,221,cs),
(87,353,o),
(188,460,o),
(313,460,cs),
(383,460,o),
(450,421,o),
(475,366,c),
(417,95,l),
(376,55,o),
(321,32,o),
(266,32,cs)
);
}
);
width = 560;
},
{
layerId = "C55C9F18-A1E0-4E6D-8952-C5F71D844606";
shapes = (
{
closed = 1;
nodes = (
(389,-222,o),
(411,-216,o),
(432,-206,c),
(427,-166,l),
(413,-173,o),
(396,-177,o),
(381,-177,cs),
(351,-177,o),
(331,-160,o),
(331,-134,cs),
(331,-88,o),
(372,-47,o),
(462,0,c),
(568,501,l),
(497,501,l),
(483,436,l),
(443,482,o),
(382,508,o),
(314,508,cs),
(161,508,o),
(38,379,o),
(38,222,cs),
(38,90,o),
(132,-8,o),
(259,-8,cs),
(309,-8,o),
(356,7,o),
(397,35,c),
(390,0,l),
(400,0,l),
(319,-47,o),
(278,-96,o),
(278,-149,cs),
(278,-193,o),
(313,-222,o),
(366,-222,cs)
);
},
{
closed = 1;
nodes = (
(178,56,o),
(109,128,o),
(109,228,cs),
(109,347,o),
(201,443,o),
(316,443,cs),
(381,443,o),
(440,411,o),
(467,362,c),
(413,111,l),
(376,76,o),
(326,56,o),
(275,56,cs)
);
}
);
width = 579;
},
{
layerId = "0A8B8749-808B-4003-9378-5450DA0F5EBF";
shapes = (
{
closed = 1;
nodes = (
(449,-221,o),
(482,-213,o),
(508,-198,c),
(502,-128,l),
(491,-135,o),
(477,-139,o),
(464,-139,cs),
(440,-139,o),
(426,-128,o),
(426,-108,cs),
(426,-72,o),
(460,-37,o),
(530,0,c),
(642,529,l),
(484,529,l),
(475,487,l),
(435,519,o),
(382,536,o),
(323,536,cs),
(159,536,o),
(27,404,o),
(27,239,cs),
(27,100,o),
(130,-7,o),
(263,-7,cs),
(303,-7,o),
(342,3,o),
(378,22,c),
(373,0,l),
(445,0,l),
(368,-44,o),
(330,-93,o),
(330,-148,cs),
(330,-193,o),
(364,-221,o),
(418,-221,cs)
);
},
{
closed = 1;
nodes = (
(236,130,o),
(183,183,o),
(183,253,cs),
(183,334,o),
(247,398,o),
(329,398,cs),
(376,398,o),
(419,380,o),
(446,352,c),
(406,164,l),
(378,141,o),
(345,130,o),
(307,130,cs)
);
}
);
width = 635;
}
);
},
{
glyphname = g.ss02;
kernLeft = g.alt;
kernRight = g.alt;
lastChange = "2024-11-13 22:13:35 +0000";
layers = (
{
anchors = (
{
name = top;
pos = (281,492);
}
);
layerId = m001;
shapes = (
{
closed = 1;
nodes = (
(329,-214,o),
(420,-159,o),
(420,-76,cs),
(420,-22,o),
(382,11,o),
(314,19,cs),
(151,39,ls),
(115,43,o),
(97,59,o),
(97,82,cs),
(97,114,o),
(130,139,o),
(178,147,c),
(198,140,o),
(220,136,o),
(242,136,cs),
(360,136,o),
(455,224,o),
(455,334,cs),
(455,371,o),
(442,406,o),
(420,434,c),
(438,461,o),
(468,477,o),
(503,477,cs),
(514,477,o),
(525,475,o),
(538,472,c),
(544,519,l),
(536,520,o),
(526,521,o),
(517,521,cs),
(469,521,o),
(423,493,o),
(403,453,c),
(370,483,o),
(326,502,o),
(277,502,cs),
(159,502,o),
(64,415,o),
(64,305,cs),
(64,248,o),
(94,197,o),
(141,167,c),
(88,152,o),
(50,114,o),
(50,75,cs),
(50,52,o),
(61,32,o),
(79,18,c),
(5,-6,o),
(-35,-47,o),
(-35,-98,cs),
(-35,-169,o),
(53,-214,o),
(190,-214,cs)
);
},
{
closed = 1;
nodes = (
(168,178,o),
(108,236,o),
(108,305,cs),
(108,392,o),
(184,460,o),
(277,460,cs),
(351,460,o),
(411,402,o),
(411,334,cs),
(411,247,o),
(335,178,o),
(242,178,cs)
);
},
{
closed = 1;
nodes = (
(81,-174,o),
(11,-141,o),
(11,-90,cs),
(11,-49,o),
(52,-16,o),
(124,-1,c),
(129,-2,o),
(134,-3,o),
(140,-4,cs),
(304,-24,ls),
(351,-30,o),
(374,-51,o),
(374,-83,cs),
(374,-136,o),
(300,-174,o),
(194,-174,cs)
);
}
);
userData = {
SBAlt = right;
};
width = 489;
},
{
anchors = (
{
name = top;
pos = (295,501);
}
);
layerId = "C55C9F18-A1E0-4E6D-8952-C5F71D844606";
shapes = (
{
closed = 1;
nodes = (
(355,-211,o),
(456,-150,o),
(456,-58,cs),
(456,-7,o),
(419,26,o),
(348,35,cs),
(170,58,ls),
(135,62,o),
(118,75,o),
(118,96,cs),
(118,122,o),
(141,142,o),
(179,150,c),
(201,142,o),
(226,138,o),
(253,138,cs),
(375,138,o),
(475,228,o),
(475,340,cs),
(475,374,o),
(465,405,o),
(446,431,c),
(466,449,o),
(494,459,o),
(524,459,cs),
(536,459,o),
(549,458,o),
(563,454,c),
(574,518,l),
(565,521,o),
(555,522,o),
(543,522,cs),
(497,522,o),
(452,496,o),
(425,456,c),
(391,488,o),
(343,507,o),
(289,507,cs),
(168,507,o),
(64,413,o),
(64,303,cs),
(64,249,o),
(91,203,o),
(133,173,c),
(82,157,o),
(47,120,o),
(47,77,cs),
(47,55,o),
(57,36,o),
(74,22,c),
(-2,0,o),
(-45,-42,o),
(-45,-93,cs),
(-45,-165,o),
(52,-211,o),
(205,-211,cs)
);
},
{
closed = 1;
nodes = (
(187,197,o),
(134,244,o),
(134,307,cs),
(134,383,o),
(204,447,o),
(285,447,cs),
(354,447,o),
(407,397,o),
(407,333,cs),
(407,260,o),
(337,197,o),
(258,197,cs)
);
},
{
closed = 1;
nodes = (
(96,-157,o),
(26,-128,o),
(26,-81,cs),
(26,-45,o),
(64,-15,o),
(128,-3,c),
(137,-5,o),
(146,-7,o),
(155,-8,cs),
(321,-29,ls),
(359,-34,o),
(381,-52,o),
(381,-76,cs),
(381,-124,o),
(312,-157,o),
(210,-157,cs)
);
}
);
userData = {
SBAlt = right;
};
width = 520;
},
{
anchors = (
{
name = top;
pos = (331,529);
}
);
layerId = "0A8B8749-808B-4003-9378-5450DA0F5EBF";
shapes = (
{
closed = 1;
nodes = (
(421,-217,o),
(542,-144,o),
(542,-34,cs),
(542,30,o),
(489,72,o),
(397,81,cs),
(231,95,ls),
(200,98,o),
(184,108,o),
(184,123,cs),
(184,139,o),
(197,150,o),
(220,154,c),
(243,148,o),
(268,145,o),
(295,145,cs),
(438,145,o),
(549,237,o),
(549,355,cs),
(549,379,o),
(544,402,o),
(534,423,c),
(553,428,o),
(572,430,o),
(592,430,cs),
(614,430,o),
(635,428,o),
(645,424,c),
(669,542,l),
(657,548,o),
(644,550,o),
(627,550,cs),
(580,550,o),
(535,527,o),
(492,480,c),
(451,517,o),
(391,539,o),
(322,539,cs),
(181,539,o),
(68,443,o),
(68,324,cs),
(68,269,o),
(96,221,o),
(142,189,c),
(80,170,o),
(40,125,o),
(40,68,cs),
(40,48,o),
(46,30,o),
(59,15,c),
(-10,0,o),
(-56,-41,o),
(-56,-94,cs),
(-56,-170,o),
(57,-217,o),
(239,-217,cs)
);
},
{
closed = 1;
nodes = (
(250,257,o),
(215,288,o),
(215,331,cs),
(215,382,o),
(260,422,o),
(317,422,cs),
(365,422,o),
(401,390,o),
(401,348,cs),
(401,299,o),
(354,257,o),
(300,257,cs)
);
},
{
closed = 1;
nodes = (
(148,-120,o),
(89,-102,o),
(89,-70,cs),
(89,-50,o),
(109,-34,o),
(137,-29,c),
(157,-35,o),
(180,-39,o),
(205,-41,cs),
(346,-53,ls),
(365,-55,o),
(376,-63,o),
(376,-74,cs),
(376,-102,o),
(326,-120,o),
(249,-120,cs)
);
}
);
userData = {
SBAlt = right;
};
width = 615;
}
);
note = "Version created Sun Jan 13 16:53:00 2019";
},
{
color = (0,0,255,191);
glyphname = gcommaaccent.ss02;
kernLeft = g.alt;
kernRight = g.alt;
lastChange = "2024-11-13 22:13:35 +0000";
layers = (
{
layerId = m001;
shapes = (
{
closed = 1;
nodes = (
(348,757,l),
(261,589,l),
(312,589,l),
(384,757,l)
);
},
{
ref = g.ss02;
}
);
width = 489;
},
{
layerId = "C55C9F18-A1E0-4E6D-8952-C5F71D844606";
shapes = (
{
closed = 1;
nodes = (
(370,777,l),
(272,598,l),
(347,598,l),
(425,777,l)
);
},
{
ref = g.ss02;
}
);
width = 520;
},
{
layerId = "0A8B8749-808B-4003-9378-5450DA0F5EBF";
shapes = (
{
closed = 1;
nodes = (
(427,832,l),
(293,617,l),
(441,617,l),
(541,832,l)
);
},
{
ref = g.ss02;
}
);
width = 615;
}
);
},
{
glyphname = ordfeminine;
kernLeft = _reg;
kernRight = _reg;
lastChange = "2024-11-06 22:48:16 +0000";
layers = (
{
layerId = m001;
shapes = (
{
closed = 1;
nodes = (
(249,325,o),
(287,338,o),
(322,365,c),
(315,332,l),
(353,332,l),
(404,572,ls),
(422,655,o),
(371,711,o),
(277,711,cs),
(234,711,o),
(191,701,o),
(146,681,c),
(158,650,l),
(202,668,o),
(239,677,o),
(274,677,cs),
(350,677,o),
(381,640,o),
(365,567,cs),
(354,513,l),
(322,537,o),
(277,551,o),
(230,551,cs),
(140,551,o),
(80,504,o),
(80,433,cs),
(80,369,o),
(131,325,o),
(207,325,cs)
);
},
{
closed = 1;
nodes = (
(154,359,o),
(119,387,o),
(119,436,cs),
(119,484,o),
(164,518,o),
(227,518,cs),
(278,518,o),
(317,505,o),
(346,478,c),
(331,407,l),
(294,375,o),
(257,359,o),
(215,359,cs)
);
}
);
width = 386;
},
{
layerId = "C55C9F18-A1E0-4E6D-8952-C5F71D844606";
shapes = (
{
closed = 1;
nodes = (
(244,319,o),
(279,330,o),
(313,354,c),
(307,325,l),
(366,325,l),
(417,562,ls),
(436,653,o),
(385,709,o),
(280,709,cs),
(238,709,o),
(193,699,o),
(141,677,c),
(157,629,l),
(206,649,o),
(239,657,o),
(269,657,cs),
(341,657,o),
(371,625,o),
(357,559,cs),
(348,518,l),
(315,537,o),
(272,549,o),
(230,549,cs),
(137,549,o),
(75,500,o),
(75,425,cs),
(75,361,o),
(126,319,o),
(204,319,cs)
);
},
{
closed = 1;
nodes = (
(166,366,o),
(134,390,o),
(134,431,cs),
(134,474,o),
(174,504,o),
(231,504,cs),
(274,504,o),
(309,493,o),
(338,471,c),
(324,403,l),
(293,378,o),
(259,366,o),
(221,366,cs)
);
}
);
width = 400;
},
{
layerId = "0A8B8749-808B-4003-9378-5450DA0F5EBF";
shapes = (
{
closed = 1;
nodes = (
(230,301,o),
(259,308,o),
(289,325,c),
(285,305,l),
(408,305,l),
(458,538,ls),
(480,645,o),
(417,710,o),
(289,710,cs),
(238,710,o),
(182,699,o),
(121,676,c),
(151,582,l),
(202,599,o),
(234,606,o),
(260,606,cs),
(319,606,o),
(344,584,o),
(335,538,cs),
(333,529,l),
(301,538,o),
(266,544,o),
(233,544,cs),
(127,544,o),
(63,495,o),
(63,412,cs),
(63,344,o),
(115,301,o),
(198,301,cs)
);
},
{
closed = 1;
nodes = (
(203,388,o),
(181,400,o),
(181,422,cs),
(181,449,o),
(204,463,o),
(246,463,cs),
(267,463,o),
(293,459,o),
(317,452,c),
(306,402,l),
(286,393,o),
(265,388,o),
(243,388,cs)
);
}
);
width = 441;
}
);
unicode = 170;
},
{
glyphname = ordmasculine;
kernLeft = _reg;
kernRight = _reg;
lastChange = "2024-11-06 22:48:16 +0000";
layers = (
{
layerId = m001;
shapes = (
{
closed = 1;
nodes = (
(376,325,o),
(464,419,o),
(464,534,cs),
(464,632,o),
(388,711,o),
(295,711,cs),
(187,711,o),
(99,617,o),
(99,502,cs),
(99,404,o),
(175,325,o),
(268,325,cs)
);
},
{
closed = 1;
nodes = (
(197,363,o),
(138,425,o),
(138,503,cs),
(138,597,o),
(208,673,o),
(294,673,cs),
(366,673,o),
(425,610,o),
(425,533,cs),
(425,439,o),
(355,363,o),
(270,363,cs)
);
}
);
userData = {
com.typemytype.robofont.guideline.magnetic.ti1pkfhnBE = 5;
com.typemytype.robofont.guideline.magnetic.xBKVV7HV8o = 5;
com.typemytype.robofont.guideline.magnetic.xILeKg2kOl = 5;
};
width = 446;
},
{
layerId = "C55C9F18-A1E0-4E6D-8952-C5F71D844606";
shapes = (
{
closed = 1;
nodes = (
(380,317,o),
(474,414,o),
(474,529,cs),
(474,633,o),
(398,710,o),
(297,710,cs),
(186,710,o),
(92,613,o),
(92,498,cs),
(92,394,o),
(168,317,o),
(270,317,cs)
);
},
{
closed = 1;
nodes = (
(204,372,o),
(152,427,o),
(152,501,cs),
(152,585,o),
(217,655,o),
(293,655,cs),
(362,655,o),
(414,600,o),
(414,526,cs),
(414,443,o),
(350,372,o),
(273,372,cs)
);
}
);
userData = {
com.typemytype.robofont.guideline.magnetic.ti1pkfhnBE = 5;
com.typemytype.robofont.guideline.magnetic.xBKVV7HV8o = 5;
com.typemytype.robofont.guideline.magnetic.xILeKg2kOl = 5;
};
width = 455;
},
{
layerId = "0A8B8749-808B-4003-9378-5450DA0F5EBF";
shapes = (
{
closed = 1;
nodes = (
(403,297,o),
(506,398,o),
(506,518,cs),
(506,628,o),
(420,710,o),
(306,710,cs),
(181,710,o),
(79,610,o),
(79,489,cs),
(79,380,o),
(165,297,o),
(280,297,cs)
);
},
{
closed = 1;
nodes = (
(236,406,o),
(201,443,o),
(201,495,cs),
(201,553,o),
(245,601,o),
(299,601,cs),
(349,601,o),
(384,564,o),
(384,513,cs),
(384,454,o),
(340,406,o),
(286,406,cs)
);
}
);
userData = {
com.typemytype.robofont.guideline.magnetic.ti1pkfhnBE = 5;
com.typemytype.robofont.guideline.magnetic.xBKVV7HV8o = 5;
com.typemytype.robofont.guideline.magnetic.xILeKg2kOl = 5;
};
width = 483;
}
);
unicode = 186;
},
{
glyphname = .notdef;
lastChange = "2024-11-06 22:48:16 +0000";
layers = (
{
layerId = m001;
shapes = (
{
closed = 1;
nodes = (
(455,-100,l),
(455,750,l),
(61,750,l),
(61,-100,l)
);
}
);
width = 514;
},
{
layerId = "C55C9F18-A1E0-4E6D-8952-C5F71D844606";
shapes = (
{
closed = 1;
nodes = (
(454,-100,l),
(454,750,l),
(60,750,l),
(60,-100,l)
);
}
);
width = 514;
},
{
layerId = "0A8B8749-808B-4003-9378-5450DA0F5EBF";
shapes = (
{
closed = 1;
nodes = (
(454,-100,l),
(454,750,l),
(60,750,l),
(60,-100,l)
);
}
);
width = 514;
}
);
},
{
glyphname = period;
kernLeft = _period;
kernRight = _period;
lastChange = "2024-11-06 22:48:16 +0000";
layers = (
{
layerId = m001;
shapes = (
{
closed = 1;
nodes = (
(99,-5,o),
(117,13,o),
(117,37,cs),
(117,56,o),
(102,71,o),
(84,71,cs),
(61,71,o),
(43,53,o),
(43,30,cs),
(43,10,o),
(58,-5,o),
(76,-5,cs)
);
}
);
userData = {
com.typemytype.robofont.guideline.magnetic.LhAYt9ftpN = 5;
com.typemytype.robofont.guideline.magnetic.jX7KS9eapY = 5;
com.typemytype.robofont.guideline.magnetic.qXZfXXFPOe = 5;
com.typemytype.robofont.guideline.magnetic.tfAL4EPAUj = 5;
com.typemytype.robofont.guideline.magnetic.yUvOvTYZZn = 5;
};
width = 250;
},
{
layerId = "C55C9F18-A1E0-4E6D-8952-C5F71D844606";
shapes = (
{
closed = 1;
nodes = (
(105,-6,o),
(132,21,o),
(132,50,cs),
(132,76,o),
(113,96,o),
(88,96,cs),
(58,96,o),
(31,69,o),
(31,39,cs),
(31,14,o),
(50,-6,o),
(76,-6,cs)
);
}
);
userData = {
com.typemytype.robofont.guideline.magnetic.LhAYt9ftpN = 5;
com.typemytype.robofont.guideline.magnetic.jX7KS9eapY = 5;
com.typemytype.robofont.guideline.magnetic.qXZfXXFPOe = 5;
com.typemytype.robofont.guideline.magnetic.tfAL4EPAUj = 5;
com.typemytype.robofont.guideline.magnetic.yUvOvTYZZn = 5;
};
width = 250;
},
{
layerId = "0A8B8749-808B-4003-9378-5450DA0F5EBF";
shapes = (
{
closed = 1;
nodes = (
(130,-11,o),
(178,38,o),
(178,93,cs),
(178,139,o),
(144,174,o),
(98,174,cs),
(42,174,o),
(-6,126,o),
(-6,70,cs),
(-6,24,o),
(29,-11,o),
(76,-11,cs)
);
}
);
userData = {
com.typemytype.robofont.guideline.magnetic.LhAYt9ftpN = 5;
com.typemytype.robofont.guideline.magnetic.jX7KS9eapY = 5;
com.typemytype.robofont.guideline.magnetic.qXZfXXFPOe = 5;
com.typemytype.robofont.guideline.magnetic.tfAL4EPAUj = 5;
com.typemytype.robofont.guideline.magnetic.yUvOvTYZZn = 5;
};
width = 250;
}
);
unicode = 46;
},
{
glyphname = comma;
kernLeft = _period;
kernRight = _period;
lastChange = "2024-11-06 22:48:16 +0000";
layers = (
{
layerId = m001;
shapes = (
{
closed = 1;
nodes = (
(22,-131,l),
(128,57,l),
(75,57,l),
(-16,-131,l)
);
}
);
userData = {
com.typemytype.robofont.guideline.magnetic.8gCMu6nEr4 = 5;
com.typemytype.robofont.guideline.magnetic.ApGoBVD3Hn = 5;
com.typemytype.robofont.guideline.magnetic.NkBVBTLhwG = 5;
com.typemytype.robofont.guideline.magnetic.bjJOsaWldu = 5;
com.typemytype.robofont.guideline.magnetic.u0CTdG3DKm = 5;
};
width = 250;
},
{
layerId = "C55C9F18-A1E0-4E6D-8952-C5F71D844606";
shapes = (
{
closed = 1;
nodes = (
(21,-137,l),
(144,74,l),
(64,74,l),
(-37,-137,l)
);
}
);
userData = {
com.typemytype.robofont.guideline.magnetic.8gCMu6nEr4 = 5;
com.typemytype.robofont.guideline.magnetic.ApGoBVD3Hn = 5;
com.typemytype.robofont.guideline.magnetic.NkBVBTLhwG = 5;
com.typemytype.robofont.guideline.magnetic.bjJOsaWldu = 5;
com.typemytype.robofont.guideline.magnetic.u0CTdG3DKm = 5;
};
width = 250;
},
{
layerId = "0A8B8749-808B-4003-9378-5450DA0F5EBF";
shapes = (
{
closed = 1;
nodes = (
(19,-157,l),
(195,127,l),
(32,127,l),
(-100,-157,l)
);
}
);
userData = {
com.typemytype.robofont.guideline.magnetic.8gCMu6nEr4 = 5;
com.typemytype.robofont.guideline.magnetic.ApGoBVD3Hn = 5;
com.typemytype.robofont.guideline.magnetic.NkBVBTLhwG = 5;
com.typemytype.robofont.guideline.magnetic.bjJOsaWldu = 5;
com.typemytype.robofont.guideline.magnetic.u0CTdG3DKm = 5;
};
width = 250;
}
);
unicode = 44;
},
{
glyphname = exclam;
lastChange = "2024-11-06 22:48:16 +0000";
layers = (
{
layerId = m001;
shapes = (
{
closed = 1;
nodes = (
(93,187,l),
(209,708,l),
(162,708,l),
(56,187,l)
);
},
{
closed = 1;
nodes = (
(61,-5,o),
(79,13,o),
(79,36,cs),
(79,55,o),
(64,70,o),
(46,70,cs),
(23,70,o),
(5,52,o),
(5,29,cs),
(5,10,o),
(20,-5,o),
(38,-5,cs)
);
}
);
userData = {
com.typemytype.robofont.guideline.magnetic.De3PwU0MJ1 = 5;
com.typemytype.robofont.guideline.magnetic.Y22Lwnt7WF = 5;
com.typemytype.robofont.guideline.magnetic.iIMdgDG6jT = 5;
com.typemytype.robofont.guideline.magnetic.u3NSSs4T0V = 5;
com.typemytype.robofont.guideline.magnetic.yTMNEpVVDd = 5;
};
width = 174;
},
{
layerId = "C55C9F18-A1E0-4E6D-8952-C5F71D844606";
shapes = (
{
closed = 1;
nodes = (
(114,194,l),
(232,705,l),
(156,705,l),
(56,194,l)
);
},
{
closed = 1;
nodes = (
(76,-6,o),
(103,21,o),
(103,50,cs),
(103,76,o),
(84,96,o),
(59,96,cs),
(29,96,o),
(2,69,o),
(2,39,cs),
(2,14,o),
(21,-6,o),
(47,-6,cs)
);
}
);
userData = {
com.typemytype.robofont.guideline.magnetic.De3PwU0MJ1 = 5;
com.typemytype.robofont.guideline.magnetic.Y22Lwnt7WF = 5;
com.typemytype.robofont.guideline.magnetic.iIMdgDG6jT = 5;
com.typemytype.robofont.guideline.magnetic.u3NSSs4T0V = 5;
com.typemytype.robofont.guideline.magnetic.yTMNEpVVDd = 5;
};
width = 193;
},
{
layerId = "0A8B8749-808B-4003-9378-5450DA0F5EBF";
shapes = (
{
closed = 1;
nodes = (
(177,216,l),
(299,700,l),
(138,700,l),
(56,216,l)
);
},
{
closed = 1;
nodes = (
(131,-11,o),
(179,38,o),
(179,93,cs),
(179,139,o),
(145,174,o),
(99,174,cs),
(43,174,o),
(-5,126,o),
(-5,70,cs),
(-5,24,o),
(30,-11,o),
(77,-11,cs)
);
}
);
userData = {
com.typemytype.robofont.guideline.magnetic.De3PwU0MJ1 = 5;
com.typemytype.robofont.guideline.magnetic.Y22Lwnt7WF = 5;
com.typemytype.robofont.guideline.magnetic.iIMdgDG6jT = 5;
com.typemytype.robofont.guideline.magnetic.u3NSSs4T0V = 5;
com.typemytype.robofont.guideline.magnetic.yTMNEpVVDd = 5;
};
width = 252;
}
);
unicode = 33;
},
{
glyphname = exclamdown;
lastChange = "2024-11-06 22:48:16 +0000";
layers = (
{
layerId = m001;
shapes = (
{
closed = 1;
nodes = (
(83,317,l),
(-33,-204,l),
(14,-204,l),
(120,317,l)
);
},
{
closed = 1;
nodes = (
(115,509,o),
(97,491,o),
(97,468,cs),
(97,449,o),
(112,434,o),
(130,434,cs),
(153,434,o),
(171,452,o),
(171,475,cs),
(171,494,o),
(156,509,o),
(138,509,cs)
);
}
);
userData = {
com.typemytype.robofont.guideline.magnetic.2V62fttru6 = 5;
com.typemytype.robofont.guideline.magnetic.2gIryhMM6S = 5;
com.typemytype.robofont.guideline.magnetic.NoAEDe3b1e = 5;
com.typemytype.robofont.guideline.magnetic.NxApnrOgNh = 5;
com.typemytype.robofont.guideline.magnetic.SjoCyDFycZ = 5;
};
width = 173;
},
{
layerId = "C55C9F18-A1E0-4E6D-8952-C5F71D844606";
shapes = (
{
closed = 1;
nodes = (
(78,303,l),
(-40,-208,l),
(36,-208,l),
(136,303,l)
);
},
{
closed = 1;
nodes = (
(116,503,o),
(89,476,o),
(89,447,cs),
(89,421,o),
(108,401,o),
(133,401,cs),
(163,401,o),
(190,428,o),
(190,458,cs),
(190,483,o),
(171,503,o),
(145,503,cs)
);
}
);
userData = {
com.typemytype.robofont.guideline.magnetic.2V62fttru6 = 5;
com.typemytype.robofont.guideline.magnetic.2gIryhMM6S = 5;
com.typemytype.robofont.guideline.magnetic.NoAEDe3b1e = 5;
com.typemytype.robofont.guideline.magnetic.NxApnrOgNh = 5;
com.typemytype.robofont.guideline.magnetic.SjoCyDFycZ = 5;
};
width = 194;
},
{
layerId = "0A8B8749-808B-4003-9378-5450DA0F5EBF";
shapes = (
{
closed = 1;
nodes = (
(68,279,l),
(-54,-205,l),
(107,-205,l),
(189,279,l)
);
},
{
closed = 1;
nodes = (
(114,506,o),
(66,457,o),
(66,402,cs),
(66,356,o),
(100,321,o),
(146,321,cs),
(202,321,o),
(250,369,o),
(250,425,cs),
(250,471,o),
(215,506,o),
(168,506,cs)
);
}
);
userData = {
com.typemytype.robofont.guideline.magnetic.2V62fttru6 = 5;
com.typemytype.robofont.guideline.magnetic.2gIryhMM6S = 5;
com.typemytype.robofont.guideline.magnetic.NoAEDe3b1e = 5;
com.typemytype.robofont.guideline.magnetic.NxApnrOgNh = 5;
com.typemytype.robofont.guideline.magnetic.SjoCyDFycZ = 5;
};
width = 251;
}
);
unicode = 161;
},
{
glyphname = question;
lastChange = "2024-11-06 22:48:16 +0000";
layers = (
{
guides = (
{
angle = 78;
pos = (195,189);
userData = {
UFO.identifier = xLRskaGzQS;
};
}
);
layerId = m001;
shapes = (
{
closed = 1;
nodes = (
(215,193,l),
(227,269,o),
(258,315,o),
(317,349,cs),
(385,388,ls),
(463,433,o),
(504,493,o),
(504,563,cs),
(504,650,o),
(427,711,o),
(319,711,cs),
(246,711,o),
(170,680,o),
(102,622,c),
(130,590,l),
(192,642,o),
(256,669,o),
(319,669,cs),
(403,669,o),
(460,626,o),
(460,563,cs),
(460,508,o),
(428,461,o),
(363,424,cs),
(295,385,ls),
(223,344,o),
(188,285,o),
(175,193,c)
);
},
{
closed = 1;
nodes = (
(183,-5,o),
(201,13,o),
(201,36,cs),
(201,55,o),
(186,70,o),
(168,70,cs),
(145,70,o),
(127,52,o),
(127,29,cs),
(127,10,o),
(142,-5,o),
(160,-5,cs)
);
}
);
width = 487;
},
{
layerId = "C55C9F18-A1E0-4E6D-8952-C5F71D844606";
shapes = (
{
closed = 1;
nodes = (
(234,199,l),
(244,267,o),
(270,308,o),
(325,339,cs),
(387,374,ls),
(478,427,o),
(518,483,o),
(518,557,cs),
(518,649,o),
(438,711,o),
(325,711,cs),
(243,711,o),
(161,673,o),
(94,606,c),
(140,565,l),
(191,615,o),
(253,645,o),
(315,645,cs),
(392,645,o),
(446,605,o),
(446,548,cs),
(446,502,o),
(412,457,o),
(356,424,cs),
(292,388,ls),
(219,347,o),
(186,294,o),
(172,199,c)
);
},
{
closed = 1;
nodes = (
(196,-6,o),
(223,21,o),
(223,50,cs),
(223,76,o),
(204,96,o),
(178,96,cs),
(148,96,o),
(122,69,o),
(122,39,cs),
(122,14,o),
(141,-6,o),
(166,-6,cs)
);
}
);
width = 496;
},
{
layerId = "0A8B8749-808B-4003-9378-5450DA0F5EBF";
shapes = (
{
closed = 1;
nodes = (
(295,219,l),
(304,267,o),
(321,289,o),
(365,313,cs),
(393,329,ls),
(510,396,o),
(558,457,o),
(558,539,cs),
(558,640,o),
(466,710,o),
(334,710,cs),
(223,710,o),
(119,650,o),
(63,554,c),
(180,499,l),
(208,545,o),
(259,575,o),
(313,575,cs),
(366,575,o),
(399,552,o),
(399,515,cs),
(399,489,o),
(376,461,o),
(335,437,cs),
(274,399,ls),
(204,357,o),
(177,313,o),
(162,219,c)
);
},
{
closed = 1;
nodes = (
(245,-11,o),
(293,38,o),
(293,93,cs),
(293,139,o),
(259,174,o),
(213,174,cs),
(156,174,o),
(109,126,o),
(109,70,cs),
(109,24,o),
(144,-11,o),
(191,-11,cs)
);
}
);
width = 523;
}
);
unicode = 63;
},
{
glyphname = questiondown;
lastChange = "2024-11-06 22:48:16 +0000";
layers = (
{
layerId = m001;
shapes = (
{
closed = 1;
nodes = (
(273,304,l),
(261,228,o),
(230,182,o),
(171,148,cs),
(103,109,ls),
(25,64,o),
(-16,4,o),
(-16,-66,cs),
(-16,-153,o),
(61,-214,o),
(169,-214,cs),
(242,-214,o),
(318,-183,o),
(386,-125,c),
(358,-93,l),
(296,-145,o),
(232,-172,o),
(169,-172,cs),
(85,-172,o),
(28,-129,o),
(28,-66,cs),
(28,-11,o),
(60,36,o),
(125,73,cs),
(193,112,ls),
(265,153,o),
(300,212,o),
(313,304,c)
);
},
{
closed = 1;
nodes = (
(305,502,o),
(287,484,o),
(287,461,cs),
(287,442,o),
(302,427,o),
(320,427,cs),
(343,427,o),
(361,445,o),
(361,468,cs),
(361,487,o),
(346,502,o),
(328,502,cs)
);
}
);
userData = {
com.typemytype.robofont.guideline.magnetic.KHMLoJl0Y2 = 5;
com.typemytype.robofont.guideline.magnetic.NVuLzBB4vL = 5;
com.typemytype.robofont.guideline.magnetic.NfVRjmb1DX = 5;
com.typemytype.robofont.guideline.magnetic.QPPeQvs3JH = 5;
com.typemytype.robofont.guideline.magnetic.iHdMHo2nFi = 5;
};
width = 487;
},
{
layerId = "C55C9F18-A1E0-4E6D-8952-C5F71D844606";
shapes = (
{
closed = 1;
nodes = (
(269,298,l),
(259,230,o),
(233,189,o),
(178,158,cs),
(116,123,ls),
(25,70,o),
(-15,14,o),
(-15,-60,cs),
(-15,-152,o),
(65,-214,o),
(178,-214,cs),
(260,-214,o),
(342,-176,o),
(409,-109,c),
(363,-68,l),
(312,-118,o),
(250,-148,o),
(188,-148,cs),
(111,-148,o),
(57,-108,o),
(57,-51,cs),
(57,-5,o),
(91,40,o),
(147,73,cs),
(211,109,ls),
(284,150,o),
(317,203,o),
(331,298,c)
);
},
{
closed = 1;
nodes = (
(307,503,o),
(280,476,o),
(280,447,cs),
(280,421,o),
(299,401,o),
(325,401,cs),
(355,401,o),
(381,428,o),
(381,458,cs),
(381,483,o),
(362,503,o),
(337,503,cs)
);
}
);
userData = {
com.typemytype.robofont.guideline.magnetic.KHMLoJl0Y2 = 5;
com.typemytype.robofont.guideline.magnetic.NVuLzBB4vL = 5;
com.typemytype.robofont.guideline.magnetic.NfVRjmb1DX = 5;
com.typemytype.robofont.guideline.magnetic.QPPeQvs3JH = 5;
com.typemytype.robofont.guideline.magnetic.iHdMHo2nFi = 5;
};
width = 495;
},
{
layerId = "0A8B8749-808B-4003-9378-5450DA0F5EBF";
shapes = (
{
closed = 1;
nodes = (
(223,277,l),
(214,229,o),
(197,207,o),
(153,183,cs),
(125,167,ls),
(8,100,o),
(-40,39,o),
(-40,-43,cs),
(-40,-144,o),
(52,-214,o),
(184,-214,cs),
(295,-214,o),
(399,-154,o),
(455,-58,c),
(338,-3,l),
(310,-49,o),
(259,-79,o),
(205,-79,cs),
(152,-79,o),
(119,-56,o),
(119,-19,cs),
(119,7,o),
(142,35,o),
(183,59,cs),
(244,97,ls),
(314,139,o),
(341,183,o),
(356,277,c)
);
},
{
closed = 1;
nodes = (
(273,507,o),
(225,458,o),
(225,403,cs),
(225,357,o),
(259,322,o),
(305,322,cs),
(362,322,o),
(409,370,o),
(409,426,cs),
(409,472,o),
(374,507,o),
(327,507,cs)
);
}
);
userData = {
com.typemytype.robofont.guideline.magnetic.KHMLoJl0Y2 = 5;
com.typemytype.robofont.guideline.magnetic.NVuLzBB4vL = 5;
com.typemytype.robofont.guideline.magnetic.NfVRjmb1DX = 5;
com.typemytype.robofont.guideline.magnetic.QPPeQvs3JH = 5;
com.typemytype.robofont.guideline.magnetic.iHdMHo2nFi = 5;
};
width = 523;
}
);
unicode = 191;
},
{
color = (0,0,255,191);
glyphname = periodcentered;
lastChange = "2024-11-06 22:48:16 +0000";
layers = (
{
layerId = m001;
shapes = (
{
closed = 1;
nodes = (
(147,242,o),
(165,260,o),
(165,284,cs),
(165,303,o),
(150,318,o),
(132,318,cs),
(109,318,o),
(91,300,o),
(91,277,cs),
(91,257,o),
(106,242,o),
(124,242,cs)
);
}
);
width = 250;
},
{
layerId = "C55C9F18-A1E0-4E6D-8952-C5F71D844606";
shapes = (
{
closed = 1;
nodes = (
(155,231,o),
(182,258,o),
(182,287,cs),
(182,313,o),
(163,333,o),
(138,333,cs),
(108,333,o),
(81,306,o),
(81,276,cs),
(81,251,o),
(100,231,o),
(126,231,cs)
);
}
);
width = 250;
},
{
layerId = "0A8B8749-808B-4003-9378-5450DA0F5EBF";
shapes = (
{
closed = 1;
nodes = (
(173,194,o),
(221,243,o),
(221,298,cs),
(221,344,o),
(187,379,o),
(141,379,cs),
(85,379,o),
(37,331,o),
(37,275,cs),
(37,229,o),
(72,194,o),
(119,194,cs)
);
}
);
width = 250;
}
);
unicode = 183;
},
{
glyphname = bullet;
lastChange = "2024-11-06 22:48:16 +0000";
layers = (
{
layerId = m001;
shapes = (
{
closed = 1;
nodes = (
(227,267,o),
(272,315,o),
(272,374,cs),
(272,420,o),
(235,457,o),
(190,457,cs),
(134,457,o),
(89,409,o),
(89,350,cs),
(89,304,o),
(126,267,o),
(171,267,cs)
);
}
);
width = 311;
},
{
layerId = "C55C9F18-A1E0-4E6D-8952-C5F71D844606";
shapes = (
{
closed = 1;
nodes = (
(230,253,o),
(282,306,o),
(282,366,cs),
(282,416,o),
(243,454,o),
(194,454,cs),
(134,454,o),
(83,401,o),
(83,341,cs),
(83,292,o),
(122,253,o),
(172,253,cs)
);
}
);
width = 322;
},
{
layerId = "0A8B8749-808B-4003-9378-5450DA0F5EBF";
shapes = (
{
closed = 1;
nodes = (
(250,202,o),
(314,266,o),
(314,338,cs),
(314,399,o),
(269,445,o),
(208,445,cs),
(132,445,o),
(70,383,o),
(70,308,cs),
(70,248,o),
(116,202,o),
(178,202,cs)
);
}
);
width = 358;
}
);
unicode = 8226;
},
{
glyphname = asterisk;
kernLeft = _reg;
kernRight = _reg;
lastChange = "2024-11-06 22:48:16 +0000";
layers = (
{
layerId = m001;
shapes = (
{
closed = 1;
nodes = (
(253,352,l),
(283,500,l),
(390,416,l),
(412,444,l),
(305,527,l),
(443,594,l),
(427,626,l),
(296,563,l),
(327,700,l),
(290,700,l),
(262,561,l),
(157,643,l),
(135,615,l),
(238,535,l),
(97,464,l),
(113,432,l),
(249,500,l),
(216,352,l)
);
}
);
width = 425;
},
{
layerId = "C55C9F18-A1E0-4E6D-8952-C5F71D844606";
shapes = (
{
closed = 1;
nodes = (
(264,341,l),
(291,479,l),
(391,398,l),
(429,440,l),
(323,520,l),
(458,584,l),
(436,631,l),
(310,568,l),
(340,700,l),
(287,700,l),
(261,568,l),
(162,648,l),
(126,607,l),
(229,528,l),
(92,462,l),
(113,414,l),
(242,480,l),
(211,341,l)
);
}
);
width = 437;
},
{
layerId = "0A8B8749-808B-4003-9378-5450DA0F5EBF";
shapes = (
{
closed = 1;
nodes = (
(300,307,l),
(320,411,l),
(401,344,l),
(474,425,l),
(383,494,l),
(507,554,l),
(468,644,l),
(356,587,l),
(382,700,l),
(282,700,l),
(260,591,l),
(175,661,l),
(104,582,l),
(198,509,l),
(79,453,l),
(116,361,l),
(223,415,l),
(199,307,l)
);
}
);
width = 477;
}
);
unicode = 42;
},
{
glyphname = numbersign;
lastChange = "2024-11-06 22:48:16 +0000";
layers = (
{
layerId = m001;
shapes = (
{
closed = 1;
nodes = (
(72,0,l),
(185,230,l),
(398,230,l),
(285,0,l),
(329,0,l),
(442,230,l),
(574,230,l),
(583,270,l),
(462,270,l),
(540,430,l),
(666,430,l),
(675,470,l),
(560,470,l),
(673,700,l),
(629,700,l),
(516,470,l),
(303,470,l),
(416,700,l),
(372,700,l),
(259,470,l),
(126,470,l),
(117,430,l),
(239,430,l),
(161,270,l),
(34,270,l),
(26,230,l),
(141,230,l),
(28,0,l)
);
},
{
closed = 1;
nodes = (
(283,430,l),
(496,430,l),
(418,270,l),
(205,270,l)
);
}
);
width = 657;
},
{
layerId = "C55C9F18-A1E0-4E6D-8952-C5F71D844606";
shapes = (
{
closed = 1;
nodes = (
(74,0,l),
(182,219,l),
(375,219,l),
(267,0,l),
(335,0,l),
(443,219,l),
(575,219,l),
(587,277,l),
(471,277,l),
(543,423,l),
(668,423,l),
(680,481,l),
(571,481,l),
(679,700,l),
(611,700,l),
(503,481,l),
(311,481,l),
(419,700,l),
(350,700,l),
(242,481,l),
(110,481,l),
(97,423,l),
(214,423,l),
(142,277,l),
(17,277,l),
(5,219,l),
(114,219,l),
(6,0,l)
);
},
{
closed = 1;
nodes = (
(282,423,l),
(475,423,l),
(403,277,l),
(211,277,l)
);
}
);
width = 678;
},
{
layerId = "0A8B8749-808B-4003-9378-5450DA0F5EBF";
shapes = (
{
closed = 1;
nodes = (
(152,0,l),
(243,184,l),
(373,184,l),
(282,0,l),
(423,0,l),
(514,184,l),
(647,184,l),
(671,298,l),
(570,298,l),
(621,402,l),
(742,402,l),
(767,516,l),
(677,516,l),
(768,700,l),
(627,700,l),
(536,516,l),
(406,516,l),
(497,700,l),
(355,700,l),
(264,516,l),
(131,516,l),
(106,402,l),
(208,402,l),
(157,298,l),
(35,298,l),
(11,184,l),
(101,184,l),
(10,0,l)
);
},
{
closed = 1;
nodes = (
(350,402,l),
(480,402,l),
(429,298,l),
(299,298,l)
);
}
);
width = 741;
}
);
unicode = 35;
},
{
glyphname = slash;
lastChange = "2024-11-06 22:48:16 +0000";
layers = (
{
layerId = m001;
shapes = (
{
closed = 1;
nodes = (
(-111,-204,l),
(490,700,l),
(440,700,l),
(-161,-204,l)
);
}
);
width = 425;
},
{
layerId = "C55C9F18-A1E0-4E6D-8952-C5F71D844606";
shapes = (
{
closed = 1;
nodes = (
(-88,-204,l),
(518,700,l),
(441,700,l),
(-164,-204,l)
);
}
);
width = 451;
},
{
layerId = "0A8B8749-808B-4003-9378-5450DA0F5EBF";
shapes = (
{
closed = 1;
nodes = (
(-2,-211,l),
(607,700,l),
(438,700,l),
(-172,-211,l)
);
}
);
width = 531;
}
);
unicode = 47;
},
{
glyphname = backslash;
lastChange = "2024-11-06 22:48:16 +0000";
layers = (
{
layerId = m001;
shapes = (
{
closed = 1;
nodes = (
(145,700,l),
(101,700,l),
(320,-204,l),
(364,-204,l)
);
}
);
width = 367;
},
{
layerId = "C55C9F18-A1E0-4E6D-8952-C5F71D844606";
shapes = (
{
closed = 1;
nodes = (
(173,700,l),
(102,700,l),
(322,-204,l),
(394,-204,l)
);
}
);
width = 404;
},
{
layerId = "0A8B8749-808B-4003-9378-5450DA0F5EBF";
shapes = (
{
closed = 1;
nodes = (
(267,700,l),
(110,700,l),
(331,-211,l),
(489,-211,l)
);
}
);
width = 520;
}
);
unicode = 92;
},
